<svg xmlns="http://www.w3.org/2000/svg" viewBox="0 0 116.89 46.75"><defs><style>.cls-1{fill:#594a42;}</style></defs><g id="Слой_2" data-name="Слой 2"><g id="Слой_1-2" data-name="Слой 1"><g id="Layer_2" data-name="Layer 2"><path class="cls-1" d="M116.89,6V40.74a4.38,4.38,0,0,0-2-1,4.61,4.61,0,0,0,.6-2.29v-28a4.58,4.58,0,0,0-.6-2.29A4.34,4.34,0,0,0,116.89,6Z"/><path class="cls-1" d="M110.87,46.75H6a4.12,4.12,0,0,0,1-2,4.72,4.72,0,0,0,2.29.6h98.19a4.72,4.72,0,0,0,2.29-.6A4.24,4.24,0,0,0,110.87,46.75Z"/><path class="cls-1" d="M116.89,43.88A2.88,2.88,0,1,1,114,41h0a2.88,2.88,0,0,1,2.88,2.86Z"/><path class="cls-1" d="M116.89,2.87A2.88,2.88,0,1,1,114,0h0A2.88,2.88,0,0,1,116.89,2.87Z"/><path class="cls-1" d="M1.4,37.4A4.69,4.69,0,0,0,2,39.69a4.27,4.27,0,0,0-2,1V6A4.16,4.16,0,0,0,2,7a4.72,4.72,0,0,0-.6,2.29Z"/><path class="cls-1" d="M110.87,0a4.34,4.34,0,0,0-1,2,4.72,4.72,0,0,0-2.29-.6H9.38A4.72,4.72,0,0,0,7.09,2a4.27,4.27,0,0,0-1-2Z"/><path class="cls-1" d="M112.78,11.07V35.68a18.58,18.58,0,0,1-7,7H11.07a18.72,18.72,0,0,1-7-7V11.07a18.8,18.8,0,0,1,7-7h94.74A18.65,18.65,0,0,1,112.78,11.07Z"/><path class="cls-1" d="M5.74,43.88A2.87,2.87,0,1,1,2.87,41h0A2.87,2.87,0,0,1,5.74,43.88Z"/><path class="cls-1" d="M5.74,2.87A2.87,2.87,0,1,1,2.87,0h0A2.87,2.87,0,0,1,5.74,2.87Z"/></g></g></g></svg>