<?xml version="1.0" encoding="utf-8"?>
<!-- Generator: Adobe Illustrator 26.1.0, SVG Export Plug-In . SVG Version: 6.00 Build 0)  -->
<svg version="1.1" id="Слой_1" xmlns="http://www.w3.org/2000/svg" xmlns:xlink="http://www.w3.org/1999/xlink" x="0px" y="0px"
	 viewBox="0 0 116.9 46.8" style="enable-background:new 0 0 116.9 46.8;" xml:space="preserve">
<style type="text/css">
	.st0{fill:#C67F32;}
</style>
<g id="Слой_2_00000018931902666406954150000015970773634928199327_">
	<g id="Слой_1-2">
		<g id="Layer_2">
			<path class="st0" d="M116.9,6v34.7c-0.6-0.5-1.3-0.8-2-1c0.4-0.7,0.6-1.5,0.6-2.3v-28c0-0.8-0.2-1.6-0.6-2.3
				C115.6,7,116.3,6.6,116.9,6z"/>
			<path class="st0" d="M110.9,46.8H6c0.5-0.6,0.9-1.3,1-2c0.7,0.4,1.5,0.6,2.3,0.6h98.2c0.8,0,1.6-0.2,2.3-0.6
				C109.9,45.5,110.3,46.2,110.9,46.8z"/>
			<path class="st0" d="M116.9,43.9c0,1.6-1.3,2.9-2.9,2.9c-1.6,0-2.9-1.3-2.9-2.9c0-1.6,1.3-2.9,2.9-2.9l0,0
				C115.6,41,116.9,42.3,116.9,43.9L116.9,43.9z"/>
			<path class="st0" d="M116.9,2.9c0,1.6-1.3,2.9-2.9,2.9c-1.6,0-2.9-1.3-2.9-2.9c0-1.6,1.3-2.9,2.9-2.9l0,0
				C115.6,0,116.9,1.3,116.9,2.9C116.9,2.9,116.9,2.9,116.9,2.9z"/>
			<path class="st0" d="M1.4,37.4c0,0.8,0.2,1.6,0.6,2.3c-0.7,0.1-1.4,0.5-2,1V6c0.6,0.5,1.3,0.9,2,1C1.6,7.7,1.4,8.5,1.4,9.3V37.4z
				"/>
			<path class="st0" d="M110.9,0c-0.5,0.6-0.8,1.3-1,2c-0.7-0.4-1.5-0.6-2.3-0.6H9.4C8.6,1.4,7.8,1.6,7.1,2c-0.1-0.7-0.5-1.4-1-2
				H110.9z"/>
			<path class="st0" d="M112.8,11.1v24.6c-1.7,2.9-4.1,5.3-7,7H11.1c-2.9-1.7-5.3-4.1-7-7V11.1c1.7-2.9,4.1-5.3,7-7h94.7
				C108.7,5.7,111.1,8.2,112.8,11.1z"/>
			<path class="st0" d="M5.7,43.9c0,1.6-1.3,2.9-2.9,2.9S0,45.4,0,43.9C0,42.3,1.3,41,2.9,41l0,0C4.5,41,5.7,42.3,5.7,43.9
				C5.7,43.9,5.7,43.9,5.7,43.9z"/>
			<path class="st0" d="M5.7,2.9c0,1.6-1.3,2.9-2.9,2.9S0,4.5,0,2.9C0,1.3,1.3,0,2.9,0c0,0,0,0,0,0l0,0C4.5,0,5.7,1.3,5.7,2.9z"/>
		</g>
	</g>
</g>
</svg>
