<svg xmlns="http://www.w3.org/2000/svg" viewBox="0 0 46.75 46.75"><defs><style>.cls-1{fill:#594a42;}</style></defs><g id="Слой_2" data-name="Слой 2"><g id="Слой_1-2" data-name="Слой 1"><path class="cls-1" d="M1.4,9.35A4.72,4.72,0,0,1,2,7.06,4.25,4.25,0,0,1,0,6v34.7a4.34,4.34,0,0,1,2-1,4.72,4.72,0,0,1-.6-2.29ZM44.75,7.06a4.72,4.72,0,0,1,.6,2.29V37.4a4.69,4.69,0,0,1-.6,2.29,4.22,4.22,0,0,1,2,1V6A4.17,4.17,0,0,1,44.75,7.06ZM6,0A4.16,4.16,0,0,1,7,2a4.72,4.72,0,0,1,2.29-.6H37.38a4.72,4.72,0,0,1,2.29.6,4.16,4.16,0,0,1,1-2ZM39.67,44.75a4.72,4.72,0,0,1-2.29.6H9.32A4.72,4.72,0,0,1,7,44.75a4.12,4.12,0,0,1-1,2H40.74a4.35,4.35,0,0,1-1.05-2Z"/><path class="cls-1" d="M39.63,7.12a4.09,4.09,0,0,0-4-3H11.07a4.11,4.11,0,0,0-3.95,3,4.11,4.11,0,0,0-3,4V35.68a4.09,4.09,0,0,0,3,4,4.1,4.1,0,0,0,4,3H35.68a4.08,4.08,0,0,0,4-3,4.08,4.08,0,0,0,3-4V11.07A4.1,4.1,0,0,0,39.63,7.12Zm-2.76,27.3a5.71,5.71,0,0,0,2.54,1.47,5.31,5.31,0,0,0-.86,2.68,5.31,5.31,0,0,0-2.68.86,5.71,5.71,0,0,0-1.47-2.54l-11-11.06-11,11a5.64,5.64,0,0,0-1.48,2.54,5.31,5.31,0,0,0-2.67-.86,5.41,5.41,0,0,0-.86-2.68A5.77,5.77,0,0,0,9.87,34.4l11.06-11-11-11a5.69,5.69,0,0,0-2.54-1.48,5.41,5.41,0,0,0,.86-2.67,5.41,5.41,0,0,0,2.67-.86,5.69,5.69,0,0,0,1.48,2.54l11,11.06,11-11a5.77,5.77,0,0,0,1.47-2.54,5.41,5.41,0,0,0,2.68.86,5.31,5.31,0,0,0,.86,2.67,5.64,5.64,0,0,0-2.54,1.48l-11.06,11Z"/><path class="cls-1" d="M46.75,43.88A2.87,2.87,0,1,1,43.88,41h0a2.87,2.87,0,0,1,2.87,2.86Z"/><path class="cls-1" d="M5.74,43.88A2.87,2.87,0,1,1,2.87,41h0A2.87,2.87,0,0,1,5.74,43.88Z"/><path class="cls-1" d="M5.74,2.87A2.87,2.87,0,1,1,2.87,0h0A2.87,2.87,0,0,1,5.74,2.87Z"/><path class="cls-1" d="M46.75,2.87A2.87,2.87,0,1,1,43.88,0h0A2.87,2.87,0,0,1,46.75,2.87Z"/></g></g></svg>