<svg xmlns="http://www.w3.org/2000/svg" viewBox="0 0 393.11 33.2"><defs><style>.cls-1{fill:#c67f32;}</style></defs><g id="Слой_2" data-name="Слой 2"><g id="Слой_1-2" data-name="Слой 1"><g id="Layer_1" data-name="Layer 1"><path class="cls-1" d="M387.42,16.6A18.83,18.83,0,0,1,385,7.51h8.16A16,16,0,0,1,389.27,0a17.25,17.25,0,0,1-3.45,1.48,17.49,17.49,0,0,1-5.14.77H12.43A17.63,17.63,0,0,1,3.83,0,15.91,15.91,0,0,1,0,7.51H7.87A19,19,0,0,1,5.39,16.6a18.91,18.91,0,0,1,2.48,9.08H0A15.94,15.94,0,0,1,3.83,33.2,17.25,17.25,0,0,1,7,31.81a17.72,17.72,0,0,1,5.46-.87H380.68a17.47,17.47,0,0,1,8.59,2.26,15.94,15.94,0,0,1,3.83-7.52H385A18.79,18.79,0,0,1,387.42,16.6ZM12.93,25.68a19.71,19.71,0,0,0-2.58-9.08,19.75,19.75,0,0,0,2.58-9.09h367a19.76,19.76,0,0,0,2.59,9.09,19.73,19.73,0,0,0-2.59,9.08Z"/></g></g></g></svg>