<svg xmlns="http://www.w3.org/2000/svg" viewBox="0 0 928.44 470.93"><defs><style>.cls-1{fill:#c67f32;}.cls-2{fill:#d8b18b;}.cls-3{fill:#e29d59;}</style></defs><g id="Слой_2" data-name="Слой 2"><g id="Слой_1-2" data-name="Слой 1"><g id="Layer_1" data-name="Layer 1"><path class="cls-1" d="M871.65,23.4H56.79a33.4,33.4,0,0,1-33.4,33.4V414.13a33.4,33.4,0,0,1,33.4,33.4H871.65A33.4,33.4,0,0,1,905,414.13V56.8A33.39,33.39,0,0,1,871.65,23.4ZM895,380.86c0,15.32-8.53,28.51-20.78,34.43h0c-5.53,13.1-17.86,22.22-32.18,22.22H86.38c-14.32,0-26.64-9.12-32.19-22.22h0c-12.25-5.93-20.77-19.11-20.77-34.42V90.07c0-15.31,8.52-28.49,20.77-34.42h0c5.55-13.1,17.87-22.22,32.19-22.22H842.06c14.31,0,26.64,9.12,32.18,22.22h0C886.49,61.57,895,74.76,895,90.07Z"/><path class="cls-1" d="M47.23,0a33.39,33.39,0,0,1,7.93,13,33.28,33.28,0,0,1,11.18-1.93H862.09a33.29,33.29,0,0,1,11.19,1.93A33.24,33.24,0,0,1,881.2,0ZM873.28,457.88a33.34,33.34,0,0,1-11.19,1.93H66.34a33.28,33.28,0,0,1-11.18-1.93,33.31,33.31,0,0,1-7.93,13.05h834A33.1,33.1,0,0,1,873.28,457.88Zm-862.71-61V74a46.21,46.21,0,0,1,3.8-18.48A33.15,33.15,0,0,1,0,47.25V423.68a33.35,33.35,0,0,1,14.35-8.31A46.21,46.21,0,0,1,10.57,396.89ZM914.06,55.59a46.05,46.05,0,0,1,3.81,18.48V396.89a46.05,46.05,0,0,1-3.81,18.48,33.31,33.31,0,0,1,14.36,8.32V47.24a33.21,33.21,0,0,1-14.36,8.32Z"/><path class="cls-2" d="M895,90.06v290.8c0,15.32-8.53,28.51-20.78,34.43h0c-5.53,13.1-17.86,22.22-32.18,22.22H86.38c-14.32,0-26.64-9.12-32.19-22.22h0c-12.25-5.93-20.77-19.11-20.77-34.42V90.06c0-15.3,8.52-28.49,20.77-34.41h0c5.55-13.11,17.87-22.22,32.19-22.22H842.06c14.31,0,26.64,9.11,32.18,22.22h0C886.47,61.56,895,74.75,895,90.06Z"/><path class="cls-3" d="M924.18,434.1a23.43,23.43,0,0,0-15.46-9.66,23.92,23.92,0,0,0-3.68-.29,23.38,23.38,0,1,0,19.14,10ZM905,464.23a16.7,16.7,0,0,1-16.7-16.7h0a16.71,16.71,0,0,1,13.87-16.45,15.76,15.76,0,0,1,2.83-.25,16.7,16.7,0,1,1,0,33.4Z"/><path class="cls-3" d="M23.39,424.15a23.66,23.66,0,0,0-3.66.29,23.35,23.35,0,1,0,3.66-.29ZM33.8,460.59a16.7,16.7,0,1,1-10.41-29.76,15.79,15.79,0,0,1,2.84.25,16.69,16.69,0,0,1,13.86,16.45h0A16.66,16.66,0,0,1,33.8,460.59Z"/><path class="cls-3" d="M46.12,17.89a23.38,23.38,0,1,0-26.39,28.6,23.66,23.66,0,0,0,3.66.29A23.37,23.37,0,0,0,46.1,17.89Zm-6,5.51A16.71,16.71,0,0,1,26.25,39.85a16,16,0,0,1-2.84.25,16.7,16.7,0,1,1,16.7-16.7Z"/><path class="cls-3" d="M905,0a23.38,23.38,0,1,0,0,46.75,23.92,23.92,0,0,0,3.68-.29A23.37,23.37,0,0,0,905,0Zm0,40.07a15.76,15.76,0,0,1-2.83-.25A16.7,16.7,0,0,1,888.34,23.4h0A16.7,16.7,0,1,1,905,40.1Z"/></g></g></g></svg>