<svg xmlns="http://www.w3.org/2000/svg" viewBox="0 0 387.39 387.39"><defs><style>.cls-1{fill:#c67f32;}</style></defs><g id="Слой_2" data-name="Слой 2"><g id="Слой_1-2" data-name="Слой 1"><g id="Layer_1" data-name="Layer 1"><path class="cls-1" d="M86.83,0H13.36A13.36,13.36,0,0,1,0,13.36V86.83a13.36,13.36,0,0,1,13.36,13.36H43.41V97.77A32,32,0,0,1,66.93,66.93,32,32,0,0,1,97.77,43.41h2.42v-30A13.36,13.36,0,0,1,86.83,0ZM26.72,60.11V26.72H60.11A33.39,33.39,0,0,1,26.72,60.11Z"/><path class="cls-1" d="M374,0H300.56A13.36,13.36,0,0,1,287.2,13.36V43.41h2.42a32,32,0,0,1,30.84,23.52A32,32,0,0,1,344,97.77v2.42h30a13.36,13.36,0,0,1,13.36-13.36V13.36A13.36,13.36,0,0,1,374,0ZM360.67,60.11a33.39,33.39,0,0,1-33.39-33.39h33.39Z"/><path class="cls-1" d="M374,287.2H344v2.42a32,32,0,0,1-23.52,30.84A32,32,0,0,1,289.62,344H287.2v30a13.36,13.36,0,0,1,13.36,13.36H374A13.36,13.36,0,0,1,387.39,374V300.56A13.36,13.36,0,0,1,374,287.2Zm-13.36,73.47H327.28a33.39,33.39,0,0,1,33.39-33.39Z"/><path class="cls-1" d="M97.77,344a32,32,0,0,1-30.84-23.52,32,32,0,0,1-23.52-30.84V287.2H14A13.36,13.36,0,0,1,.67,300.56V374A13.36,13.36,0,0,1,14,387.39H87.5A13.36,13.36,0,0,1,100.86,374V344ZM27.38,360.67V327.28a33.39,33.39,0,0,1,32.73,33.39Z"/></g></g></g></svg>