<svg xmlns="http://www.w3.org/2000/svg" viewBox="0 0 133.58 133.58"><defs><style>.cls-1{fill:#c67f32;}.cls-2{fill:#e29d59;}.cls-3{fill:#00a552;}.cls-4{fill:#00b863;}.cls-5{fill:#4f5106;}.cls-6{fill:#3a3e00;}.cls-7{fill:#d17b00;}</style></defs><g id="Слой_2" data-name="Слой 2"><g id="Слой_1-2" data-name="Слой 1"><circle class="cls-1" cx="66.79" cy="66.79" r="66.79"/><circle class="cls-2" cx="66.79" cy="66.79" r="60.11"/><path class="cls-3" d="M90.64,45c0,6.68-11.26,12.17-25.79,13-1.18.07-2.37.1-3.59.1s-2.41,0-3.59-.1h-.09c14.49-.8,25.7-6.29,25.7-12.95Z"/><path class="cls-4" d="M83.28,45c0,6.68-11.21,12.15-25.7,13-14.49-.8-25.69-6.29-25.69-13Z"/><path class="cls-3" d="M64.85,57.94V77.36a11.79,11.79,0,0,0-4.67-.72,1.77,1.77,0,0,1-1.42-.39A4.3,4.3,0,0,1,57.65,74V57.94c1.17.07,2.37.1,3.58.1S63.67,58,64.85,57.94Z"/><path class="cls-3" d="M84.76,110.51h-47l19.91-8.69V82.88a9.25,9.25,0,0,0,2.67.31,15.36,15.36,0,0,1,4.49,1h0v17.65Z"/><path class="cls-5" d="M91,24.79a3.23,3.23,0,0,0-2.79-.61c-2.11-1.93-8.37-.74-8.37-.74S72,25.4,69.75,30c-.81,1.62.51,2.72,2.67,3.39a8.87,8.87,0,0,0,.92.25c4,1,10.1.75,12-.17a7.18,7.18,0,0,0,3.22-2.6,13.56,13.56,0,0,1,6.17,14.8C93.06,53.85,86.15,54.9,68,59.8c-1.13.29-2.18.6-3.16.93v7a34,34,0,0,1,4.81-1.62h0c21-5.66,29.24-8.22,31.5-19.17C104.34,31.67,91.74,25.33,91,24.79ZM77.36,29.71c-1.72.63-3.34.5-3.63-.29s.87-1.93,2.59-2.56,3.34-.5,3.62.28S79.06,29.08,77.36,29.71Z"/><path class="cls-6" d="M77.36,29.71c-1.72.63-3.34.5-3.63-.29s.87-1.93,2.59-2.56,3.34-.5,3.62.28S79.06,29.08,77.36,29.71Z"/><path class="cls-5" d="M33.23,95.77c-.19,1.33,13.8.94,24.44-2V88.59C49.93,91.72,33.44,94.3,33.23,95.77Z"/><path class="cls-5" d="M67.23,89.38A14.69,14.69,0,0,1,64.85,91V84.15h0a15.36,15.36,0,0,0-4.49-1,9.25,9.25,0,0,1-2.67-.31,7.84,7.84,0,0,1-3.48-2,10.33,10.33,0,0,1-2.72-6.68c-.09-1.34,0-6,6.2-10.09v9.92a4.31,4.31,0,0,0,1.11,2.21,1.79,1.79,0,0,0,1.43.4,11.67,11.67,0,0,1,4.64.72,6.83,6.83,0,0,1,3.65,3.1C69.86,83,70.1,86.89,67.23,89.38Z"/><path class="cls-7" d="M77.36,29.71c-1.72.63-3.34.5-3.63-.29s.87-1.93,2.59-2.56,3.34-.5,3.62.28S79.06,29.08,77.36,29.71Z"/></g></g></svg>