<svg xmlns="http://www.w3.org/2000/svg" viewBox="0 0 133.58 133.62"><defs><style>.cls-1{fill:#20a8b2;}.cls-2{fill:#31c7db;}.cls-3{fill:#d1d3d4;}.cls-4{fill:#e8e8e8;}.cls-5{fill:#995e2e;}.cls-6{fill:#89511f;}.cls-7{fill:#6d380f;}.cls-8{fill:#3f2006;}.cls-9{fill:#441f07;}.cls-10{fill:#2b1403;}</style></defs><g id="Слой_2" data-name="Слой 2"><g id="Слой_1-2" data-name="Слой 1"><path class="cls-1" d="M133.58,66.79q0,3.25-.3,6.42A65.39,65.39,0,0,1,131,85.38,66.79,66.79,0,0,1,.26,72.69c-.17-2-.26-3.91-.26-5.9A66.82,66.82,0,0,1,38.65,6.2,65.43,65.43,0,0,1,50.4,2a67.14,67.14,0,0,1,32.37-.1A65.6,65.6,0,0,1,94.48,6,66.78,66.78,0,0,1,133.58,66.79Z"/><circle class="cls-2" cx="66.79" cy="66.79" r="60.11"/><path class="cls-3" d="M65,94.92a.46.46,0,0,0,.46.47h44.79A8,8,0,0,0,110,79.31a6.72,6.72,0,0,0-1.41.12A8,8,0,1,0,93.37,83.5a7.78,7.78,0,0,0-1.75,1.33,8.19,8.19,0,0,0-1.71,2.53c-.13.32.59,1,.71.71a7.3,7.3,0,0,1,1.65-2.59,7.15,7.15,0,0,1,8.14-1.38,7.4,7.4,0,0,1,.86.5,6.63,6.63,0,0,1,1,.78l.11.1.27.29a7.11,7.11,0,0,1,1.77,5.47,7.23,7.23,0,0,1-1.16,3.24H65.47A.46.46,0,0,0,65,94.92Zm42.71-15.28a8.09,8.09,0,0,0-5.18,4.76,7.77,7.77,0,0,0-1.09-.79,6.65,6.65,0,0,0-.84-.43,8.07,8.07,0,0,0-6.41-.1,7.05,7.05,0,0,1-.72-3.1,7.13,7.13,0,0,1,14.24-.34ZM104.3,94.47a7.94,7.94,0,0,0,1-2.77,7,7,0,0,0,.08-1.21,8,8,0,0,0-2.07-5.34,7.12,7.12,0,0,1,4.46-4.51c.3-.1.61-.18.92-.25A7.13,7.13,0,0,1,117,86a7.09,7.09,0,0,1-.4,4A7.12,7.12,0,0,1,110,94.48Z"/><path class="cls-4" d="M93.48,80a7.05,7.05,0,0,0,.72,3.1,8.07,8.07,0,0,1,6.41.1,6.65,6.65,0,0,1,.84.43,7.77,7.77,0,0,1,1.09.79,8.09,8.09,0,0,1,5.18-4.76A7.13,7.13,0,0,0,93.48,80Z"/><path class="cls-4" d="M105.26,91.7a7.94,7.94,0,0,1-1,2.77H110a7.11,7.11,0,0,0,6.59-4.42,7,7,0,0,0,.53-2.67A7.13,7.13,0,0,0,110,80.25a7,7,0,0,0-1.38.13c-.31.07-.62.15-.92.25a7.14,7.14,0,0,0-4.46,4.51,7.94,7.94,0,0,1,2.07,5.34A7.08,7.08,0,0,1,105.26,91.7Z"/><path class="cls-3" d="M75.88,97.46a.38.38,0,0,0,.38.38h36.52a6.56,6.56,0,0,0,6.34-5.91c0-.22,0-.43,0-.67s-.48,0-.77.37a5.58,5.58,0,0,1-.26,1.4,5.79,5.79,0,0,1-5.53,4H76.26a.38.38,0,0,0-.38.37Z"/><path class="cls-5" d="M72.05,41.18a7.47,7.47,0,0,0-4,3.34,30.39,30.39,0,0,0-3.11,6.6h0c-.4,1.11-.73,2.17-1,3.11-3.65,11.61-6.52,18.66-11.49,24.38l-.23.26a46.94,46.94,0,0,1-9.91,8.19h0l-1.12.71-.39.24-.78.48h0c-.76.48-1.57.94-2.41,1.43l-.94.54-1.33.76-.47.25c-1.4.78-2.88,1.57-4.45,2.39a30.55,30.55,0,0,1,.73-3.39c.67-1.92,10.6-2.93,10.83-11.06S44.2,56,37.53,49.27a28.5,28.5,0,0,1,5.4-10.78,62.41,62.41,0,0,1,9.43-9.31c4.29,1.84,4.34,1.3,7.71,3.92C69,40.12,65.5,37.72,72.05,41.18Z"/><path class="cls-6" d="M52.22,78.91a46.74,46.74,0,0,1-9.91,8.2A47,47,0,0,0,52.22,78.91Z"/><path class="cls-6" d="M64,54.27c.26-.93.6-2,1-3.11-.3.92-.63,2-1,3.11-3.65,11.61-6.52,18.66-11.5,24.38C57.43,72.94,60.29,65.88,64,54.27Z"/><path class="cls-7" d="M84.21,46.49c-7.5,7.42-11.84,18.61-14.47,28.64h0c-1.34-.42-2.67-.79-4.08-1.14-2.06,4-4.21,8.32-7.39,11.58.4.38.81.77,1.19,1.19-3,3.69-22.89,15.25-27.73,16.69A3.29,3.29,0,0,1,30,103c-1.23-1.38-1.51-4.44.42-9.11,1.57-.83,3.06-1.62,4.45-2.4l.47-.25,1.33-.76.95-.54c.83-.48,1.64-1,2.41-1.42h0l.77-.49.4-.24,1.11-.7h0a47.29,47.29,0,0,0,9.91-8.2l.23-.26c5-5.72,7.84-12.77,11.5-24.38.26-.93.6-2,1-3.11h0a30.79,30.79,0,0,1,3.11-6.59c1.15-1.71,2.48-3,4-3.34C72.13,41.16,80.3,44.49,84.21,46.49Z"/><path class="cls-8" d="M71.68,84c-18.58,19.66-25.75,22.21-40,19.5,4.84-1.44,24.78-13,27.73-16.69A120.38,120.38,0,0,0,71.68,84Z"/><path class="cls-9" d="M71.68,84a118.56,118.56,0,0,1-12.24,2.81c-.38-.42-.79-.81-1.19-1.19,4.08-.84,8.08-2,12.13-3.06C70.81,83,71.24,83.48,71.68,84Z"/><path class="cls-8" d="M79,71.82A2.93,2.93,0,0,0,76.14,71c-2.67.79-4.44,2.42-6.42,4.17,2.68-10.06,7-21.17,14.5-28.66C88.51,51,82,67.13,79,71.82Z"/><path class="cls-10" d="M76.1,70.94a87.56,87.56,0,0,1-5.72,11.57c-4,1-8,2.22-12.13,3.06C61.43,82.31,63.59,78,65.64,74c1.37.36,2.73.72,4.08,1.14h0A18.16,18.16,0,0,1,76.1,70.94Z"/></g></g></svg>