<svg xmlns="http://www.w3.org/2000/svg" viewBox="0 0 153.65 153.69"><defs><style>.cls-1{fill:#1d62a6;}</style></defs><g id="Слой_2" data-name="Слой 2"><g id="Слой_1-2" data-name="Слой 1"><path class="cls-1" d="M134.81,129.56v5.29h-5.29a77.58,77.58,0,0,1-7.85,6.27H141V121.71A77.19,77.19,0,0,1,134.81,129.56Zm-116,5.29v-5.28a77.7,77.7,0,0,1-6.27-7.86v19.41H31.91a77.46,77.46,0,0,1-7.84-6.27ZM12.54,12.58V32a77.58,77.58,0,0,1,6.27-7.85V18.82H24.1a80,80,0,0,1,7.84-6.27Zm109.13,0a75.15,75.15,0,0,1,7.85,6.27h5.29v5.28A77.58,77.58,0,0,1,141.08,32V12.61Z"/><path class="cls-1" d="M152.1,98.65A76,76,0,0,1,147.35,111v36.38H111a77.27,77.27,0,0,1-18.55,6.26h61.17V92.51C153.21,94.58,152.71,96.63,152.1,98.65ZM6.27,147.41V111.06A76.63,76.63,0,0,1,1.38,98.22Q.59,95.42,0,92.53v61.14H61.16a77.56,77.56,0,0,1-18.55-6.26ZM0,.06V61.19A77.29,77.29,0,0,1,6.27,42.66V6.33H42.63l1.16-.56A76.69,76.69,0,0,1,57.58.87C58.76.57,60,.3,61.16.06Zm92.46,0c1,.21,2.08.44,3.11.67a76.43,76.43,0,0,1,13.71,4.75L111,6.3h36.34V42.64a77.29,77.29,0,0,1,6.27,18.55V0Z"/><path class="cls-1" d="M130.42,0a89.93,89.93,0,0,1,9.35,7.49h6.32v6.3a92.46,92.46,0,0,1,7.5,9.35V0ZM0,0V23.21a94.93,94.93,0,0,1,7.49-9.35V7.55H13.8A96.5,96.5,0,0,1,23.18.06ZM13.81,146.17H7.49v-6.32A93.49,93.49,0,0,1,0,130.5v23.19H23.19a91.64,91.64,0,0,1-9.38-7.52Zm132.32-6.33v6.33H139.8a92.36,92.36,0,0,1-9.35,7.49h23.2v-23.2A94.43,94.43,0,0,1,146.13,139.84Z"/><path class="cls-1" d="M144.24,15.73h-6.32V9.42a96.22,96.22,0,0,1-7.5-9.35V23.24h23.2A90.21,90.21,0,0,1,144.24,15.73ZM15.68,9.41v6.31H9.4A94.93,94.93,0,0,1,.05,23.21H23.24V0a94.42,94.42,0,0,1-7.56,9.37ZM0,130.46A91.09,91.09,0,0,1,9.35,138h6.33v6.3a95.56,95.56,0,0,1,7.49,9.4v-23.2Zm130.42,0v23.2a96.72,96.72,0,0,1,7.5-9.39V138h6.32a93.59,93.59,0,0,1,9.35-7.5Z"/></g></g></svg>