<svg xmlns="http://www.w3.org/2000/svg" viewBox="0 0 153.62 153.62"><defs><style>.cls-1{fill:#e29d59;}</style></defs><g id="Слой_2" data-name="Слой 2"><g id="Слой_1-2" data-name="Слой 1"><g id="Layer_1" data-name="Layer 1"><path class="cls-1" d="M3.41,93A80.65,80.65,0,0,1,0,105.06a82,82,0,0,0,48.55,48.56,80.58,80.58,0,0,1,12.11-3.39A75.23,75.23,0,0,1,3.41,93ZM105.06,0A80.65,80.65,0,0,1,93,3.41a75.24,75.24,0,0,1,57.26,57.25,80.52,80.52,0,0,1,3.41-12.1A82,82,0,0,0,105.06,0ZM0,48.56a80.52,80.52,0,0,1,3.41,12.1A75.23,75.23,0,0,1,60.66,3.41,80.65,80.65,0,0,1,48.55,0,82,82,0,0,0,0,48.56ZM150.21,93A75.24,75.24,0,0,1,93,150.21a80.65,80.65,0,0,1,12.11,3.41,82.07,82.07,0,0,0,48.56-48.56A80.65,80.65,0,0,1,150.21,93Z"/></g></g></g></svg>