<svg xmlns="http://www.w3.org/2000/svg" viewBox="0 0 153.65 153.62"><defs><style>.cls-1{fill:#7c2b0b;}</style></defs><g id="Слой_2" data-name="Слой 2"><g id="Слой_1-2" data-name="Слой 1"><path class="cls-1" d="M134.81,129.52v5.29h-5.29a77.58,77.58,0,0,1-7.85,6.27H141V121.67A79.77,79.77,0,0,1,134.81,129.52Zm-116,5.29v-5.29a77.7,77.7,0,0,1-6.27-7.86v19.41H31.91a77.46,77.46,0,0,1-7.84-6.27ZM12.54,12.54V31.91a77.58,77.58,0,0,1,6.27-7.85V18.78H24.1a80,80,0,0,1,7.84-6.27Zm109.13,0a75.15,75.15,0,0,1,7.85,6.27h5.29v5.28a77.58,77.58,0,0,1,6.27,7.85V12.57Z"/><path class="cls-1" d="M130.42,0a92.36,92.36,0,0,1,9.35,7.49h6.32v6.32a92.46,92.46,0,0,1,7.5,9.35V0ZM0,0V23.18a93.77,93.77,0,0,1,7.49-9.35V7.49H13.8A96.5,96.5,0,0,1,23.18,0ZM13.81,146.13H7.49v-6.32A92.73,92.73,0,0,1,0,130.43v23.19H23.19a91.35,91.35,0,0,1-9.38-7.49Zm132.32-6.32v6.32H139.8a91,91,0,0,1-9.35,7.49h23.2V130.43A95.6,95.6,0,0,1,146.13,139.81Z"/><path class="cls-1" d="M144.24,15.69h-6.32V9.38A95,95,0,0,1,130.42,0V23.22h23.2A91.73,91.73,0,0,1,144.24,15.69ZM15.68,9.38v6.3H9.4a92.46,92.46,0,0,1-9.35,7.5H23.24V0A94.54,94.54,0,0,1,15.68,9.38ZM0,130.43a91,91,0,0,1,9.35,7.49h6.33v6.3a95.43,95.43,0,0,1,7.49,9.39V130.42Zm130.42,0v23.19a97.75,97.75,0,0,1,7.5-9.35V138h6.33a91.09,91.09,0,0,1,9.35-7.5Z"/></g></g></svg>