<svg xmlns="http://www.w3.org/2000/svg" viewBox="0 0 153.62 153.65"><defs><style>.cls-1{fill:#31c7db;}</style></defs><g id="Слой_2" data-name="Слой 2"><g id="Слой_1-2" data-name="Слой 1"><path class="cls-1" d="M152.1,98.62A76.12,76.12,0,0,1,147.35,111v36.35H111a77.27,77.27,0,0,1-18.55,6.26h61.17V92.46C153.2,94.54,152.7,96.6,152.1,98.62ZM6.27,147.38V111A76.3,76.3,0,0,1,1.38,98.19Q.59,95.39,0,92.5v61.15H61.16a78,78,0,0,1-18.55-6.27ZM0,0V61.17A77.81,77.81,0,0,1,6.27,42.63V6.27H42.63l1.17-.55A77.13,77.13,0,0,1,57.58.81C58.76.51,60,.25,61.16,0ZM92.46,0c1,.21,2.08.43,3.11.66a76.46,76.46,0,0,1,13.71,4.76c.58.27,1.16.53,1.73.82h36.34V42.61a77.36,77.36,0,0,1,6.27,18.54V0Z"/><circle class="cls-1" cx="18.76" cy="133.1" r="6.68"/><circle class="cls-1" cx="20.09" cy="20.22" r="6.68"/><circle class="cls-1" cx="132.97" cy="20.22" r="6.68"/><circle class="cls-1" cx="132.97" cy="133.1" r="6.68"/></g></g></svg>