<svg xmlns="http://www.w3.org/2000/svg" viewBox="0 0 1881.51 3499.22"><defs><style>.cls-1{fill:#281a0f;}.cls-2{fill:#212121;}.cls-3{fill:#494747;}.cls-4{fill:#424141;}.cls-5{fill:#5a5a5a;}.cls-6{fill:#404043;}.cls-7{fill:#524c28;}.cls-8{fill:#4a4a4c;}.cls-9{fill:#7e7e87;}.cls-10{fill:#5a5a5e;}.cls-11{fill:#75757c;}.cls-12{fill:#58585d;}.cls-13{fill:#838389;}.cls-14{fill:#776c2e;}.cls-15{fill:#75672c;}.cls-16{fill:#3b3416;}.cls-17{fill:#af9c4a;}.cls-18{fill:#cfc492;}.cls-19{fill:#837538;}.cls-20{fill:#808085;}.cls-21{fill:#acacb0;}.cls-22{fill:#444447;}.cls-23{fill:#252526;}.cls-24{fill:#5b5a5a;}.cls-25{fill:#9b9b9b;}.cls-26{fill:#af8022;}.cls-27{fill:none;}</style></defs><g id="Слой_2" data-name="Слой 2"><g id="Layer_2" data-name="Layer 2"><path class="cls-1" d="M946.15,3468.74c-50-115.71-97.5-288.16-141-512.55l-3.32-17.08-17.38.92-3.49.19c-95,5.17-185,19.73-230.27,28l-11.81,2.14-3.66,11.43c-52.51,163.7-97.27,286.53-133,365.07-8.72,19.17-17.14,36.16-25,50.51l-18.81,34.26-37.78-10a909.5,909.5,0,0,1-107.57-37.46l-27.19-12.9c-14.32-7.88-40.62-23.36-59.61-40.48-9.53-8.6-16.69-17-21.9-25.78l-5.42-9.1-10.58-.63c-3-.18-5.73-.44-8.28-.8l-1.4-.2H61.92l-15.09-16.49a206.07,206.07,0,0,1-26-35.32,160.58,160.58,0,0,1-15.6-36.89,141.48,141.48,0,0,1-4-56.73l.69-5.28,1.78-5c1.65-4.62,165.71-466.79,241.46-820.09l3.52-16.41,8.32-41.77,13.75-57.3,5.05-23.26c15.29-70.41,41.31-203.13,43.91-301l.07-3c.17-7.75.19-15.26.06-22.31l-.35-19.64h-29.9c-3,0-6-.21-9-.51l-3-.29-1.26-.22H276a99.15,99.15,0,0,1-18.46-4.53l-1-.35c-1.93-.7-3.65-1.38-5.31-2.1l-1.08-.47c-1.86-.83-3.52-1.63-5.12-2.46l-.86-.45a99.85,99.85,0,0,1-11-6.77c-.77-.54-1.48-1.06-2.17-1.58l-.93-.71-.44-.34c-1.56-1.21-3.13-2.5-4.65-3.84l-.48-.42c-2-1.73-3.93-3.6-5.8-5.52l-.11-.1c-.45-.45-.88-.9-1.3-1.36l-.12-.13c-9.82-10.46-18.31-23.52-25.23-38.82l-.43-1c-.31-.69-.56-1.26-.8-1.83s-.52-1.19-.78-1.81l-.14-.34c-2-4.83-4-10-5.74-15.31l-.41-1.22-.32-1-.86-2.68-.09-.3c-1.3-4.16-2.56-8.56-3.73-13l-.18-.69c-.48-1.82-1-3.73-1.42-5.66l-.18-.73c-.46-1.91-.9-3.83-1.34-5.78l-.14-.64c-.38-1.73-.74-3.4-1.09-5.09l-.28-1.32-.25-1.28c-.54-2.67-1-5.24-1.47-7.64l-.28-1.49c-.2-1.1-.41-2.25-.6-3.42l-6.59-50.73a125.1,125.1,0,0,1,4.93-35.62l1.25-4.3.25-.5.41-1.18c.47-1.37,1-2.73,1.48-4L176,1587l-2.87-7.28a170.08,170.08,0,0,1-11-76.69c1.14-13.12,2.71-27.22,4.81-43.1,5.52-41.55,14.53-93.16,26.36-157.87,18.78-102.77,44.42-195.45,76.2-275.47,1.73-4.38,3.31-8.27,4.8-11.9l.06-.14c.79-2,1.62-4,2.47-6l.17-.42c.63-1.52,1.25-3,1.89-4.47l.08-.21c.81-1.93,1.6-3.8,2.41-5.65v-.11C319.19,910.11,365,838,417.52,783.42A434.71,434.71,0,0,1,478.92,730l12.77-9L486,706.36c-20.3-51.77-33.81-105.35-34.37-107.61l-.74-2.9-.38-3.06c-.25-2-6.1-50.06-2.72-118.41,3.14-63.43,15.18-158,54.7-248,2.83-6.46,5.87-13,9.05-19.55l.81-1.67c1.17-2.38,2.33-4.7,3.51-7l.62-1.23c1.12-2.18,2.3-4.43,3.71-7.07,1.19-2.24,2.46-4.57,3.92-7.19l.83-1.51.51-.91c1.52-2.71,3.09-5.43,4.65-8.09l1.2-2c2.21-3.72,4.49-7.45,6.81-11.13l.7-1.11c.67-1.06,1.39-2.17,2.11-3.29l.89-1.36c2.38-3.67,4.86-7.36,7.34-10.94l.18-.27c4.74-6.82,9.65-13.52,14.62-19.93l.54-.7c.36-.47.74-1,1.13-1.43l.66-.84,1.85-2.33,1.28-1.58c1.16-1.42,2.33-2.86,3.52-4.3.82-1,1.64-2,2.47-3,1.06-1.26,2.13-2.5,3.21-3.75l1.37-1.59,2-2.29.16-.18c.64-.74,1.26-1.44,1.88-2.13l2.11-2.33,1.76-1.9.38-.41c2.54-2.75,5.06-5.41,7.53-8l.41-.43.83-.83c1.51-1.55,3-3.06,4.53-4.56l1.12-1.09c3-2.94,5.75-5.59,8.47-8.11l1.19-1.1.14-.12c1.52-1.4,3-2.8,4.6-4.18l.43-.39c1.19-1.06,2.37-2.11,3.56-3.14l3.06-2.64,1.08-.92.21-.17c.77-.65,1.58-1.35,2.4-2,1.82-1.54,3.39-2.83,4.86-4l.09-.07C643.35,43.08,700.54,0,785.09,0,850.79,0,913.33,26.12,971,77.65l.31.27.32.27c7.73,6.35,48.8,41.3,98.92,106.1,49.66,64.18,119.22,172.44,168.58,323.69l.86,2.63.56,2.72c1.28,6.16,7.59,39.4,6.54,88.24-.68,31.68-5.1,80.18-22.31,131.29l-4.61,13.7,11.57,8.68c39.68,29.78,97.93,75.07,150.08,121.69,51,45.63,153.41,188.94,173.14,222.43l.86,1.47.76,1.51c0,.08.88,1.74,2.34,4.85l.15.31c.23.45.42.86.58,1.21l.1.22c1.36,2.82,3,6.35,4.43,9.46l.07.15c.47,1,.9,1.93,1.33,2.88,1.65,3.62,3.84,8.45,6.25,13.91.52,1.16,1,2.38,1.6,3.64l.46,1,.24.42,1.25,3c.14.33.27.62.39.89l.68,1.56,2.18,5.12.8,1.89.27.63c.76,1.76,1.7,4,2.62,6.24l.12.29q1,2.41,2,4.89l.08.2c.58,1.37,1.16,2.77,1.74,4.19l-.16-.41,3.73,9.25c1.13,2.8,2.26,5.6,3.39,8.47l.39,1c.62,1.59,1.27,3.25,1.9,4.93l.08.2c1.54,4,3.11,8,4.67,12.15.35.91.67,1.78,1,2.67l.66,1.74c5,13.43,9.47,26,13.62,38.29l.07.21c.48,1.39,1,2.8,1.42,4.22l.08.24c.48,1.4.94,2.8,1.39,4.2,1,2.84,1.87,5.67,2.79,8.53.13.4.23.73.33,1.06l.07.23c.47,1.46.93,2.91,1.39,4.36l.3.94.39.9a385.47,385.47,0,0,1,15.74,44.51c13,45,19.82,95.53,20.34,150.35v12.52c-.06,2.56-.16,5.22-.31,8.12v.29c0,.71-.06,1.34-.1,1.87v.27c-.06,1-.13,2.09-.21,3.13v.19c-.12,2-.3,4-.4,5.14v.2c-.14,1.78-.32,3.42-.49,4.92v.24c-.2,2-.43,3.79-.6,5.09l0,.41c-.38,2.85-.73,5.32-1.12,7.73v.24c-.14,1-.3,1.92-.46,2.88l-.12.76c-.24,1.38-.47,2.69-.72,4v.16c-.57,3.07-1.16,5.91-1.62,8l-.91,4.26-52.79,130.84v1.64l-3.25,6.6-44,82.85-1.84,3c-2.94,4.71-6,9.38-8.95,13.82l-.12.18q-.29.45-.6.9l-.55.82c-.75,1.09-1.5,2.19-2.27,3.28-1,1.51-2.19,3.11-3.34,4.72-1.6,2.25-2.93,4.08-4.23,5.82l-.64.83c-.57.78-1.16,1.55-1.75,2.32l-.16.21c-.89,1.2-1.83,2.43-2.8,3.65l-1,1.2c-1.29,1.65-2.57,3.23-3.85,4.8l-4.16,5-1.09,4.39c-7.13,28.61-11.57,96.67-11,169.35v4.29l1.79,3.91c35.56,77.52,96.4,222.7,160.5,397.64,52.75,143.94,126.39,359,177.65,566.3l.69,2.82c.1.37.2.79.31,1.27l.09.35c1.11,4.48,2.18,8.95,3.25,13.4,2.87,11.83,5.74,24,8.8,37.33,1.21,5.28,2.43,10.7,3.62,16.08,1,4.56,2.1,9.47,3.22,14.65.17.83.34,1.59.51,2.36,1.36,6.19,2.62,12.2,3.45,16.19l.07.35c.12.53.24,1.06.34,1.58l.06.3q1.62,7.74,3.17,15.41c.93,4.6,1.84,9.19,2.73,13.72l1,5.31c.8,4.21,1.6,8.42,2.38,12.58l.07.36c.14.65.27,1.37.41,2.16l0,.26q.81,4.26,1.56,8.51l.46,2.4c6.18,86.47-19.34,128.27-19.59,128.67-2.53,3.8-4.92,7.5-7.23,11.08-13,20.11-24.2,37.48-56.7,65.69-12.28,10.65-33.15,26.81-62.94,43.31l-15.27,8.46.11.28-14.5,6.24-.21.1c-6.5,3-13.2,5.86-19.91,8.57l-.45.19-.47.2c-.82.35-1.67.7-2.57,1l-1.31.51-8.6,3.36h-.77l-3.23,1.2c-10.19,3.57-20.89,7.1-31.81,10.49l-2.3.71-.62.13-.63.18c-35.36,9.89-68.13,14.9-97.41,14.9a219.18,219.18,0,0,1-48.18-5.06l-9-2-7.37,5.47c-17.89,13.29-43.3,24.15-77.66,33.23-14.3,3.77-30.21,7.24-47.29,10.32l-59.4,9h-5.33l-1,.11c-3.34.37-6.79.74-10.23,1.1l-3.14.33-16.46,1.66h-.39l-4.75.46-5.37.52-2.6.24-11.93,1.11-7,.63c-4.75.44-9.43.85-13.91,1.22l-2.79.24c-3.66.32-7.32.61-11,.89h-.18c-2.46.22-4.92.41-7.41.6l-5.39.43-6.26.49h-.32c-20.23,1.52-39.85,2.85-58.31,3.95l-1.72.11c-2.45.15-4.89.3-7.31.43-5.55.32-10.89.62-16,.89h-.3l-2.28.11-2.63.14c-3.83.22-7.6.41-11.26.57l-7.89.39-8.06.36-1.68.08-7.57.32-10.35.41-3.64.13c-1.4.06-2.66.11-3.9.14h-.15c-2.19.07-4.24.14-6.19.22h-.23c-17.14.58-26.66.72-27.69.74l-33.18.47Z"/><path class="cls-2" d="M789.91,2552.54c10.75,79.29,28.71,201.77,53.3,335.69-21.81.16-43.61.88-65,2.07-19.26-110.54-33.64-209.39-42.82-276.91-25.26-186.55,60.51-1409.74,68.18-1517-.05-1.93-.08-3.9-.13-5.86-.22-9.1-.4-18.15-.56-27.09,9.69-40,17-74.86,20.73-101.91,2.95-21.18,3.77-37.59,1.93-48l30.64-1.08a14.8,14.8,0,0,0-.08,2c.17,14.84.37,30.19.59,45.92.33,22.44.73,45.65,1.26,69.29.06,2,.08,3.93.13,5.87C850.35,1142.8,764.58,2366,789.91,2552.54Z"/><path class="cls-1" d="M989.91,714.41c-.71,2.57-1.38,5.17-2,7.74-3.53,14.2-6.1,28.63-8.6,43.06-.69,4-1.38,8-2.09,12.07-1.36,7.61-2.71,15.26-4.25,22.84-.42,2.12-.87,4.25-1.35,6.37a4.72,4.72,0,0,1-.16.8l-.16.71c-.11.53-.19,1-.29,1.57-.29,1.43-.56,2.94-.88,4.45-.1.53-.21,1-.34,1.57-.06.18-.08.37-.14.56-.13.55-.26,1.08-.42,1.61s-.32,1.12-.5,1.65a.9.9,0,0,0-.08.21c-.16.4-.29.8-.43,1.2a.64.64,0,0,0-.1.26c-.45,1.22-.91,2.41-1.36,3.63h0a24,24,0,0,1-2.44,2.18.32.32,0,0,0-.13.1l-.9.64-1.7,1.19-.74.45c-.13.11-.27.19-.43.3a1.65,1.65,0,0,0-.32.18h0l-1.57.88a21.49,21.49,0,0,1-1.91,1c-1.11.64-2.23,1.22-3.37,1.78-1.38.74-2.78,1.46-4.21,2.12l-.24.11a.14.14,0,0,0-.11.05q-3.83,1.83-7.8,3.5c-3.95,1.65-8,3.19-12.1,4.57-1.38.45-2.75.9-4.13,1.32-1.12.35-2.26.69-3.4,1a156.75,156.75,0,0,1-17.64,4c-1.41.21-2.84.42-4.25.61s-2.83.37-4.24.5-2.73.27-4.11.37h-.43a116.79,116.79,0,0,1-12.55.19c-.92-.06-1.83-.08-2.75-.14-2.47-.15-4.86-.42-7.17-.79a55.74,55.74,0,0,1-6.66-1.49,12.22,12.22,0,0,0-3.44-.53h-.14a3.08,3.08,0,0,0-.61.06H857a1.51,1.51,0,0,0-.37.06h-.11a3.41,3.41,0,0,0-.85.21,4,4,0,0,0-.71.26l-.48.21a5.39,5.39,0,0,0-1,.62,3.29,3.29,0,0,0-.77.61,4.4,4.4,0,0,0-.61.61A11.61,11.61,0,0,0,850,855a10.55,10.55,0,0,0-.48,1.33,12.16,12.16,0,0,0-.4,1.43c-.16.61-.29,1.25-.4,1.91s-.21,1.33-.26,2-.13,1.43-.19,2.17-.05,1.46-.05,2.23c0,1.14.05,2.31.13,3.53a58.51,58.51,0,0,0,.75,6.47c.15,1,.34,2.07.58,3.1l.08.4c.21,1,.48,2.07.74,3.11.16.63.32,1.27.51,1.91.34,1.24.74,2.49,1.16,3.71.24.74.51,1.49.77,2.2.19.45.35.9.53,1.33a1.24,1.24,0,0,0,.16.4c.37,1,.8,1.91,1.22,2.84a.12.12,0,0,0,.06.1l.15.37c.3.64.61,1.25.93,1.86.48,1,1,1.86,1.51,2.73.4.69.83,1.36,1.28,2a24,24,0,0,0,1.51,2.12,7.7,7.7,0,0,0-1.06.91c-.08.08-.13.16-.21.23a6.38,6.38,0,0,0-.8,1,.06.06,0,0,0,0,.08,4.86,4.86,0,0,0-.67,1.17.49.49,0,0,0-.15.27,7.15,7.15,0,0,0-.56,1.48,1.14,1.14,0,0,0-.11.4,6.91,6.91,0,0,0-.26,1.09,8,8,0,0,0-.19,1.46v0c0,.64-.07,1.3-.07,2,.18,14.85.37,30.19.58,45.92.34,22.44.74,45.66,1.27,69.29h0c.06,1.94.08,3.9.13,5.84-7.66,107.23-93.43,1330.42-68.15,1517,10.75,79.29,28.71,201.77,53.3,335.69-5.12,0-10.24.11-15.33.21-.91,0-1.78,0-2.66.06-3.76.05-7.51.16-11.25.29l-3,.08-2.68.08c-9.82.32-19.61.77-29.29,1.3a4.46,4.46,0,0,0-.82.05c-147.8,8-278,36.82-278,36.82C564.74,2722.68,617,2533,617,2533c28.81-321.84,121.1-1082.19,169.25-1401.12.4-2.52.77-5,1.14-7.45,1-3.58,1.89-7.11,2.81-10.64.06-.21.11-.42.16-.61.75-2.89,1.49-5.78,2.23-8.62l1.67-6.5a.21.21,0,0,0,0-.11c.08-.29.16-.55.21-.82a.64.64,0,0,1,.06-.18c.39-1.6.82-3.19,1.22-4.78.23-.9.45-1.8.69-2.71.1-.39.21-.79.29-1.19.26-1,.5-2,.77-3,.08-.29.13-.61.21-.9.34-1.33.66-2.65,1-4,.18-.8.37-1.57.58-2.36.11-.45.21-.93.35-1.38h0c.31-1.3.63-2.6,1-3.87.08-.32.16-.67.24-1,.24-.91.45-1.81.66-2.71.48-1.94,1-3.85,1.41-5.76.58-2.36,1.14-4.67,1.67-7,.16-.59.29-1.2.42-1.78v-.29c.27-1.09.53-2.2.77-3.29.08-.35.19-.72.24-1.06.24-1,.48-1.94.69-2.89a2.21,2.21,0,0,1,.11-.46c.13-.55.26-1.14.4-1.69a1.26,1.26,0,0,0,.08-.43c.15-.53.26-1.06.37-1.59.08-.19.1-.4.16-.58a.81.81,0,0,0,0-.22,5.71,5.71,0,0,0,.19-.71c.08-.35.16-.72.24-1.06.26-1.12.5-2.2.74-3.29a.82.82,0,0,1,.08-.29c.05-.22.1-.44.13-.67q.28-1,.48-2.07l.24-1,.24-1.09.08-.4c.1-.42.21-.85.29-1.27.32-1.38.61-2.73.9-4.06a2.77,2.77,0,0,1,.11-.48c0-.16.13-.58.18-.85.16-.74.32-1.48.48-2.2.08-.4.16-.77.24-1.14s.13-.58.18-.87a5.63,5.63,0,0,0,.14-.59.43.43,0,0,0,0-.16,3.25,3.25,0,0,0,.11-.42c.11-.48.21-1,.29-1.41l.16-.71c.16-.72.29-1.46.45-2.18s.27-1.17.37-1.75a4,4,0,0,0,.11-.5l.08-.32c.16-.74.32-1.46.45-2.2a2.77,2.77,0,0,1,.11-.48c.15-.8.31-1.57.47-2.34.08-.34.14-.71.22-1.06a3.1,3.1,0,0,0,.1-.53.11.11,0,0,0,0-.08v-.16c.06-.31.14-.66.19-1l.24-1.11c.11-.56.21-1.12.32-1.65a2,2,0,0,1,.05-.24c.11-.5.21-1,.29-1.51l.48-2.39c.34-1.77.69-3.52,1-5.27,0-.22.1-.43.13-.64s.11-.59.16-.85.11-.56.16-.85a2.07,2.07,0,0,1,.08-.42,6.54,6.54,0,0,0,.1-.67.11.11,0,0,0,0-.08c0-.29.11-.58.16-.87a5.58,5.58,0,0,0,.13-.69c.08-.4.14-.8.22-1.2.1-.63.23-1.27.34-1.93s.24-1.33.35-2l.63-3.58a2.67,2.67,0,0,1,.08-.48,2.3,2.3,0,0,1,.05-.4c.08-.34.14-.71.22-1.06v-.11c.05-.29.1-.58.16-.9.13-.87.29-1.75.42-2.62a2.47,2.47,0,0,1,0-.38.76.76,0,0,1,.06-.37c.08-.4.13-.77.18-1.16a5.34,5.34,0,0,0,.13-.8c.19-1.14.38-2.28.54-3.4a1.61,1.61,0,0,0,0-.31c0-.24.08-.46.13-.69.14-.93.27-1.86.4-2.79.08-.58.16-1.17.24-1.72v-.19a2,2,0,0,0,0-.34,2.1,2.1,0,0,0,.05-.43c.06-.29.08-.58.14-.87.1-.77.21-1.54.29-2.29.05-.47.13-.92.18-1.4v-.19c.11-.9.21-1.78.32-2.65l.24-2V951c.16-1.49.32-2.92.46-4.33.1-1,.18-2,.29-3v-.11c.08-.72.13-1.43.18-2.15l.08-1c.08-.85.13-1.7.19-2.52,0-.64.08-1.25.1-1.86,0-.27.05-.55.06-.82v-.85a2.91,2.91,0,0,0,0-.59v-1.11a3.11,3.11,0,0,0,0-.61v-7.3a4.57,4.57,0,0,0,0-.74V922c0-.51,0-1-.08-1.53a13.29,13.29,0,0,0-.11-1.54c-.1-1.54-.26-3-.47-4.33a5,5,0,0,0-.11-.66,4.33,4.33,0,0,0-.11-.66c0-.21-.1-.59-.15-.85a30.82,30.82,0,0,0-1.6-5.49,9,9,0,0,0-.45-1l-.13-.23a5,5,0,0,0-.48-.88,2.71,2.71,0,0,1-.21-.37,5.9,5.9,0,0,0-.72-1,4.43,4.43,0,0,0-.61-.69,1.82,1.82,0,0,0-.34-.34,8.3,8.3,0,0,0-.8-.64c.06-.13.27-.71.61-1.67.19-.53.4-1.19.64-2,2.89-8.65,4.77-18.17,4.4-27.27v-1.12c-.06-1.06-.14-2.09-.27-3.13a1.13,1.13,0,0,0,0-.32h0a7.63,7.63,0,0,0-.13-1v-.24a1.74,1.74,0,0,1-.05-.22,4.2,4.2,0,0,0-.08-.47c-.11-.64-.22-1.25-.37-1.86s-.27-1.14-.43-1.7-.4-1.24-.64-1.86a15.78,15.78,0,0,0-.69-1.64.11.11,0,0,0,0-.08c-.21-.45-.43-.9-.67-1.33a2,2,0,0,0-.1-.21h0a9.37,9.37,0,0,0-.67-1.09h0a1.9,1.9,0,0,0-.4-.61,13.22,13.22,0,0,0-1-1.24,7.92,7.92,0,0,0-.61-.69c-.18-.19-.34-.37-.53-.56a12.89,12.89,0,0,0-1.24-1.09l-.59-.47a6,6,0,0,0-.58-.4,6.18,6.18,0,0,0-.9-.61,16.42,16.42,0,0,0-3.06-1.51,9.22,9.22,0,0,0-1.27-.48h0A46.83,46.83,0,0,0,799.51,843h0c-.34-.1-.69-.21-1.06-.34a3.19,3.19,0,0,1-.66-.19c-1.09-.26-2.12-.5-3.1-.69a6,6,0,0,1-.72-.13c-.88-.16-1.7-.26-2.52-.37a.62.62,0,0,1-.27,0c-.66,0-1.32-.1-2-.13h-3c-1.65,0-3.35.11-5.2.19h-1l-1.59.08c-1.65.08-3.45.16-5.44.19h-3.13c-5.7,0-11.36-.24-17-.63l-5.62-.48c-.8,0-1.62-.13-2.47-.24-.69,0-1.38-.13-2.09-.21-1-.11-2-.21-3.11-.35s-2.2-.24-3.37-.4c-.5,0-1-.13-1.51-.18-3-.37-6.26-.82-9.68-1.33-16.93-2.46-80.76-33-86.78-36.61a.54.54,0,0,1-.16-.1.36.36,0,0,0-.16-.11,41.88,41.88,0,0,1-12.81-11.62l-.08-.13-1.11-1.81q-4.07-7.15-7.94-14.35c-43.61-80.78-70.64-164.5-81.89-225.63-1.7-9.17,10.05-77.11,35.58-148.77,11.16-33.56,26-69,44.94-99.46h0c.13-.23.27-.47.43-.71s.21-.35.31-.51c.88-1.43,1.78-2.83,2.71-4.24s1.75-2.68,2.65-4c1.6-2.38,3.21-4.72,4.86-7,.87-1.19,1.75-2.36,2.6-3.53.64-.87,1.27-1.7,1.93-2.55.91-1.16,1.81-2.33,2.71-3.47,1.06-1.33,2.12-2.63,3.21-3.93.24-.29.48-.58.74-.87,1.09-1.3,2.18-2.58,3.32-3.85.25-.3.52-.59.8-.87,1.08-1.28,2.22-2.5,3.36-3.69.88-.93,1.78-1.86,2.68-2.79.69-.71,1.38-1.4,2.1-2.09a144.29,144.29,0,0,1,27.51-21.52c1.46-.85,2.94-1.7,4.46-2.49,2.46-1.33,4.93-2.55,7.45-3.66,0,0,10-4.72,26.61-7.54.42-.08.85-.13,1.27-.21,60.05-9.34,200.84,6.74,271.63,339.66C987.91,559.36,1000.18,624.74,989.91,714.41Z"/><path class="cls-3" d="M558.14,2927.12C612.8,2746.41,655,2590.7,655.43,2589l1-3.54.32-3.66c23.38-266.31,90.5-844.65,140.78-1223.55-26.3,412.4-66.09,1103.51-47.27,1245.17,9.54,71.78,24.77,178.37,45.31,297.25-6,.26-12.2.56-18.76.93l-.87.05h-.29C690.1,2906.36,611.06,2917.92,558.14,2927.12ZM836.38,818.36c-17.06-2.52-34.25-5.62-51.26-6.37-21.84-1-44.68,1.39-65.46-6.92-19.16-7.62-38.12-16.27-56.47-25.69-1.35-.69-2.7-1.38-4-2.11l-.81-.49-.2-.14c-2.5-4.51-4.69-8.57-6.7-12.39l-.06-.11c-35.89-67.8-64.61-147.84-77.16-214.87,1.13-15.16,11.83-72.31,33.33-133.87l.14-.4.13-.4c9-27.66,19.13-52.29,30.15-73.52h.35l10.94-20,.28-.49.16-.26c.58-1,1.22-2,2-3.12l.21-.32c.71-1.12,1.41-2.21,2.15-3.31l.21-.32c1.27-2,2.59-3.88,3.9-5.75l.89-1.23c.59-.81,1.17-1.6,1.73-2.4.36-.5.73-1,1.11-1.47l.25-.33c.74-1,1.49-2,2.23-2.93s1.71-2.15,2.59-3.22l.08-.1.14-.16.53-.64c.92-1.13,1.68-2,2.36-2.81l.46-.46,1-1.24c.51-.6,1.26-1.42,1.86-2.06l.18-.18c.74-.81,1.51-1.61,2.27-2.41l.12-.13c.35-.36.69-.72,1-1.07l.3-.3A105.4,105.4,0,0,1,697,268.54c.93-.55,2-1.16,2.83-1.62l.32-.18c1.66-.9,3.19-1.67,4.69-2.35l.57-.26a80.82,80.82,0,0,1,16.54-4.51l1.2-.2a105.79,105.79,0,0,1,16.68-1.33c34.48,0,67,16.28,96.75,48.38,48.25,52.12,85.93,141.85,112,266.7.82,4.85,10.33,63.81,1.83,142.64-.44,1.73-.91,3.6-1.43,5.75-3.82,15.65-6.52,31.05-9.18,46.76-.69,4.1-1.37,8.1-2.07,12.13l-.11.67c-1.31,7.51-2.55,14.61-4,21.64v.12c-.36,1.83-.75,3.68-1.16,5.52l-.11.51-.16.85L927,811.54l-1.49,1.51-.19.09c-3.21,1.36-6.31,2.55-9.25,3.56-1.14.38-2.23.75-3.33,1.09l-1.54.47-.58.15-.57.17c-18.41,5.4-39.44,4-58.28,1.83C846.71,819.8,841.55,819.09,836.38,818.36Z"/><path class="cls-4" d="M825.33,867c-1.17-9.76-6.71-15.94-14.14-19.76.45.16.88.32,1.27.48C820.91,851,824.38,858.57,825.33,867Z"/><path class="cls-4" d="M963.23,827.66c.32-.24.63-.45.93-.66a10.83,10.83,0,0,1-2,1.51c-.61.37-1.22.71-1.83,1.09C961.42,828.93,962.35,828.3,963.23,827.66Z"/><path class="cls-5" d="M722.27,183.36c-28.57,5.31-59.11,21-89.38,53.59,0,0-130.41,157.05-116.65,313.84,5.58,63.19,49.14,144.42,92.88,211.75a1.07,1.07,0,0,1,.13.21c2.34,3.56,4.65,7.09,7,10.56q3.87,7.2,7.94,14.35l1.11,1.81c-.16-.21-.32-.45-.48-.67a.93.93,0,0,1-.1-.15L623.53,787a3.93,3.93,0,0,1-.29-.42c-1.57-2.31-3.16-4.64-4.73-7-.9-1.33-1.8-2.63-2.7-4-2.74-4.11-5.47-8.28-8.23-12.49a1.59,1.59,0,0,0-.13-.22c-43.75-67.33-87.31-148.56-92.88-211.75C500.8,394.3,631.22,237.25,631.22,237.25,662.1,204,693.22,188.36,722.27,183.36Z"/><path class="cls-6" d="M992.91,744.57c-.51,2.87-1.09,5.81-1.78,8.78-.32,1.3-.64,2.63-1,4q-.64,2.5-1.35,5c-.27.93-.54,1.89-.8,2.81-.35,1.14-.66,2.26-1,3.4s-.61,2-1,3-.72,2.31-1.11,3.45-.77,2.36-1.2,3.55c-3.37,9.93-7.19,20.06-11,30.17a.17.17,0,0,1,0,.1q-2,5.26-4,10.51a.9.9,0,0,0-.08.21c-.16.4-.29.8-.43,1.2a.64.64,0,0,0-.1.26c-.45,1.22-.91,2.41-1.36,3.63.24-.74.48-1.48.72-2.25,1.35-4.32,2.6-9.18,3.82-14.46l.16-.71c0-.27.11-.54.16-.8.45-2.07.9-4.2,1.35-6.37,1.54-7.58,2.89-15.23,4.25-22.84.71-4,1.4-8,2.09-12.07,2.58-14.59,5.31-29.53,8.6-43.06.63-2.57,1.3-5.17,2-7.74,10.32-89.67-2-155.09-2-155.09-70.75-332.88-211.54-349-271.31-339.41-.42.08-.85.13-1.27.21-16.61,2.82-26.61,7.54-26.61,7.54q-3.78,1.66-7.45,3.66c-1.52.79-3,1.64-4.46,2.49a144.3,144.3,0,0,0-27.59,21.62c-.72.69-1.41,1.38-2.1,2.09-.9.93-1.8,1.86-2.68,2.79-1.14,1.22-2.28,2.44-3.36,3.69a9.37,9.37,0,0,0-.8.87c-1.11,1.25-2.23,2.55-3.32,3.85-.26.29-.5.58-.74.87-1.09,1.3-2.15,2.6-3.21,3.93-.93,1.14-1.83,2.31-2.71,3.47-.66.85-1.29,1.68-1.93,2.55-.88,1.17-1.73,2.34-2.6,3.53-1.65,2.28-3.26,4.62-4.86,7-.9,1.33-1.77,2.66-2.65,4s-1.83,2.81-2.71,4.24c-.1.16-.21.32-.31.51s-.3.48-.43.71h0c-18.94,30.44-33.8,65.9-44.94,99.44-25.53,71.66-37.28,139.6-35.58,148.77,11.25,61.13,38.28,144.85,81.89,225.63-2.3-3.47-4.61-7-7-10.56a1.07,1.07,0,0,0-.13-.21C565.4,695.2,521.84,614,516.26,550.78,502.48,394,632.91,236.94,632.91,236.94c30.27-32.63,60.81-48.28,89.38-53.59.63-.13,1.3-.23,2-.34,72-11.3,130.7,42.18,139.09,51.28,36.34,39.37,102,162.38,136.36,315.08.29,1.28.55,2.55.82,3.82C1014.19,617.13,1009.55,684,992.91,744.57Z"/><path class="cls-7" d="M826.26,920.78a13.29,13.29,0,0,0-.11-1.54,53.78,53.78,0,0,0-.69-5.65c-.05-.3-.1-.59-.15-.85-1-5.23-2.79-8.81-5.34-10.59a7.28,7.28,0,0,0-7.45-.74c-22.66,10.27-87.2,4.91-98.77.77-23.74-8.54-81.18-58.31-116.91-106q-11.43-15.24-21.65-29.63-6.36-9-12.31-17.59l-4.38-6.37c-30.26,11.57-141.37,66.59-231.33,275.11-.77,1.75-1.51,3.52-2.25,5.3-.69,1.59-1.35,3.18-2,4.78-.79,1.88-1.56,3.76-2.33,5.67-1.57,3.8-3.11,7.62-4.64,11.49-28.26,71.15-53.86,158.62-73.49,266-12.41,67.94-20.8,116.52-26,155.44-2,14.85-3.48,28.3-4.56,40.88a118,118,0,0,0,12.52,64.68c8.59,16.47,13.45,15.78,14.46,15.41-12.1,8.17-18.12,20.32-21.12,30.74v.06a73,73,0,0,0-3,20.5c1.35,12.9,3,25.34,4.83,37.15.34,2.06.69,4.13,1,6.15.24,1.51.53,3,.8,4.48s.5,2.68.77,4,.5,2.65.77,4c1.62,7.85,3.39,15.34,5.41,22.39.24.85.48,1.7.74,2.55.32,1.09.64,2.17,1,3.24a164.32,164.32,0,0,0,8.41,21.86c.51,1.06,1,2.09,1.54,3.1s1.12,2.15,1.7,3.18,1.14,2.07,1.75,3,1.2,2,1.81,2.92a70.34,70.34,0,0,0,4.35,6.1c.74,1,1.51,1.89,2.3,2.79a8.67,8.67,0,0,0,.64.72c.48.55,1,1.08,1.46,1.59l.29.29c.56.58,1.12,1.14,1.7,1.67,1.09,1.06,2.23,2,3.4,3,.42.37.87.72,1.32,1.06.61.48,1.28.93,1.94,1.38s1.46,1,2.2,1.43a45.87,45.87,0,0,0,12.2,5.31c.64.16,1.28.35,1.94.48s1.35.32,2,.42,1.57.29,2.36.4l.85.13c.59.06,1.17.14,1.78.16s1.43.13,2.18.16c.95,0,1.88.08,2.86.08h.35s28.46-7.16,65.18-17.3c11.46-3.15,23.74-6.6,36.24-10.24,37.22-10.82,61.49-2.25,88.36-96.35,13.67-47.86,175.41-92,195.73-158.72,9.42-30.88,19.21-63,29.05-95.61q3.42-11.22,6.82-22.55c13.1-43.43,26.21-87.44,38.63-130.26q1.62-5.64,3.26-11.3,2.51-8.74,5-17.37l2.7-9.47q3.33-11.7,6.55-23.19c.43-1.49.83-3,1.25-4.46q1.79-6.36,3.53-12.65c.53-1.91,1.06-3.8,1.56-5.68q1.56-5.65,3.08-11.22c.21-.72.4-1.43.61-2.18.8-3,1.62-6,2.42-8.91.61-2.2,1.19-4.38,1.77-6.58.69-2.55,1.38-5.09,2.05-7.64s1.35-5,2-7.56c7.3-27.51,13.85-53.51,19.42-77.38.32-1.41.64-2.79,1-4.17.13-.5.24-1,.37-1.51s.21-1,.32-1.43c3.9-17,7.27-32.9,10-47.38.34-1.73.66-3.45,1-5.12s.61-3.4.91-5.07c.23-1.22.42-2.42.63-3.58.32-1.89.64-3.74.93-5.57.16-.91.29-1.81.42-2.71,1.12-7,2-13.45,2.68-19.47.38-3.37.69-6.58.93-9.66.06-.53.11-1.06.14-1.56.15-2.07.29-4.06.34-5.95.08-1.16.11-2.3.13-3.42s.06-2.39.06-3.53Q826.45,923.72,826.26,920.78Z"/><path class="cls-8" d="M594.91,2500.65c8.91-34.15,2.3-144.53,191.24-1368.63.4-2.52.77-5,1.14-7.45C757,1239.09,714,1379.64,677,1501.2,656.69,1568,495,1612.06,481.28,1659.92c-26.87,94.1-51.14,85.53-88.36,96.35-12.5,3.64-24.78,7.09-36.24,10.24,48.07,121-51,504.74-51,504.74C457.72,2332.93,554.34,2445.36,594.91,2500.65Z"/><path class="cls-9" d="M786.12,1132C597.18,2356.12,603.79,2466.5,594.91,2500.65c0,0-160.29,633.5-238.23,825.44,44.22-97.12,97-251.87,143.44-399,64.52-204.35,116.78-394,116.78-394C645.68,2211.3,738,1451,786.12,1132Z"/><path class="cls-10" d="M594.91,2500.65S453.11,3061,371.4,3287.38q-1.65,4.54-3.26,8.92c-.67,1.8-1.3,3.58-2,5.33l-2.33,6.21c-1.17,3-2.31,6-3.45,8.91-1.25,3.21-2.49,6.34-3.71,9.34-8.09,17.77-15.92,33.64-23.35,47.17a861.72,861.72,0,0,1-114.07-40.9h0a.35.35,0,0,0-.16-.08c-3.08-1.57-38.42-19.79-59.38-38.68-13.84-12.5-21.43-25.31-9.33-33.8,31.25-21.94-53.35-10.88-66.43-15.57h0a155.66,155.66,0,0,1-19.76-26.74,109.72,109.72,0,0,1-10.75-25.29,91.87,91.87,0,0,1-2.65-36.92s184.4-517.34,255-884.05c4.74,1.94,9.44,3.9,14.08,5.94.48.22.93.4,1.38.61C464.3,2340.6,555.75,2447.27,594.91,2500.65Z"/><path class="cls-11" d="M1473,1783.81c-12.81,14.14-27.09,26.61-43,35.84-17.43,10.19-26.45,10.24-74.2-13.63-8.9-4.46-181.54-147.08-224.41-191.73-54.3-56.61-190.18-76.67-215.76-119.17-41.46-68.89-53.32-275.15-57.59-458.2-6.26,117.44-71.5,1366-47.3,1488.5h0c0,.29,0,.93.1,2,277.31-325.22,643.54-527.79,643.54-527.79S1450.91,1832,1473,1783.81Z"/><path class="cls-12" d="M1473,1783.81c-3.61,7.85-6.53,18.89-8.89,31.84a321.18,321.18,0,0,1-31.62,41.78c-12.81,14.14-27.09,26.61-43,35.84-17.43,10.19-26.45,10.24-74.2-13.64-8.89-4.45-181.54-147.07-224.41-191.72-37.88-39.48-115.43-61.18-167.58-85.13-8.15,112.19-1.94,265.9,59.48,432.39a1007.26,1007.26,0,0,0,111.36,216.5l-76.61,65.77a975,975,0,0,1-109.09-273.7c-41.62-180.56-23.16-338.93,2-447.25C894,1588,881.34,1579,875.13,1568.74c-16.43-27.38-28.22-76.38-36.72-136.94,9.36-199.36,17.62-356.76,19.66-394.88,4.27,183,16.13,389.31,57.59,458.2,3.77,6.26,10,12.07,17.94,17.54h0c46,31.65,151.53,53.35,197.82,101.6l2.1,2.18c46.34,47.72,220.56,212.17,232.26,213.69,41.91,5.41,46.61,0,63-9.77.39-.24.84-.47,1.27-.74C1445.91,1810.42,1460.17,1798,1473,1783.81Z"/><path class="cls-5" d="M810.77,2525.45h0c-24.2-122.48,41-1371.06,47.3-1488.5,0-.45-.06-.9-.06-1.35-7.66,107.23-93.43,1330.42-68.15,1517,10.75,79.29,28.71,201.77,53.3,335.69,36,195.6,86.11,415.52,148.88,560.66,0,0,9.52-.13,26.53-.72-190.8-716.83-206.45-899.69-207.7-920.7C810.79,2526.36,810.79,2525.74,810.77,2525.45Z"/><path class="cls-13" d="M1838.91,3186.57v2.23c0,.21,0,.43,0,.64v-.58c-1.64,5.22-5.91,9.17-11,12.46l-.18.14c-10.24,6.58-23.64,10.66-25.73,17.37-.72,2.31-.14,4.91,2.36,8,12,15.05-36.08,82.19-141.85,124,.4-.14.79-.27,1.17-.43l-2.21.85h-.1c-1.09.37-2.18.77-3.27,1.17q-18.36,6.65-37.83,12.68c-.13,0-.23.08-.37.1-108.08,30.7-152.46,1.46-165.8-11.33l-1.46.64c19.6,47.14-114.29,67.89-160.31,73.57a3.91,3.91,0,0,1-.48,0c-1,.1-2,.24-2.92.34l-10.93,1.2h-.34a1.22,1.22,0,0,1-.27,0h-.13l-3,.32q-6.84.76-13.61,1.46l-16.55,1.67c-3.4.32-6.8.67-10.16,1-4.81.45-9.55.91-14.28,1.33l-7,.64q-6.92.63-13.69,1.19l-2.68.24c-3.74.32-7.42.61-11.11.9-2.39.21-4.75.4-7.14.59l-11.83.92c-20.56,1.54-39.87,2.84-57.57,3.9-3.05.19-6,.37-9,.53-5.41.32-10.67.61-15.73.88-1.73.08-3.43.19-5.1.26-3.79.22-7.45.4-11,.56l-8.14.4c-3.27.16-6.4.29-9.42.42l-7.56.32c-4.86.21-9.39.37-13.56.53-1.27.06-2.49.11-3.68.14l-6.74.23q-2.24-8.39-4.43-16.71c-2.52-9.47-5-18.81-7.46-28.09q-9.71-36.73-18.78-71.52c-1.25-4.86-2.52-9.66-3.77-14.46s-2.49-9.58-3.71-14.3q-5.61-21.76-11-42.77-3.42-13.29-6.74-26.26-5.73-22.52-11.19-44.12-2.7-10.55-5.28-20.87c-1.62-6.48-3.24-12.87-4.83-19.24q-8.12-32.27-15.52-62.47-3.11-12.7-6.13-25-4.17-17.07-8.14-33.51-7.8-32.34-14.83-62.13-6.81-28.8-12.87-55.23-2.22-9.67-4.37-19c-.06-.26-.11-.5-.19-.77q-6-26.49-11.38-50.64c-.16-.74-.32-1.49-.48-2.2-1-4.62-2-9.15-3-13.66q-3.95-18.08-7.54-34.78c-.53-2.55-1.08-5.07-1.61-7.59-1.09-5-2.13-10-3.13-14.75q-4.59-21.73-8.49-41.15c-.77-3.71-1.49-7.37-2.21-11q-2.67-13.34-5-25.55c-.37-1.91-.74-3.79-1.08-5.67q-3.78-19.59-6.8-36.32-1.62-8.88-3-17c-1.62-9.18-3-17.61-4.32-25.41-.45-2.81-.91-5.52-1.33-8.15-.16-1.08-.34-2.17-.5-3.23-.32-2-.61-4-.93-5.95-.67-4.29-1.25-8.33-1.81-12.12-.26-1.88-.53-3.71-.79-5.49-.37-2.65-.72-5.17-1-7.59-.1-.79-.21-1.56-.32-2.33-.15-1.09-.29-2.15-.42-3.19-.16-1.38-.34-2.7-.5-4s-.27-2.26-.4-3.32c0-.13,0-.25,0-.37-.14-1.14-.24-2.23-.38-3.27v-.13c-.11-1.09-.24-2.12-.35-3.13v0c-.1-.88-.18-1.73-.26-2.55a2.14,2.14,0,0,1-.06-.5c-.08-.8-.16-1.57-.23-2.31v-.35c-.05-.42-.08-.84-.13-1.24-.11-1-.19-1.94-.27-2.81s-.13-1.65-.18-2.37v-.29c0-.45-.08-.9-.11-1.3s0-.63,0-.93a3.78,3.78,0,0,0-.08-1,1.39,1.39,0,0,1,0-.58c113.36-132.94,241.57-245.4,353.58-331.91,47.35-36.55,91.79-68.49,131-95.37,94.9-65,159-100.51,159-100.51,76.77,164,250,599.44,341.24,968.46a.74.74,0,0,1,0,.21c.23.87.45,1.78.69,2.68,0,.21.1.4.13.58,1.19,4.78,2.33,9.52,3.47,14.27q4.44,18.44,8.62,36.61c1.23,5.31,2.42,10.62,3.59,15.89q1.59,7.1,3.1,14.14c.19.88.37,1.73.56,2.58,1.22,5.54,2.39,11.09,3.53,16.58,0,.21.1.42.13.61q1.65,8,3.26,15.84c.9,4.48,1.81,9,2.68,13.45l1,4.82c.84,4.46,1.69,8.92,2.52,13.32.1.51.21,1,.29,1.51.77,4.09,1.51,8.17,2.25,12.21q3.15,17.43,5.92,34.43A117.5,117.5,0,0,1,1838.91,3186.57Z"/><path class="cls-4" d="M921.18,846.18c-1.25,7.08-2.6,14.14-4.14,21.17-1.64,7.37-2.39,17.85-9.36,22a173.51,173.51,0,0,1-51,20.16,9.42,9.42,0,0,1,3.5-5.15c-13.9-17.82-18.57-60.72,1.19-54.94a55.74,55.74,0,0,0,6.66,1.49c2.31.37,4.7.64,7.17.79C890.19,852.68,906,850.5,921.18,846.18Z"/><path class="cls-14" d="M575.19,766.54c-71.1,42.58-163.87,123.73-259.26,278.39,1.53-3.87,3.07-7.69,4.64-11.49.77-1.91,1.54-3.79,2.33-5.67.67-1.6,1.33-3.19,2-4.78.74-1.78,1.48-3.55,2.25-5.3,90-208.52,201.07-263.54,231.33-275.11Q566.42,754.24,575.19,766.54Z"/><path class="cls-15" d="M825.78,941.52c-.24,3.08-.55,6.29-.93,9.66-.69,6-1.56,12.52-2.68,19.47-.13.9-.26,1.8-.42,2.71-.29,1.83-.61,3.68-.93,5.57-.21,1.16-.4,2.36-.63,3.58-.3,1.67-.59,3.37-.91,5.07s-.61,3.39-.95,5.12c-2.73,14.48-6.1,30.34-10,47.38-.24,1-.45,2-.69,2.94-.32,1.38-.64,2.76-1,4.17-5.57,23.87-12.12,49.87-19.42,77.38-.66,2.52-1.32,5-2,7.56s-1.36,5.09-2.05,7.64c-.58,2.2-1.16,4.38-1.77,6.58-.8,2.94-1.62,5.92-2.42,8.91-.21.75-.4,1.46-.61,2.18q-1.53,5.57-3.08,11.22c-.5,1.88-1,3.77-1.56,5.68q-1.77,6.29-3.53,12.65c-.42,1.49-.82,3-1.25,4.46q-3.21,11.5-6.55,23.19l-2.7,9.47q-2.48,8.63-5,17.37-1.65,5.65-3.26,11.3C739,1295.6,725.91,1339.61,712.81,1383c-2.28,7.53-4.54,15.07-6.82,22.55-9.84,32.6-19.63,64.73-29,95.61-20.32,66.75-182.06,110.86-195.73,158.72-26.87,94.1-51.14,85.53-88.36,96.35-12.5,3.64-24.78,7.09-36.24,10.24-36.72,10.14-65.18,17.3-65.18,17.3h-.35c-1,0-1.91,0-2.86-.08a19.44,19.44,0,0,1-2.18-.16c-.72-.08-1.19-.1-1.78-.16l-.85-.13c-.79-.11-1.59-.24-2.36-.4s-1.38-.26-2-.42l-1.94-.48a45.87,45.87,0,0,1-12.2-5.31c-.74-.45-1.49-.92-2.2-1.43s-1.33-.9-1.94-1.38c-.45-.34-.9-.69-1.32-1.06a39.67,39.67,0,0,1-3.4-3c-.58-.53-1.14-1.09-1.7-1.67l-.29-.29a18.6,18.6,0,0,1-1.46-1.59,8.67,8.67,0,0,1-.64-.72c-.79-.9-1.56-1.83-2.3-2.79a70.34,70.34,0,0,1-4.35-6.1c-.61-1-1.22-1.91-1.81-2.92s-1.19-2-1.75-3-1.14-2.09-1.7-3.18-1-2-1.54-3.1a164.32,164.32,0,0,1-8.41-21.86c-.34-1.07-.66-2.15-1-3.24-.26-.85-.5-1.7-.74-2.55-2-7-3.79-14.54-5.41-22.39-.27-1.3-.53-2.62-.77-4s-.53-2.65-.77-4-.56-3-.8-4.48c-.34-2-.69-4.09-1-6.15-1.88-11.81-3.48-24.25-4.83-37.15a73,73,0,0,1,3-20.5V1618c3-10.42,9-22.57,21.12-30.74-1,.37-5.87,1.06-14.46-15.41a118,118,0,0,1-12.52-64.68c1.08-12.58,2.6-26,4.56-40.88l7.32-11.3c50.62-78.13,100-144.53,147.66-200.93,141.88-168.25,267.3-247.73,359.2-285h0q14.07-5.69,27.11-10.13A426.22,426.22,0,0,1,825.78,941.52Z"/><path class="cls-16" d="M805,1054.43c-5.2,21.86-11.16,45.39-17.72,70.14-10.64,40.19-22.84,83.57-35.78,128.21C727.55,1335.37,701,1422.3,677,1501.2c-20.32,66.75-182.06,110.86-195.73,158.72-26.87,94.1-51.14,85.53-88.36,96.35-12.5,3.64-24.78,7.09-36.24,10.24-36.72,10.14-65.18,17.3-65.18,17.3-40.09.24-59.43-39.71-70-97.39-.45-2.44-.88-4.9-1.3-7.4,9.82,14.73,23.11,23.56,41.07,24.59,0,0,28.86-5.35,66.13-13.15,11.62-2.44,24.12-5.1,36.8-7.94,37.83-8.46,61.52,1.62,94.28-90.59,16.66-46.91,180.85-80.73,205.33-146.07,29-77.23,60.94-162.33,90-243.22,15.73-43.74,30.64-86.27,43.8-125.72Q801.36,1065.5,805,1054.43Z"/><path class="cls-17" d="M1609.91,1472.42v6.31c-.06,2.47-.16,4.92-.29,7.37a5.82,5.82,0,0,1-.06,1c0,1.11-.13,2.23-.21,3.34-.08,1.43-.21,2.87-.34,4.3s-.27,2.84-.43,4.27-.32,2.84-.5,4.27c-.29,2.23-.61,4.49-1,6.74-.14,1-.3,1.88-.46,2.84s-.37,2.17-.58,3.24c-.42,2.33-.9,4.64-1.4,7l-5.55,13.74c0-.29-.08-.56-.11-.85a126.55,126.55,0,0,1-11.93,20.69c-16.72,22.74-30.38,15.44-39.13,4.65,9.87,23.93,9.44,51,7.08,70.51a182.65,182.65,0,0,1-5.15,26.74h0c-5,10-10.27,20.53-15.95,31.73-1.59,3.13-3.21,6.31-4.93,9.58s-3.66,6.92-5.57,10.45c-1,1.75-2,3.53-3,5.3-1.32,2.39-2.7,4.78-4.08,7.19-.69,1.2-1.38,2.37-2.1,3.56-3.71,6.31-7.67,12.68-11.83,19-.82,1.3-1.67,2.57-2.55,3.84-.18.3-.4.59-.58.88-1.09,1.59-2.18,3.18-3.32,4.75q-2.58,3.73-5.33,7.4c-.79,1.06-1.59,2.12-2.41,3.18-.67.9-1.36,1.81-2.07,2.71-4.19,5.38-8.6,10.61-13.16,15.65-12.81,14.14-27.09,26.61-43,35.84-.43.27-.88.5-1.27.74-16.37,9.74-21.07,15.18-63,9.77-11.7-1.52-185.92-166-232.26-213.69l-2.1-2.18c-54.3-56.61-190.18-76.67-215.76-119.17-41.46-68.89-53.32-275.15-57.59-458.2.16-3.29.29-5.68.37-7.14-.11,1.25-.24,3.19-.43,5.79,0-1.94-.07-3.9-.13-5.84h0c-.9-40.21-1.43-79.19-1.85-115.21-.06-4.83,1.51-8.23,4.16-10.14.21-.15.45-.29.69-.45,3.29-1.91,8-1.77,13.19.48,22.73,9.76,119.29,3.56,144.5-8.89,47.67-23.32,82.95-53.29,108.95-86.06q8.36-10.5,15.41-21.32c.77-1.17,1.54-2.37,2.29-3.56.13-.19.23-.37.34-.56.82-1.27,1.62-2.54,2.41-3.84q3.45-5.65,6.61-11.38c1.11-2,2.18-4,3.21-5.95,0,0,103.49,73.25,190.69,151.22,45.31,40.51,143.68,177.08,163.39,210.53,0,0,.8,1.59,2.2,4.59.13.24.24.48.35.72,1.16,2.41,2.65,5.62,4.45,9.52q.57,1.2,1.17,2.52c1.78,3.9,3.82,8.41,6,13.45.93,2.1,1.88,4.3,2.89,6.61a2.79,2.79,0,0,0,.24.53c.4,1,.82,1.91,1.25,2.89.61,1.43,1.24,2.92,1.88,4.4.37.9.77,1.83,1.17,2.76.87,2,1.78,4.14,2.65,6.31.74,1.76,1.49,3.53,2.23,5.34.53,1.24,1.06,2.52,1.59,3.82l2.26,5.57c1.46,3.63,3,7.35,4.48,11.19.72,1.83,1.46,3.72,2.17,5.63,1.54,4,3.11,8,4.67,12.15.53,1.38,1,2.76,1.57,4.16,4.38,11.73,8.83,24.14,13.18,37.09.48,1.35.93,2.73,1.38,4.11s.93,2.76,1.38,4.14c.93,2.79,1.83,5.57,2.73,8.38a2.76,2.76,0,0,1,.08.27c.88,2.73,1.76,5.46,2.6,8.22q5.51,17.6,10.48,36c12.76,47.25,22.21,97.17,22.92,143.1Z"/><path class="cls-18" d="M1609.91,1472.42v6.31c-.06,2.47-.16,4.92-.29,7.37a5.82,5.82,0,0,1-.06,1c0,1.11-.13,2.23-.21,3.34-.08,1.43-.21,2.87-.34,4.3s-.27,2.84-.43,4.27-.32,2.84-.5,4.27c-.29,2.23-.61,4.49-1,6.74-.14,1-.3,1.88-.46,2.84s-.37,2.17-.58,3.24c-.42,2.33-.9,4.64-1.4,7l-5.55,13.74c0-.29-.08-.56-.11-.85a833.93,833.93,0,0,0-94.64-307.63,1119.36,1119.36,0,0,0-100.07-159c-93.2-123.54-196.37-206.5-276.75-260q8.36-10.5,15.41-21.32c.77-1.17,1.54-2.37,2.29-3.56.13-.19.23-.37.34-.56.82-1.27,1.62-2.54,2.41-3.84q3.45-5.66,6.61-11.38c1.11-2,2.18-4,3.21-6,0,0,103.49,73.25,190.69,151.22,45.31,40.51,143.68,177.08,163.39,210.53,0,0,.8,1.59,2.2,4.59.13.24.24.48.35.72,1.16,2.41,2.65,5.62,4.45,9.52q.57,1.2,1.17,2.52c1.78,3.9,3.82,8.41,6,13.45.93,2.1,1.88,4.3,2.89,6.61a2.79,2.79,0,0,0,.24.53c.4,1,.82,1.91,1.25,2.89.61,1.43,1.24,2.92,1.88,4.4.37.9.77,1.83,1.17,2.76.87,2,1.78,4.14,2.65,6.31.74,1.76,1.49,3.53,2.23,5.34.53,1.24,1.06,2.52,1.59,3.82l2.26,5.57c1.46,3.63,3,7.35,4.48,11.19.72,1.83,1.46,3.72,2.17,5.63,1.54,4,3.11,8,4.67,12.15.53,1.38,1,2.76,1.57,4.16,4.38,11.73,8.83,24.14,13.18,37.09.48,1.35.93,2.73,1.38,4.11s.93,2.76,1.38,4.14c.93,2.79,1.83,5.57,2.73,8.38a2.76,2.76,0,0,1,.08.27c.88,2.73,1.76,5.46,2.6,8.22a327.54,327.54,0,0,1,15,41.79c9.66,33.45,17.85,78.81,18.38,137.26C1609.91,1469.44,1609.91,1470.93,1609.91,1472.42Z"/><path class="cls-19" d="M858.44,1029.78c-.08,1.46-.21,3.85-.37,7.14,0-.45-.06-.9-.06-1.35C858.2,1033,858.33,1031,858.44,1029.78Z"/><path class="cls-20" d="M504.2,503.19a.89.89,0,0,1,0,.23v-.23Z"/><path class="cls-11" d="M1838.91,3186.57v1.49q0,.36,0,.72h0v.06c-1.64,5.22-5.91,9.17-11,12.46l-.18.14c-10.24,6.58-23.64,10.66-25.73,17.37-.72,2.31-.14,4.91,2.36,8,12,15.05-36.08,82.19-141.85,124-1.46.55-2.92,1.08-4.41,1.62q-18.36,6.64-37.83,12.68c-.13,0-.23.08-.37.1-108.08,30.7-152.46,1.46-165.8-11.33l-1.46.64c19.6,47.14-114.29,67.89-160.31,73.57a3.91,3.91,0,0,1-.48.05c-1,.1-2,.24-2.92.34l-10.93,1.2h-.77c-1,.13-2,.24-3,.34q-6.84.77-13.61,1.46L1244,3433.1c-3.4.32-6.8.67-10.16,1-4.81.45-9.55.91-14.28,1.33l-7,.64q-6.91.63-13.69,1.19l-2.68.24c-3.74.32-7.42.61-11.11.9-2.39.21-4.75.4-7.14.59l-11.83.92c-20.56,1.54-39.87,2.84-57.57,3.9-3,.19-6,.37-9,.53-5.41.32-10.67.61-15.73.88-1.73.08-3.43.19-5.1.26-3.79.22-7.45.4-11,.56l-8.14.4c-3.27.16-6.4.29-9.42.42l-7.56.32c-4.86.21-9.39.37-13.56.53-1.27.06-2.49.11-3.68.14l-6.74.23q-2.24-8.39-4.43-16.71c-2.52-9.47-5-18.81-7.46-28.09Q997,3366.55,988,3331.76c20.85-.93,46.13-2.29,74.65-4.17,19.37-1.25,40.22-2.76,62.26-4.54a1,1,0,0,1,.24,0q17.16-1.4,35.21-3.05,16.38-1.47,33.45-3.21c19.74-2,40-4.22,60.59-6.71q21.69-2.6,43.85-5.6l14.33-2c14.06-2,28.23-4.08,42.39-6.31q13.56-2.15,27.12-4.46,15.75-2.65,31.43-5.57c.24,0,.51-.1.74-.13,9-1.7,18.07-3.42,27.06-5.23l12.84-2.62q27.86-5.82,55-12.42c23.53-5.75,46.47-12,68.52-18.78,25.63-7.88,50-16.47,72.71-25.84a530.16,530.16,0,0,0,56-26.77c22.61-12.62,42.26-26.42,58.21-41.43h0q6.56-6.16,12.25-12.6a144.12,144.12,0,0,0,20.86-30.3,116.36,116.36,0,0,0,7.26-17.69,113.65,113.65,0,0,0,3.59-53.27c-3.74-23-8-46.67-12.76-70.78a.74.74,0,0,0,0-.21c.24.95.48,1.93.72,2.89,0,.21.1.4.13.58,1.19,4.78,2.33,9.52,3.47,14.27q4.44,18.43,8.62,36.61c1.23,5.31,2.42,10.62,3.59,15.89q1.59,7.09,3.1,14.14c.19.88.37,1.73.56,2.58,1.22,5.54,2.39,11.09,3.53,16.58,0,.21.1.42.13.61q1.65,8,3.26,15.84c.9,4.48,1.81,9,2.68,13.45l1,4.82c.84,4.46,1.69,8.92,2.52,13.32.1.51.21,1,.29,1.51.77,4.09,1.51,8.17,2.25,12.21q3.15,17.43,5.92,34.43A118,118,0,0,1,1838.91,3186.57Z"/><path class="cls-11" d="M1413.41,3286.24a2154.27,2154.27,0,0,1-249-1090.67,2643.83,2643.83,0,0,0,289.6,1082.69Z"/><path class="cls-21" d="M1827.85,3201.36l-.18.14c-10.24,6.58-23.64,10.66-25.73,17.37-7-23.9-15.52-50.32-25.21-78.44-43.45-126.31-109.67-286.83-159.2-408a4287.74,4287.74,0,0,0-322.11-632.24A3701.21,3701.21,0,0,1,1650.85,2728c46.85,105.61,105.32,261.6,146.74,382.07C1809.23,3143.94,1819.53,3175,1827.85,3201.36Z"/><path class="cls-22" d="M190.13,3211.09c71.19,42.92,156.37,69.15,181.24,76.29q-1.65,4.54-3.26,8.92c-.67,1.8-1.3,3.58-2,5.33l-2.33,6.21c-1.17,3-2.31,6-3.45,8.91-1.25,3.21-2.49,6.34-3.71,9.34-8.09,17.77-15.92,33.64-23.35,47.17a861.32,861.32,0,0,1-114-40.9h-.09c-3.08-1.57-38.42-19.79-59.38-38.68-1.92-1.73-3.71-3.47-5.35-5.2-10.21-10.77-14.4-21.29-4-28.6,31.25-21.94-53.35-10.88-66.43-15.57h0a155.66,155.66,0,0,1-19.76-26.74,109.72,109.72,0,0,1-10.75-25.29,91.87,91.87,0,0,1-2.65-36.92s3.31-9.28,9.21-26.25l52.89,18.64,9.59,3.37a2361.78,2361.78,0,0,0,312.37-808.38,2440.4,2440.4,0,0,1-247,860.24c-.87,1.73-1.73,3.46-2.6,5.18Z"/><path class="cls-19" d="M1491.05,1729.08c-19.24,11.06-23.43,17.43-70.86,11.41-13.11-1.67-211.17-185.84-258.45-234.28-59.9-61.44-209.76-83.22-238-129.35-43.88-71.74-57.67-280.68-62.9-473-.24.16-.48.3-.69.45-2.65,1.91-4.22,5.31-4.16,10.14.42,36,1,75,1.85,115.21h0c.06,1.94.08,3.9.13,5.84a10.17,10.17,0,0,0,.06,1.35c4.27,183,16.13,389.31,57.59,458.2,25.58,42.5,161.46,62.56,215.76,119.17,42.87,44.65,222.47,214.33,234.36,215.87,43,5.54,46.82-.32,64.25-10.51,15.86-9.23,30.14-21.7,43-35.84,23.13-25.47,41.57-56.4,56-83.88A191.15,191.15,0,0,1,1491.05,1729.08Z"/><path class="cls-23" d="M787.26,1124.57c-.37,2.47-.74,4.93-1.14,7.45-29.74,192.71-54.65,357.8-75.5,499.33-18.54,19.1-46.66,36.34-75.08,52.58a1815.55,1815.55,0,0,1-157.18,692.56l-81.6-59a1545.91,1545.91,0,0,0,97.55-180.85c73.14-160.34,109.82-313.6,127.41-444.83-41.7,23.55-80.72,45.17-87.14,67.64-26.88,94.1-51.15,85.53-88.37,96.36-12.5,3.63-24.78,7.08-36.24,10.24-15.39,4.24-29.31,8-40.32,10.85,1-44.84-2.5-83.86-13-110.34,11.46-3.15,23.74-6.6,36.24-10.24,37.22-10.82,61.49-2.25,88.36-96.35,9.92-34.78,98-67.57,153.26-108.5,20.8-15.42,36.93-32,42.47-50.22C714,1379.64,756.91,1239.09,787.26,1124.57Z"/><path class="cls-20" d="M1157.79,762.82c-1,2-2.12,4-3.21,5.95l-.95,1.72a.91.91,0,0,1-.11.16c-.45.82-.9,1.62-1.38,2.44s-.93,1.62-1.41,2.41-1,1.75-1.56,2.63-1.12,1.88-1.7,2.81c-.13.24-.26.45-.4.67a2.11,2.11,0,0,1-.21.31l-2.39,3.8c-.08.13-.16.26-.26.4-.72,1.11-1.46,2.22-2.2,3.36-.61.93-1.25,1.84-1.86,2.76-.24.32-.48.67-.69,1-1,1.43-1.94,2.86-3,4.27-2.87,4-5.84,8-9,11.93-26,32.77-61.28,62.74-109,86.06-25,12.37-120.6,18.57-144.08,9l-.42-.16c-.69-.29-1.38-.56-2.07-.8l-1.73-.5-.45-.11c-.53-.1-1.06-.21-1.56-.26a19.36,19.36,0,0,0-2-.13,9.36,9.36,0,0,0-1.3.08,9.66,9.66,0,0,0-4.06,1.24c-.24.14-.48.3-.69.45a24,24,0,0,1-1.51-2.12,23.55,23.55,0,0,1-1.28-2c-.53-.87-1-1.78-1.51-2.73-.32-.61-.63-1.22-.93-1.86l-.15-.37s0-.08-.06-.1c-.42-.93-.85-1.86-1.22-2.84a1.16,1.16,0,0,1-.16-.4c-.18-.43-.34-.88-.53-1.33-.26-.71-.53-1.46-.77-2.2-.42-1.22-.82-2.47-1.16-3.71-.19-.64-.35-1.28-.51-1.91-.26-1-.53-2.07-.74-3.11a2,2,0,0,0-.08-.4c-.24-1-.43-2.06-.58-3.1a58.51,58.51,0,0,1-.75-6.47v-.89h0l-.06-1.22v-1.39c0-.77,0-1.51.05-2.23s.11-1.46.19-2.17.16-1.38.26-2a17.88,17.88,0,0,1,.4-1.91,12.16,12.16,0,0,1,.4-1.43,10.55,10.55,0,0,1,.48-1.33,11.75,11.75,0,0,1,.91-1.85,9.48,9.48,0,0,1,1.21-1.67,4.4,4.4,0,0,1,.61-.61,3.29,3.29,0,0,1,.77-.61,5.39,5.39,0,0,1,1-.62l.48-.21a4,4,0,0,1,.71-.26l.25-.07.6-.14h.11a2.2,2.2,0,0,1,.37-.06,1.4,1.4,0,0,1,.29,0,6,6,0,0,1,.61-.06H858a12.22,12.22,0,0,1,3.44.53,55.74,55.74,0,0,0,6.66,1.49c2.31.37,4.7.64,7.17.79.92.06,1.83.08,2.75.14h2.92c3.18,0,6.4,0,9.63-.27h.76c1.27-.09,2.51-.19,3.78-.34s2.84-.29,4.24-.5l4.25-.61a156.75,156.75,0,0,0,17.64-4c1.14-.29,2.28-.63,3.4-1,1.38-.42,2.75-.87,4.13-1.32,4.12-1.38,8.15-2.92,12.1-4.57q4-1.66,7.8-3.5c3.8-1.83.08,0,.11-.05l.24-.11c1-.45,1.93-.9,2.86-1.35q4.65-2.26,8.2-4.46h0a1.65,1.65,0,0,1,.32-.18c.16-.11.3-.19.43-.3l.74-.45,1.7-1.19.9-.64a.32.32,0,0,1,.13-.1,24,24,0,0,0,2.44-2.18h0c.45-1.22.91-2.41,1.36-3.63a.64.64,0,0,1,.1-.26c.14-.4.27-.8.43-1.2a1.8,1.8,0,0,1,.08-.21q2-5.25,3.95-10.51a.17.17,0,0,0,0-.1c3.84-10.11,7.66-20.24,11-30.17.43-1.19.82-2.38,1.2-3.55s.76-2.31,1.11-3.45.66-2,.95-3,.69-2.28,1-3.4c.26-.92.53-1.88.8-2.81q.7-2.55,1.35-5c.34-1.35.66-2.68,1-4,.69-3,1.27-5.91,1.78-8.78,16.66-60.54,21.3-127.44,7.64-191.38-.27-1.27-.53-2.54-.82-3.82-34.41-152.7-100-275.71-136.36-315.08l-.8-.85h0L862,233c-.17-.18-.36-.37-.56-.56-1-1-2.21-2.14-3.67-3.46l-.9-.81c-.51-.46-1.05-.93-1.61-1.42l-.35-.3c-1-.89-2.15-1.83-3.34-2.8-.76-.62-1.54-1.26-2.36-1.91s-1.35-1.07-2.06-1.61L845,218.51l-1.58-1.18-1.43-1c-3.23-2.34-6.78-4.77-10.61-7.2l-1.48-.93c-.6-.37-1.2-.75-1.82-1.12q-1.77-1.08-3.63-2.16c-1.94-1.13-3.94-2.24-6-3.35l-2-1.08c-.68-.36-1.37-.72-2.07-1.07-1.4-.71-2.82-1.41-4.26-2.08-.7-.34-1.42-.67-2.13-1l-2.27-1-1.83-1c-2.4-1-4.86-2-7.36-3-.79-.3-1.58-.6-2.38-.88-1.53-.56-3.09-1.09-4.67-1.61l-.39-.12c-.62-.21-1.25-.41-1.88-.6l-.57-.18q-.85-.27-1.71-.51c-1.06-.32-2.13-.62-3.21-.91-.8-.23-1.6-.44-2.41-.64s-1.71-.44-2.57-.63-1.57-.38-2.37-.55l-.55-.12c-.76-.17-1.53-.33-2.3-.47s-1.7-.34-2.56-.49h-.19q-3.93-.72-8-1.2c-.91-.12-1.82-.22-2.74-.31-1.83-.19-3.68-.35-5.55-.45s-3.69-.2-5.55-.23h-5.11l-2,.06c-1,0-1.92.07-2.88.13l-1.5.1h-.14c-.72,0-1.44.1-2.17.17l-.73.07c-.83.07-1.67.15-2.51.25-.64.07-1.27.14-1.91.23l-1.14.15c-.85.11-1.7.24-2.56.37-.69.11-1.36.21-2,.34-29,5-60.17,20.62-91,53.88l0,.06-.14.17c-.55.67-2.25,2.76-4.87,6.15L625.13,245c-3.41,4.45-8.07,10.7-13.55,18.52l-1.35,1.94c-4.29,6.16-9,13.22-14.06,21.07l-2,3.11c-8.22,13-17.1,28-25.85,44.66-.93,1.74-1.84,3.5-2.75,5.28-1.07,2.07-2.14,4.17-3.19,6.29l-1.77,3.45c-1.09,2.21-2.17,4.45-3.24,6.7-.9,1.87-1.78,3.76-2.66,5.66l-1,2.16c-.55,1.19-1.09,2.39-1.63,3.59s-1.14,2.54-1.7,3.82q-1.74,3.93-3.42,7.93c-.41,1-.81,1.92-1.21,2.88-.88,2.09-1.73,4.19-2.57,6.32-.34.83-.67,1.67-1,2.51-.86,2.15-1.69,4.32-2.51,6.5-.39,1-.78,2.06-1.16,3.1a1.45,1.45,0,0,0-.11.29l-1.23,3.37c-.58,1.6-1.16,3.21-1.72,4.83h0c-.47,1.34-.93,2.68-1.39,4q-1.92,5.67-3.72,11.45c-.43,1.42-.87,2.84-1.3,4.27h0c-11.58,38.79-18.12,80.53-14.46,122.25,5.57,63.19,49.13,144.42,92.88,211.75a1.59,1.59,0,0,1,.13.22c2.76,4.21,5.49,8.38,8.23,12.49.9,1.35,1.8,2.65,2.7,4,1.57,2.39,3.16,4.72,4.73,7a3.93,3.93,0,0,0,.29.42q.59.84,1.14,1.68c.55.84.08.1.1.15.16.22.32.46.48.67l.08.13a41.76,41.76,0,0,0,12.81,11.62.42.42,0,0,1,.16.11.44.44,0,0,0,.16.1c6,3.66,69.85,34.15,86.78,36.61,3.42.51,6.66,1,9.68,1.33.51,0,1,.13,1.51.18,1.17.16,2.29.3,3.37.4s2.1.24,3.11.35c.71.08,1.4.16,2.09.21.85.11,1.67.19,2.47.24,2,.18,3.85.37,5.62.48,7,.55,12.5.69,17,.63h3.13c2,0,3.79-.11,5.44-.19l1.59-.08h1c2.52-.11,4.72-.21,6.92-.14h1.27a17.36,17.36,0,0,1,2,.16c.7.08,1.38.16,2.07.27a5.93,5.93,0,0,1,.72.1,3.64,3.64,0,0,1,.72.13c1,.19,2,.43,3.1.69.24.06.45.14.66.19.37.13.72.24,1.06.34h0l2.47.8h0c1.17.37,2.26.74,3.32,1.11a6.26,6.26,0,0,0,.61.21c1,.35,2,.72,2.94,1,.16.08.35.13.53.21.48.16,1,.35,1.41.53h0a9.73,9.73,0,0,1,1.27.48,16.73,16.73,0,0,1,3.06,1.51,7.5,7.5,0,0,1,.9.61c.2.12.39.26.58.4l.59.47a14.22,14.22,0,0,1,1.24,1.09c.19.19.35.37.53.56s.4.45.61.69a15,15,0,0,1,1,1.24,6.41,6.41,0,0,1,.4.61h0a11,11,0,0,1,.67,1.09h0l.1.21c.24.43.46.88.67,1.33a.11.11,0,0,1,0,.08c.25.53.49,1.08.69,1.64a29.17,29.17,0,0,1,1.07,3.56c.15.61.26,1.22.37,1.86a2.43,2.43,0,0,0,.08.47.87.87,0,0,0,.05.22v.24c0,.31.1.63.13,1h0c.16,1.25.26,2.55.32,3.85.39,10.77-2.63,22.26-4.38,28-.24.77-.45,1.43-.64,2-.34,1-.55,1.54-.61,1.67a7.28,7.28,0,0,0-7.45-.74c-22.66,10.27-87.21,4.91-98.77.77-23.75-8.54-81.19-58.31-116.91-106q-11.43-15.24-21.65-29.63-6.36-9-12.31-17.59c-1.48-2.12-2.94-4.25-4.38-6.37-32.5-52.68-58.41-156-58.41-156s-22.39-179.13,48.21-340c.79-1.81,1.59-3.58,2.39-5.36s1.61-3.58,2.46-5.36c.48-1.06,1-2.12,1.52-3.18q2.17-4.67,4.56-9.32c.55-1.14,1.14-2.28,1.72-3.44q2.6-5.05,5.33-10.06c.8-1.48,1.62-2.94,2.45-4.43,1.06-1.91,2.14-3.82,3.26-5.7s2.28-3.93,3.47-5.89c.91-1.51,1.81-3,2.74-4.49q5.05-8.26,10.61-16.34c1-1.48,2-2.94,3-4.4a.74.74,0,0,1,.16-.27c1.11-1.56,2.23-3.13,3.37-4.69,1.59-2.2,3.21-4.41,4.88-6.61,1.25-1.67,2.52-3.31,3.79-5q1.63-2.1,3.34-4.22c.93-1.14,1.86-2.3,2.82-3.45,1.54-1.91,3.13-3.79,4.77-5.7s3.18-3.69,4.8-5.52c.45-.53.93-1.06,1.41-1.59,1.67-1.86,3.34-3.69,5.07-5.52l.63-.69c1.72-1.85,3.48-3.68,5.26-5.49,1.59-1.64,3.21-3.26,4.85-4.88,1-1,1.94-1.91,2.92-2.84a6.13,6.13,0,0,1,.82-.79q2-1.95,4.06-3.85c.53-.5,1.09-1,1.64-1.51,1.46-1.36,2.92-2.68,4.41-4,2-1.78,4-3.55,6-5.28.32-.29.66-.55,1-.82,2.09-1.8,4.19-3.56,6.34-5.28,0,0,128.48-106.49,274.68,25.36,0,0,161.48,127.9,252.74,407.51C1191.59,523.36,1217.53,648.83,1157.79,762.82Z"/><path class="cls-24" d="M1063.6,745.08c-.85,1.7-1.74,3.39-2.64,5.07l-.78,1.47a.57.57,0,0,1-.08.13c-.38.71-.74,1.38-1.14,2.09s-.76,1.38-1.15,2.06l-1.28,2.24c-.44.79-.92,1.6-1.4,2.39a5.3,5.3,0,0,1-.33.57,1.24,1.24,0,0,1-.17.27c-.65,1.09-1.31,2.15-2,3.24-.06.11-.13.22-.21.34-.59.95-1.21,1.9-1.81,2.87-.5.79-1,1.56-1.52,2.35-.21.27-.4.57-.57.84-.79,1.22-1.59,2.44-2.45,3.64q-3.51,5.16-7.36,10.19c-21.33,27.94-50.29,53.51-89.43,73.4-16.54,8.48-70.59,13.58-101.1,11v-.42h0l-.06-1.22v-1.39c0-.77,0-1.51,0-2.23s.11-1.46.19-2.17.16-1.38.26-2a17.88,17.88,0,0,1,.4-1.91,12.16,12.16,0,0,1,.4-1.43,10.55,10.55,0,0,1,.48-1.33,11.75,11.75,0,0,1,.91-1.85,9.48,9.48,0,0,1,1.21-1.67,4.4,4.4,0,0,1,.61-.61,3.29,3.29,0,0,1,.77-.61,5.39,5.39,0,0,1,1-.62l.48-.21a4,4,0,0,1,.71-.26l.25-.07.6-.14h.11a2.2,2.2,0,0,1,.37-.06h.29a4.07,4.07,0,0,1,.61-.06H858a12.22,12.22,0,0,1,3.44.53,55.74,55.74,0,0,0,6.66,1.49c2.31.37,4.7.64,7.17.79.92.06,1.83.08,2.75.14h2.92c3.18,0,6.4,0,9.63-.27h.76c1.27-.09,2.51-.19,3.78-.34s2.84-.29,4.24-.5l4.25-.61a156.75,156.75,0,0,0,17.64-4c1.14-.29,2.28-.63,3.4-1,1.38-.42,2.75-.87,4.13-1.32,4.12-1.38,8.15-2.92,12.1-4.57q4-1.66,7.8-3.5c3.8-1.83.08,0,.11,0l.24-.11c1-.45,1.93-.9,2.86-1.35q4.65-2.26,8.2-4.46h0a1.65,1.65,0,0,1,.32-.18c.16-.11.3-.19.43-.3l.74-.45,1.7-1.19.9-.64a.32.32,0,0,1,.13-.1,24,24,0,0,0,2.44-2.18h0c.45-1.22.91-2.41,1.36-3.63a.64.64,0,0,1,.1-.26c.14-.4.27-.8.43-1.2a1.8,1.8,0,0,1,.08-.21q2-5.25,4-10.51a.17.17,0,0,0,0-.1c3.84-10.11,7.66-20.24,11-30.17.43-1.19.82-2.38,1.2-3.55s.76-2.31,1.11-3.45.66-2,1-3,.69-2.28,1-3.4c.26-.92.53-1.88.8-2.81q.71-2.55,1.35-5c.34-1.35.66-2.68,1-4,.69-3,1.27-5.91,1.78-8.78,16.66-60.54,21.3-127.44,7.64-191.38-.27-1.27-.53-2.54-.82-3.82-34.41-152.7-100-275.71-136.36-315.08l-.8-.85h0l-.51-.51c-.17-.18-.36-.37-.56-.56-1-1-2.21-2.14-3.67-3.46l-.9-.81c-.51-.46-1.05-.93-1.61-1.42l-.35-.3c-1-.89-2.15-1.83-3.34-2.8-.75-.63-1.54-1.26-2.36-1.91s-1.35-1.07-2.06-1.61-1.39-1.08-2.12-1.62l-1.58-1.18-1.43-1c-3.23-2.34-6.78-4.77-10.61-7.2l-1.48-.93c-.6-.37-1.2-.75-1.82-1.12q-1.77-1.08-3.63-2.16c-1.94-1.13-3.94-2.24-6-3.35l-2-1.08-2.07-1.07c-1.4-.71-2.82-1.41-4.26-2.08l-2.13-1-2.27-1-1.8-1c-2.4-1-4.86-2-7.36-3l-2.38-.88c-1.54-.55-3.09-1.09-4.67-1.61l-.39-.12c-.62-.21-1.25-.41-1.88-.6l-.57-.18-1.71-.51c-1.06-.32-2.13-.62-3.21-.91-.8-.22-1.6-.44-2.41-.64s-1.71-.43-2.57-.63l-2.37-.55-.55-.12-2.3-.47c-.85-.17-1.7-.34-2.56-.49h-.19q-3.93-.71-8-1.2l-2.74-.31c-1.84-.18-3.68-.34-5.55-.45-.93-.06-1.86-.1-2.8-.14s-1.83-.07-2.75-.09-1.87,0-2.81,0h-2.3l-2,.06c-1,0-1.92.07-2.88.13l-1.5.1h-.14l-2.17.17-.73.07c-.83.07-1.67.15-2.51.25-.63.07-1.27.14-1.91.23l-1.14.15c-.85.11-1.7.24-2.56.37-.69.11-1.36.21-2,.34-29,5-60.17,20.62-91,53.88l0,.06-.14.17c-.55.67-2.25,2.76-4.87,6.15L625.13,245c-3.41,4.45-8.07,10.7-13.55,18.52l-1.35,1.94c-4.29,6.16-9,13.22-14.06,21.07-.65,1-1.32,2.06-2,3.11-8.22,13-17.1,28-25.85,44.66-.93,1.74-1.84,3.5-2.75,5.28-1.07,2.07-2.14,4.17-3.19,6.29-.58,1.13-1.14,2.27-1.71,3.42-1.09,2.21-2.17,4.45-3.24,6.7-.9,1.87-1.78,3.76-2.66,5.66-.34.72-.67,1.44-1,2.16-.55,1.19-1.09,2.39-1.63,3.59s-1.14,2.54-1.7,3.82q-1.74,3.93-3.42,7.93c-.41.95-.81,1.91-1.21,2.88-.88,2.09-1.73,4.19-2.57,6.32-.34.83-.67,1.67-1,2.51-.86,2.15-1.69,4.32-2.51,6.5-.39,1-.78,2.06-1.16,3.1a1.45,1.45,0,0,0-.11.29c-.42,1.12-.83,2.24-1.23,3.37-.58,1.6-1.16,3.21-1.72,4.83h0c-.47,1.34-.93,2.68-1.39,4q-1.92,5.67-3.72,11.45c-.43,1.42-.87,2.84-1.3,4.27C535.26,389,545.81,346,563.34,304.5c.66-1.54,1.31-3.05,2-4.57s1.33-3,2-4.57c.39-.9.81-1.81,1.24-2.71,1.2-2.65,2.44-5.3,3.75-8,.45-1,.94-1.94,1.42-2.94q2.1-4.31,4.37-8.57c.65-1.27,1.32-2.52,2-3.78.86-1.63,1.76-3.26,2.67-4.87s1.88-3.35,2.85-5c.74-1.29,1.48-2.56,2.24-3.83,2.77-4.7,5.69-9.34,8.71-13.93.81-1.27,1.66-2.52,2.51-3.76a.76.76,0,0,1,.13-.23c.91-1.33,1.83-2.67,2.77-4q1.95-2.82,4-5.64c1-1.42,2.07-2.82,3.12-4.23.88-1.2,1.8-2.4,2.74-3.59q1.14-1.5,2.31-3c1.26-1.63,2.57-3.23,3.92-4.86s2.61-3.15,3.94-4.71c.37-.45.77-.9,1.15-1.36,1.38-1.58,2.74-3.14,4.16-4.7l.53-.59c1.41-1.58,2.85-3.15,4.31-4.68s2.64-2.79,4-4.17c.78-.81,1.59-1.63,2.4-2.42a6.14,6.14,0,0,1,.67-.68c1.09-1.11,2.2-2.19,3.33-3.28.44-.43.9-.88,1.35-1.29,1.2-1.15,2.4-2.28,3.62-3.41,1.63-1.52,3.29-3,5-4.51.26-.25.55-.47.81-.7,1.72-1.54,3.44-3,5.2-4.5,0,0,105.46-90.83,225.46,21.63,0,0,132.55,109.09,207.45,347.58C1091.34,540.8,1112.64,647.85,1063.6,745.08Z"/><path class="cls-25" d="M1157.79,762.82a296.57,296.57,0,0,1-18.33,30.41c41.28-104.69,19.76-208.73,19.76-208.73C1068,304.88,906.48,177,906.48,177,760.28,45.14,631.8,151.63,631.8,151.63c-34.3,27.8-61.7,60.16-83.56,94.76,25.09-57.28,62-112.25,115.93-155.94,0,0,128.48-106.49,274.68,25.36,0,0,161.48,127.9,252.74,407.51C1191.59,523.36,1217.53,648.83,1157.79,762.82Z"/><path class="cls-1" d="M804.91,965.17a14.92,14.92,0,0,1-8.48-2.61l-26.52-17.85a15.12,15.12,0,0,1-.86-24.52l25.23-19.68a14.94,14.94,0,0,1,8.86-3.19l22-.77,40.58-1.43h.5a15.13,15.13,0,0,1,8.51,2.6l26.53,17.86a15.15,15.15,0,0,1,.86,24.52l-25.21,19.67a15.09,15.09,0,0,1-8.77,3.2l-44.21,1.54-18.46.65Z"/><path class="cls-1" d="M895.91,932.2l-25.23,19.68a5.19,5.19,0,0,1-3,1.09l-11.11.39-33.08,1.15-18.46.65a5.07,5.07,0,0,1-3-.88l-26.55-17.87a5.16,5.16,0,0,1-1.41-7.15,5.27,5.27,0,0,1,1.12-1.19l25.23-19.68a5.11,5.11,0,0,1,3-1.08l22.06-.77,30.64-1.08,9.94-.35a5.23,5.23,0,0,1,3.06.88l26.55,17.87A5.15,5.15,0,0,1,897,931,5.45,5.45,0,0,1,895.91,932.2Z"/><path class="cls-26" d="M895.91,932.2l-25.23,19.68a5.19,5.19,0,0,1-3,1.09l-11.11.39-33.08,1.15-18.46.65a5.07,5.07,0,0,1-3-.88l-26.55-17.87a5.16,5.16,0,0,1-1.41-7.15,5.27,5.27,0,0,1,1.12-1.19l25.23-19.68a5.11,5.11,0,0,1,3-1.08l22.06-.77,30.64-1.08,9.94-.35a5.23,5.23,0,0,1,3.06.88l26.55,17.87A5.15,5.15,0,0,1,897,931,5.45,5.45,0,0,1,895.91,932.2Z"/><line class="cls-27" x1="625.33" y1="789.59" x2="625.25" y2="789.46"/><path class="cls-18" d="M1604.62,1523.06l-5.55,13.74c0-.29-.08-.56-.11-.85Q1601.75,1530.1,1604.62,1523.06Z"/><path class="cls-19" d="M1587,1556.64c-16.72,22.74-30.38,15.44-39.13,4.65,9.87,23.93,9.44,51,7.08,70.51a1403.54,1403.54,0,0,0-112.4-260.94c-121.37-217.69-277.2-359.78-387.93-443.69a1165.5,1165.5,0,0,1,261.15,197.77C1472.63,1283.13,1549.49,1452.23,1587,1556.64Z"/><path class="cls-7" d="M730.68,969.16a2308.68,2308.68,0,0,1-515.91,669.48,73,73,0,0,1,3-20.5v-.06c3-10.42,9-22.57,21.12-30.74-1,.37-5.87,1.06-14.46-15.41a3775,3775,0,0,0,272.4-292.34A3773.53,3773.53,0,0,0,730.68,969.16Z"/></g></g></svg>