<svg id="Слой_1" data-name="Слой 1" xmlns="http://www.w3.org/2000/svg" viewBox="0 0 405.99 395.52"><path d="M163.61,267.76h-1.75L35,238.88V358.76l159.25,35.88V218.76l-22.75,43.75q-2.62,5.25-7.87,5.25Z"/><path d="M371,238.89,244.11,267.76h-1.75a9.19,9.19,0,0,1-7.87-4.37l-22.75-43.75V395.52L371,359.64Z"/><path d="M375.38,153.12,254.62,119.88l35-35.88H238V0H168V84H116.38l35,35.88L30.62,153.12,0,213.5l159.25,35.88L189.88,189,66.49,161l99.75-27.12L203,170.62l36.75-36.74L339.49,161,216.11,189l30.63,60.38L406,213.5Z"/></svg>