<?xml version="1.0" encoding="utf-8"?>
<!-- Generator: Adobe Illustrator 26.1.0, SVG Export Plug-In . SVG Version: 6.00 Build 0)  -->
<svg version="1.1" id="Слой_1" xmlns="http://www.w3.org/2000/svg" xmlns:xlink="http://www.w3.org/1999/xlink" x="0px" y="0px"
	 viewBox="0 0 4000 4000" style="enable-background:new 0 0 4000 4000;" xml:space="preserve">
<style type="text/css">
	.st0{display:none;}
	.st1{display:inline;fill:url(#SVGID_1_);}
	.st2{fill:#3C2415;}
	.st3{fill:#F9B87E;}
	.st4{fill:#7D5C3F;}
	.st5{fill:#BB8A5F;}
	.st6{fill:#9B6F4E;}
	.st7{fill:#63442C;}
	.st8{fill:#9B6C49;}
	.st9{fill:#FAC698;}
	.st10{fill:#D39667;}
	.st11{fill:url(#SVGID_00000085937682505808009930000004029749592394247574_);}
	.st12{fill:#A0735A;}
	.st13{fill:#705038;}
	.st14{fill:#FFC697;}
	.st15{fill:url(#SVGID_00000091013360290619735700000014318817149768857480_);}
	.st16{fill:url(#SVGID_00000115499269355031677780000007550059239729363349_);}
	.st17{fill:#FCCCA7;}
	.st18{fill:#B78869;}
	.st19{fill:#A07055;}
	.st20{fill:#C99975;}
	.st21{fill:#B78E72;}
	.st22{fill:#9B7250;}
	.st23{fill:#5E412B;}
	.st24{fill:#442C1C;}
</style>
<g id="Layer_2" class="st0">
	
		<radialGradient id="SVGID_1_" cx="3595.0544" cy="3380.8723" r="2399.3164" gradientTransform="matrix(0.5948 -0.8039 -0.4823 -0.3569 1492.2223 6096.521)" gradientUnits="userSpaceOnUse">
		<stop  offset="0" style="stop-color:#FF987F"/>
		<stop  offset="1" style="stop-color:#D4FFFC"/>
	</radialGradient>
	<rect class="st1" width="4000" height="4000"/>
</g>
<g id="Layer_1">
	<path class="st2" d="M926.7,3863.2l-1,0.4l-1.3,0.5l-2.3,0.8l-0.8,0.3l-0.8,0.2c-1,0.3-1.9,0.6-2.8,0.8l-1.3,0.3
		c-1.2,0.3-2.4,0.6-3.6,0.8c-0.8,0.1-1.4,0.2-1.9,0.3l-3,0.4h-1c-0.7,0.1-1.5,0.1-2.6,0.1h-1.4c-1.6,0-3.1-0.1-4.7-0.2l-0.7-0.1
		c-0.8-0.1-1.5-0.2-2.1-0.3s-1.3-0.2-2-0.3c-1.2-0.2-2.5-0.5-3.7-0.9l-1-0.3c-1.5-0.4-3-0.9-4.4-1.5l-0.3-0.1l-7.5-2.6l-0.1-0.1
		l-1.3-0.5l-4-4.3l-1.9-1.3l-3.9-4.8c-1-1.3-3-3.8-4.1-4.9l-0.5-0.6l-0.3-0.3l-0.5-0.6l-1.5-1.7c-0.7-0.8-1.4-1.6-2.2-2.3l-1.5-1.6
		l-0.3-0.3l-0.5-0.5l-0.5-0.5c-0.7-0.7-1.4-1.4-2.2-2.1c-0.5-0.5-1-0.9-1.5-1.4l-1.5-0.5l-3.5-3.4l-2.2-0.4l-0.4-0.4l-7.6-7.1
		l-1.9-1.2l-0.7-0.4l-0.2-0.1l-0.5-0.3l-1.2-0.7l-0.3-0.2l-1.1-0.6l-1.8-0.9l-1.7-0.9l-1.8-0.9l-1.2-0.6c-1.8-0.9-3.6-1.8-5.5-2.7
		l-1.7-0.9l-2.1-1.1l-1.7-0.9c-1.6-0.9-3.2-1.8-4.9-2.7c-0.7-0.4-1.5-0.9-2.2-1.3l-1.8-1l-1.6-1l-1.9-1.2l-1.5-0.9l-2.1-1.4
		c-2.6-1.7-5.2-3.6-8-5.6h-1.7l-7.7-6.9l-7.4-6.6c-0.8-0.7-1.5-1.3-2.2-1.9l-4-3.6l-0.4-0.4c-0.2-0.2-0.5-0.4-0.8-0.7
		c-0.5-0.4-1-0.9-1.5-1.4l-0.6-0.6l-1-0.8c-0.3-0.3-0.6-0.5-1-0.8l-0.6-0.5l0,0l-1.7-1.4l-0.8-0.6c-1.6-1.2-3.3-2.5-5.2-3.9l-1-0.7
		c-0.4-0.3-2.1-1.5-2.1-1.5c-1-0.7-1.9-1.3-2.9-2l-1-0.7c-3.1-2.1-6.3-4.1-9.4-5.9l-0.2-0.1c-0.8-0.5-1.5-0.9-2.2-1.3l-2-1.2l-3-1.6
		h-0.1l-2.5-1.4l-1.3-0.7l-2.6-1.4l-2.4-1.8c-11.2-8.3-18.5-20.9-20.2-34.7l-0.2-1.2l-0.1-1.1v-0.2c-0.1-0.8-0.2-1.7-0.2-2.6
		c0-0.2,0-0.9,0-0.9c0-1.2-0.1-2.3,0-3.5v-1.1l0.1-1.1c0.1-1.2,0.2-2.4,0.3-3.7l0.1-0.8l0-0.3c0.1-1,0.2-2,0.4-2.9
		c0.1-0.4,0.2-0.9,0.2-1.3c0.2-0.8,0.3-1.6,0.5-2.5c0.1-0.5,0.2-0.9,0.3-1.4c0.2-0.7,0.4-1.5,0.6-2.4v-0.1c0.1-0.4,0.2-0.9,0.4-1.4
		c0.2-0.7,0.4-1.5,0.7-2.2c0.1-0.4,0.2-0.8,0.4-1.2c0.3-1.1,0.7-2.2,1.2-3.4l2.6-7.2l3.7-7.4l5.3-8.2c1.2-1.8,3-4.6,5.1-7.5
		c8.9-12,33.1-40.2,65.1-40.2c8.4,0,16.7,2,24.1,5.9c8.2,3.6,15.9,8.1,23.1,13.4c77.2-104.1,152.9-206.8,225.2-305.8l21.6-29.6
		l30.7-42l30.4-41.8l35.8-49.4l26.9-37.2l28.7-39.8l24.2-33.6l29-40.3l43.4-60.6l40.7-57l5.8-8.1l18.7-26.3
		c119.9-168.6,217.5-308.2,307.1-439.4l1.8-2.6l9.5-14l2.6-3.9l0.1-0.1c1.9-2.8,3.9-5.7,5.8-8.5l2.9-4.3l5-7.4
		c0.9-1.3,1.7-2.6,2.6-3.8l3.9-5.8c0.4-0.6,0.9-1.3,1.3-1.9l5.3-7.8l1.9-2.8l9.4-13.9l11.5-17.2h0.2l7.4-11l0,0
		c0.1-0.2,0.2-0.4,0.4-0.6s0.3-0.4,0.4-0.6l0.3-0.4l10.3-15.2l3.1-4.6l0.2-0.2c0.3-0.5,0.7-1,1-1.5l16.8-24.8l3.5-5.2l1-1.4l6.4-9.4
		l7.4-10.9c3.3-4.9,6.7-9.9,10-14.8l2.5-3.7c5-7.5,10.1-14.9,15.1-22.3l6.3-9.4c2.9-4.3,5.9-8.7,8.9-13.1c2.6-3.9,5.3-7.8,7.9-11.7
		c3.8-5.6,7.8-11.4,11.7-17.2l0.6-0.9c1.5-2.2,3-4.4,4.5-6.6c8-11.8,16.2-23.6,24.5-35.8l0.1-0.2c1.4-2,2.7-4,4.1-6
		c11.3-16.5,21.4-31.1,30.9-44.8c0.9-1.3,84.8-121.7,173-244.4c84.5-117.6,180.9-242.9,311.3-404.8l0.2-3.4l0.8-3.4
		c1.2-5.2,29.8-129.3,82.1-288.3l0.4-1l14.7-43.8c0.2-0.7,0.4-1.3,0.7-2c51-148.2,105.4-272.8,161.6-370.3
		c35.4-61.4,71.9-112.6,108.5-152.1c40.7-43.9,82.9-74.8,125.5-92l0.5-1.1l13.6-4.2l55.6-10.9c4.3-0.3,8.7-0.4,13-0.4
		c49.8,0,99.2,17.9,147,53.1l37.5,27.7c62.2,45.9,96.7,102.4,102.6,168c8.4,40.3,5.1,84-9.8,130.1l-4.6,14.1l-12.2,8.4
		c-2.2,1.6-4.2,3.4-5.9,5.6c-1,4.8-2.9,14.7-6.4,34.3l-1.3,7.3l-3.6,6.4c-96,171.2-322.6,350.4-500.1,473.1v0.1l-18.1,12.4
		l-37.3,25.6l-0.1-0.3c-30.5,20.3-61.4,40.2-92,59.4l-7.8,4.8c-9.4,5.9-18.9,11.7-28,17.2l-3.9,2.3c-3.6,2.2-7.1,4.3-10.5,6.3
		c-42.7,53.6-81.6,103.2-118.6,151.3c-4.4,5.8-8.9,11.6-13.3,17.3l-8.5,11.2l-5.2,6.9l-9,11.8l-6.9,9.2l-5.9,7.8
		c-12,15.8-23.8,31.6-35.2,46.9l-1.7,2.3c-2.7,3.7-5.5,7.3-8.2,11l-1.1,1.4c-2.9,3.9-5.9,7.9-8.8,11.9l-7,9.5
		c-4.5,6.1-8.9,12.1-13.4,18.2c-5.7,7.8-11.4,15.7-17.2,23.6c-2,2.8-4,5.5-6,8.3c0,0-6.5,8.9-7.7,10.7l-6.4,9l-5.9,8.2
		c-38.9,54.2-81.1,113.8-125.5,176.9c-35.9,51.2-59.9,85.7-60.1,86.1c-60.3,87.4-110.3,162.1-163.3,241.1
		c-100.2,149.6-213.9,319.2-431.7,626l-3.7,5.2c-15.4,21.6-31.1,43.7-46.8,65.7c-13.2,18.6-26.3,36.9-39.3,55
		c-27.6,38.5-55.6,77.5-83.4,116l-4,5.6c-8.2,11.4-16.4,22.7-24.5,33.9c-8.3,11.5-16.6,22.9-24.8,34.2c-16.3,22.4-32.9,45.3-49.5,68
		c-3.3,4.5-6.6,9.1-9.9,13.6l-18.8,25.7l-28.8,39.4l-10,13.6c-8.4,11.5-16.7,22.8-24.9,33.9c-7.6,10.3-15,20.4-22.4,30.4l-12.6,17.2
		l-6.8,9.2c-8.1,10.9-16,21.7-23.8,32.2l-21.9,29.6c-13.7,18.5-26.9,36.3-39.7,53.5l-1.3,1.8l-7.2,9.6l0.1-0.2l-11.2,15l-18.5,24.9
		l1.3,1.4l0.6,0.3l0.4,0.2l1.3,0.6l22.4,18.3l0.5,0.6l1.3,3.1l1.4,2l0.8,2.5l1.2,1.9l0.2,1l1.9,8.6l0.9,12.5
		c-0.1,4.3-0.6,8.5-1.5,12.7l-0.1,0.5v0.1c-0.3,1.6-0.7,3.2-1.2,4.8l-0.2,0.7c-0.1,0.2-0.1,0.5-0.2,0.7c-0.9,3.2-2.1,6.3-3.3,9.4
		l-0.2,0.6l-0.5,1.2l-0.5,1.2l-1,2.1c-0.3,0.7-0.6,1.3-1,2l-15.5,24l-1.9,2.3l-0.4,0.5c-0.9,1-1.8,2-2.6,3l-0.3,0.4L926.7,3863.2z"
		/>
	<path class="st3" d="M946.6,3770.2v-0.2c0-0.1,0-0.1,0-0.2l0,0c0-0.1,0-0.2,0-0.4c0-0.1,0-0.1,0-0.2l0,0c0-0.1,0-0.3,0-0.4l0,0
		c0,0,0,0,0-0.1l0,0v-0.2c0-0.2-0.1-0.4-0.1-0.5c0-0.1,0-0.2,0-0.2l0,0l0,0c0-0.1,0-0.1,0-0.2c0-0.1-0.1-0.3-0.1-0.4l-0.1-0.2
		c0,0,0-0.1,0-0.1c0,0,0-0.1,0-0.1c0-0.1,0-0.1-0.1-0.2c0-0.1-0.1-0.3-0.2-0.4v-0.1c0-0.1,0-0.1-0.1-0.2l0,0
		c-0.1-0.1-0.1-0.3-0.2-0.4c0-0.1,0-0.1-0.1-0.2l-0.1-0.1l0-0.1c0,0,0-0.1-0.1-0.1c0,0,0-0.1-0.1-0.1c0,0,0-0.1,0-0.1l0,0
		c0-0.1-0.1-0.2-0.2-0.2c0,0,0-0.1-0.1-0.1c0-0.1-0.1-0.1-0.1-0.2c0,0,0-0.1-0.1-0.1c-0.1-0.2-0.3-0.3-0.4-0.5
		c-0.2-0.2-0.5-0.5-0.8-0.6c-0.1-0.1-0.3-0.2-0.4-0.3l-0.9-0.4c-0.6-0.2-1.2-0.5-1.8-0.8c-0.4-0.2-0.7-0.4-1.1-0.6s-0.9-0.4-1.3-0.7
		s-0.6-0.3-0.8-0.4l-0.7-0.4c-0.5-0.3-1-0.6-1.6-0.9c-0.3-0.2-0.6-0.3-0.9-0.5l-0.3-0.2l-0.1-0.1l-0.2-0.1l-0.1-0.1
		c0,0-0.1,0-0.1-0.1c0,0-0.1,0-0.1-0.1l-0.8-0.5l-0.1-0.1l-0.1-0.1l-0.8-0.5l-0.4-0.3c0,0-0.1,0-0.1-0.1c0,0-0.1,0-0.1,0l-0.3-0.2
		c-0.2-0.1-0.3-0.2-0.5-0.3l-0.2-0.2l0,0l0,0l0,0l0,0c0,0,0,0,0-0.1c0,0-0.1,0-0.1-0.1h-0.1l-0.1-0.1l0,0l0,0l0,0l0,0l0,0l0,0l0,0
		l0,0l0,0l0,0l0,0l-0.1-0.1l-0.1-0.1l0,0c-0.2-0.1-0.3-0.2-0.5-0.3l-0.2-0.1l-0.1-0.1l-0.1-0.1c-0.2-0.2-0.5-0.3-0.7-0.5l-0.2-0.1
		c0,0-0.1,0-0.1-0.1l0,0l-0.3-0.2l0,0l-0.2-0.2l0,0c0,0,0,0-0.1,0l0,0l0,0l-0.1-0.1l0,0l0,0c0,0,0,0-0.1,0l0,0c0,0,0,0-0.1-0.1l0,0
		l0,0l-0.1-0.1h-0.1c0,0-0.1-0.1-0.1-0.1l-0.7-0.6l-1.7-1.3l-0.5-0.4c-0.3-0.3-0.7-0.6-1-0.9l0,0c-0.4-0.4-0.8-0.7-1.2-1.1
		c-0.2-0.2-0.4-0.3-0.6-0.5c-0.4-0.4-0.8-0.7-1.1-1.1l0,0l-0.5-0.5c-0.4-0.4-0.8-0.8-1.1-1.1l-0.8-0.9l-1.4-1.5
		c-0.2-0.2-0.3-0.3-0.5-0.5c-0.8-0.8-1.5-1.7-2.3-2.5l-0.8-0.9c-0.4-0.4-0.8-0.8-1.2-1.2v-0.1l-0.5-0.6l-0.6-0.6
		c-0.4-0.4-0.8-0.8-1.2-1.1l0,0c-0.4-0.4-0.8-0.8-1.2-1.2l0,0c-4.1-3.7-8.6-7.1-13.5-9.9c-1.1-0.6-2.2-1.2-3.3-1.9l0,0
		c-0.9-0.5-1.8-0.9-2.7-1.4s-1.9-0.9-2.9-1.4c-28.6,4-36.5-23.6-37.4-27.2c-0.1-0.3-0.1-0.4-0.1-0.4l0,0c-2.2-0.9-4.4-1.8-6.5-2.9
		l-1.1-0.6l-1-0.5l-0.8-0.5c-0.1,0-0.1-0.1-0.2-0.1c-0.7-0.4-1.3-0.8-2-1.2c-0.3-0.2-0.6-0.4-0.9-0.6s-0.8-0.5-1.2-0.8l-1-0.7
		c-0.4-0.3-0.8-0.6-1.2-0.9s-0.8-0.6-1.2-0.9c-3.9-3-7.4-6.5-10.5-10.4c-2.6-3.2-5.4-6.2-8.3-9c-6.7-6.1-14.4-10.9-22.7-14.2
		c0.1,0.1,0.2,0.1,0.3,0.2l0.2,0.2c0.1,0.1,0.1,0.1,0.2,0.2c0.1,0.1,0.2,0.1,0.2,0.2l0.1,0.1l0,0c0,0.1,0.1,0.1,0.2,0.2
		s0.1,0.1,0.1,0.1l0.1,0.2l0.1,0.2c0.1,0.1,0.2,0.3,0.3,0.5l0.2,0.4l0.1,0.3c0,0.1,0,0.1,0.1,0.2l0,0l0,0l0,0c0,0,0,0,0,0.1
		c0.1,0.2,0.2,0.5,0.3,0.7c0.1,0.3,0.2,0.6,0.2,0.8c0.1,0.2,0.1,0.4,0.1,0.6c0,0,0,0.1,0,0.1c0,0.1,0,0.3,0.1,0.4c0,0.1,0,0.1,0,0.2
		c0,0.1,0,0.2,0,0.3s0,0.4,0,0.6v0.1c0,0.4,0,0.7,0,1.1c0,0.1,0,0.3,0,0.5s0,0.3,0,0.4s0,0.4,0,0.6c0,0.4-0.1,0.8-0.1,1.1
		s-0.1,0.7-0.2,1.1c0,0,0,0.1,0,0.1c0,0.3-0.1,0.7-0.2,1s-0.1,0.4-0.1,0.6s-0.1,0.5-0.2,0.7s-0.1,0.3-0.1,0.5
		c-0.2,0.8-0.4,1.7-0.7,2.5c-0.1,0.4-0.3,0.9-0.4,1.3s-0.2,0.7-0.4,1.1c-0.1,0.1-0.1,0.3-0.2,0.4s-0.2,0.4-0.2,0.6s-0.2,0.4-0.3,0.7
		c-0.2,0.6-0.5,1.1-0.7,1.7s-0.4,0.9-0.6,1.4s-0.3,0.8-0.5,1.2l-0.1,0.2c0,0,0,0.1-0.1,0.1c-0.2,0.4-0.4,0.9-0.7,1.3
		s-0.5,0.9-0.8,1.4s-0.6,1.2-1,1.8s-0.7,1.2-1,1.8c-0.1,0.2-0.2,0.4-0.3,0.6c0,0-0.1,0.1-0.1,0.1l-0.7,1.1c-0.3,0.4-0.5,0.8-0.8,1.2
		c-0.6,0.9-1.2,1.8-1.9,2.7l2.1,4.6l2.3,5.1l-3.1-4l-2.8-3.6c-0.3,0.4-0.6,0.8-0.9,1.2c-0.5,0.6-1,1.3-1.5,1.9s-1,1.2-1.5,1.8
		s-1.1,1.2-1.6,1.8s-1.3,1.4-1.9,2s-1.3,1.3-1.9,1.9s-1.3,1.2-2,1.8c-0.4,0.4-0.9,0.8-1.4,1.2l0,0c-0.4,0.3-0.8,0.6-1.2,1l0,0
		c-0.7,0.6-1.4,1.1-2.2,1.6s-1.4,1-2.1,1.4l-1,0.6c-0.3,0.2-0.7,0.4-1,0.6c-0.6,0.3-1.2,0.6-1.7,0.9c-0.3,0.1-0.6,0.3-0.9,0.4
		s-0.6,0.3-0.9,0.4s-0.5,0.2-0.7,0.3h-0.1l-0.5,0.2h-0.2c-0.1,0-0.2,0.1-0.3,0.1h-0.1c-0.3,0.1-0.7,0.2-1,0.2
		c-0.2,0-0.3,0.1-0.5,0.1l-0.3,0.1h-0.2h-0.2l-0.5,0.1h-0.3c-0.2,0-0.5,0-0.7,0c-0.3,0-0.5,0-0.8,0l0,0c-0.5,0-1-0.1-1.5-0.2
		c-0.2-0.1-0.5-0.1-0.7-0.2l0.7,0.4l0.7,0.4l1.5,0.8c1,0.6,2.1,1.2,3.2,1.8l2.4,1.4c0.9,0.5,1.9,1.1,2.8,1.7c3.4,2,7.1,4.4,11,7
		l1.2,0.8c1.2,0.8,2.4,1.6,3.6,2.5l2.4,1.7l1,0.7c4,2.8,7.1,5.2,9.7,7.4l0.7,0.5c0.7,0.5,1.3,1.1,1.9,1.6l0.5,0.4
		c0.7,0.6,1.4,1.2,2.1,1.8c0.2,0.2,0.4,0.4,0.7,0.6l0,0l1.3,1.1c0.4,0.4,0.8,0.8,1.2,1.1c1,0.9,2.1,1.9,3.2,2.9
		c0.6,0.6,1.3,1.2,2,1.8l0,0l0.9,0.8c0.3,0.3,0.6,0.6,1,0.8s0.7,0.6,1,0.9l0,0l0.8,0.6l2.5,2c0.4,0.3,0.8,0.6,1.2,1
		c0.8,0.7,1.7,1.3,2.6,2l1.1,0.8c0.7,0.5,1.4,1.1,2.1,1.6c2.4,1.8,4.7,3.4,6.8,4.8l1.8,1.2l0.9,0.6l1.5,1l1.4,0.9l1.3,0.8
		c0.5,0.3,1.1,0.6,1.6,0.9c1.3,0.8,2.6,1.5,3.9,2.2l1.5,0.8l1.5,0.8l1.5,0.8c2.2,1.1,4.3,2.1,6.4,3.2l2.1,1.1l2.1,1.1l1.1,0.6
		l1.1,0.6l1.1,0.6l1.1,0.6c0.3,0.2,0.6,0.3,0.9,0.5l0.2,0.1l0,0c0.2,0.1,0.5,0.3,0.7,0.4s0.3,0.2,0.4,0.2l1.1,0.7l1.1,0.7l0,0
		c0.7,0.5,1.5,0.9,2.2,1.4l0.1,0.1l0.1,0.1c0.8,0.5,2.5,1.7,2.6,1.7l0,0l1.5-1.2l2.8,2.8l4.4,0.9l0.7,1.5l2.2,0.7l-1.9,2.5l0.5,0.4
		l0.2,0.2c0.1,0,0.1,0.1,0.2,0.1h0.1c1.5,1.3,3,2.5,4.5,3.8l2.2,1.9c1,1,2.1,1.9,3,2.8s1.9,1.9,2.9,2.8l1,1c0.3,0.3,0.6,0.6,0.9,0.9
		l1.8,1.8c1.1,1.2,2.2,2.4,3.2,3.5c0.5,0.6,1,1.2,1.5,1.7c0.3,0.4,0.6,0.7,0.9,1.1s0.6,0.7,0.9,1c1.7,2,4.7,5.8,4.7,5.8l0.1,0.1h0.1
		l0.4,0.2l0,0l0,0l0.2,0.1h0.1c0.1,0,0.1,0.1,0.2,0.1l0.3,0.1l0.3,0.1l0.3,0.1c0.1,0,0.2,0.1,0.4,0.1h0.2c0.1,0,0.3,0.1,0.4,0.1h0.3
		h0.1c0.1,0,0.2,0,0.3,0h0.8c0.1,0,0.3,0,0.4,0h0.3h0.2c0.1,0,0.2,0,0.3,0l0,0l0.5-0.1c0.3,0,0.6-0.1,0.8-0.2c0.2,0,0.3-0.1,0.5-0.1
		c0.3-0.1,0.6-0.1,0.9-0.2l1.3-0.4l0.4-0.2l0.4-0.2c0.3-0.1,0.6-0.2,0.9-0.4l0,0l0.2-0.1c0.4-0.2,0.8-0.4,1.1-0.6
		c0.4-0.2,0.8-0.4,1.2-0.6c1.2-0.7,2.4-1.4,3.5-2.2l1.2-0.9c0.4-0.3,0.8-0.6,1.2-0.9l0.6-0.5c0.2-0.2,0.4-0.3,0.6-0.5l0,0
		c0.8-0.7,1.6-1.4,2.4-2.1l0,0c1.6-1.5,3.2-3.1,4.8-4.9c0.7-0.7,1.3-1.5,2-2.3s1.1-1.3,1.6-2l-4-5.7l-2.1-3l2.3,2.7l4.4,5.2l0,0
		c0.1-0.1,0.2-0.3,0.3-0.4l0.7-0.8l0.2-0.2c0.1-0.1,0.1-0.2,0.2-0.3l0.3-0.4c0.2-0.3,0.5-0.7,0.7-1s0.5-0.7,0.7-1l0.3-0.5
		c0.6-0.9,1.2-1.8,1.8-2.7l0.4-0.6l0.4-0.7c0.2-0.4,0.4-0.7,0.6-1l0.8-1.4l0.3-0.6l0.1-0.1c0.1-0.1,0.2-0.3,0.2-0.4l0.3-0.6
		c0.2-0.4,0.4-0.7,0.6-1.1s0.5-0.9,0.7-1.3s0.4-0.9,0.6-1.3c0.5-0.9,0.8-1.9,1.2-2.8l0.5-1.2c0.1-0.3,0.3-0.7,0.4-1s0.3-0.9,0.4-1.3
		s0.3-0.8,0.4-1.2s0.2-0.6,0.3-0.9s0.2-0.8,0.3-1.2s0.2-0.8,0.3-1.2c0-0.1,0-0.2,0.1-0.4c0.1-0.3,0.1-0.6,0.2-0.9v-0.2
		c0-0.1,0-0.1,0-0.2c0-0.2,0.1-0.3,0.1-0.5s0-0.3,0.1-0.5c0-0.1,0-0.1,0-0.2v-0.2l0,0l0,0v0.2l0,0l0,0c0,0,0,0,0-0.1
		c0,0,0-0.1,0-0.1v-0.1c0,0,0-0.1,0-0.1c0-0.2,0-0.4,0.1-0.5s0-0.4,0-0.6v-0.1c0,0,0,0,0-0.1v-0.1l0,0l0,0l0,0c0-0.1,0-0.2,0-0.4
		l0,0v-0.1c0-0.2,0-0.5,0-0.8v-0.2C946.6,3770.5,946.6,3770.4,946.6,3770.2z"/>
	<polygon class="st4" points="872.6,3792.1 870.7,3794.6 870,3792.2 868.3,3791.6 867.7,3790.5 864.3,3789.8 862.1,3787.6 
		861,3787.4 862.5,3786.2 865.2,3789 869.6,3789.9 869.6,3789.9 870.3,3791.4 	"/>
	<path class="st5" d="M3246.5,789.8c-9.1,6.2-16.5,14.5-21.8,24.1c-1.2,2.3-5.3,24.4-8.8,44c-94.6,168.8-326.8,348.8-497.5,465.9
		l-3.7-20.6l-4.1-10l-1.6,13.9l3.7,20.6c-50.7,34.6-95.7,63.6-129.7,84.8c-40.4,25.2-65.2,39.6-65.3,39.7l-14.1-10.4l-23.3-17.2
		c0,0,0-0.1,0-0.2l0,0c0-0.1,0-0.2,0.1-0.4l0,0c0-0.1,0.1-0.3,0.1-0.5c0.1-0.6,0.3-1.3,0.5-2.2c0.1-0.5,0.2-1,0.4-1.6
		c0.2-1,0.5-2.1,0.8-3.4c0.1-0.5,0.3-1.1,0.4-1.7l0.5-2c0.2-1,0.5-2,0.8-3.1l0,0c0.3-1.2,0.6-2.4,0.9-3.7l0.6-2.5
		c1.1-4.4,2.4-9.6,3.8-15.2c0.1-0.6,0.3-1.1,0.4-1.7c0.5-1.8,0.9-3.7,1.5-5.7c0.3-1.1,0.6-2.3,0.9-3.5c0.2-0.7,0.3-1.3,0.5-1.9
		s0.4-1.6,0.6-2.3c1.5-5.8,3.1-12.2,4.9-18.9c0.2-0.9,0.5-1.9,0.8-2.8c0.4-1.6,0.8-3.1,1.3-4.7c0.6-2.2,1.2-4.4,1.8-6.7
		c1-3.5,1.9-7.1,2.9-10.8c0.4-1.7,0.9-3.5,1.4-5.2c5.3-19.5,11.4-41.2,18.3-64.8c0.8-2.8,1.7-5.7,2.5-8.5c2-6.8,4.1-13.7,6.2-20.7
		c0.6-2,1.2-4,1.8-6c2.6-8.4,5.2-17.1,7.9-25.9c0.7-2.4,1.5-4.8,2.2-7.2c0.2-0.7,0.5-1.5,0.7-2.2c0.7-2.3,1.4-4.7,2.2-7
		c3.8-12.1,7.8-24.4,11.9-37c0.8-2.5,1.6-5,2.5-7.6c2.5-7.7,5.1-15.4,7.7-23.2c1.5-4.5,3.1-9,4.6-13.5c2.9-8.4,5.8-16.9,8.8-25.4
		c0.9-2.6,1.9-5.3,2.8-7.9s1.9-5.3,2.8-7.9s1.9-5.3,2.9-8s1.9-5.3,2.9-8c1.9-5.4,3.9-10.7,5.9-16.1c1-2.7,2-5.4,3-8.1
		c2-5.4,4-10.8,6.1-16.2c1.1-2.7,2.1-5.4,3.1-8.1c1.9-4.9,3.8-9.9,5.7-14.8c0.2-0.5,0.4-1,0.6-1.4c1.1-2.7,2.1-5.4,3.2-8.1
		c1.1-2.7,2.1-5.4,3.2-8.1c2.2-5.4,4.4-10.9,6.6-16.3l3.3-8.1c2.2-5.4,4.5-10.8,6.8-16.2c2.1-5,4.2-10.1,6.4-15.1
		c1.3-3.1,2.7-6.2,4-9.2c2.2-5,4.4-10.1,6.6-15.1l4.1-9.1c1.2-2.7,2.4-5.3,3.6-8c1.3-2.8,2.5-5.5,3.8-8.3c1.2-2.5,2.4-5.1,3.6-7.6
		c2.3-5,4.7-10,7.1-15c0.1-0.3,0.3-0.6,0.4-0.8c1.3-2.6,2.5-5.2,3.8-7.8c7.5-15.5,15.1-30.7,22.9-45.7c0.1-0.2,0.2-0.4,0.3-0.6
		c18.5-35.4,37.9-69.1,58.3-100.2c2.9-4.4,5.8-8.8,8.8-13.2c11.6-17,23.4-33.1,35.6-48.2c4.5-5.6,9-11,13.6-16.3
		c6-7,12.1-13.7,18.3-20.1l4.8-4.9c3.1-3.1,6.1-6.1,9.2-9.1c1.6-1.6,3.3-3.1,4.9-4.6c4.7-4.3,9.4-8.5,14.1-12.5
		c3.2-2.7,6.4-5.3,9.6-7.8c0.1-0.1,0.2-0.1,0.2-0.2c3.2-2.5,6.3-4.8,9.5-7.1s6.5-4.6,9.8-6.8c1.7-1.1,3.3-2.1,5-3.2s3.3-2,5-3
		s3.3-2,5-2.9s3.3-1.9,5-2.8s3.6-1.9,5.4-2.8c3.2-1.6,6.5-3.2,9.8-4.6c1.7-0.8,3.4-1.5,5.1-2.2l0.4-0.2c1,0.6,1.5,0.9,1.5,0.9
		s0.7-0.8,2.1-2.3l0.1,0c37.9-14.8,77.6-17.1,118.9-3.3c3.4,1.2,6.9,2.4,10.4,3.8l0,0c1.9,0.8,3.8,1.5,5.7,2.4l0,0
		c1.9,0.8,3.8,1.7,5.7,2.5l1.9,0.9c1.3,0.6,2.6,1.2,3.8,1.9c6,3,12,6.4,18.1,10.1c0.8,0.5,1.6,1,2.4,1.5c4.1,2.6,8.3,5.3,12.4,8.2
		c1.3,0.9,2.6,1.8,3.9,2.8l2,1.4l37.5,27.7c43.8,32.3,69.2,68.6,79.9,107.8c0.4,1.3,0.7,2.7,1,4c0.3,1.1,0.5,2.2,0.8,3.4
		C3262.5,714.5,3258.9,751.6,3246.5,789.8z"/>
	<path class="st6" d="M3192.6,580.4c-2.4-1.9-4.8-3.7-7.3-5.5l-37.5-27.7l-2-1.4c-1.3-0.9-2.6-1.9-3.9-2.8
		c-4.2-2.9-8.3-5.7-12.4-8.2c-0.8-0.5-1.6-1-2.4-1.5c-6.1-3.7-12.1-7.1-18.1-10.1c-1.3-0.6-2.5-1.3-3.8-1.9l-1.9-0.9
		c-1.9-0.9-3.8-1.7-5.7-2.6l0,0c-1.9-0.8-3.8-1.6-5.7-2.3l0,0c-3.5-1.4-6.9-2.6-10.4-3.8c-41.2-13.8-80.9-11.4-118.9,3.3
		c0,0-4,1.6-4.1,1.7c-1.7,0.7-3.4,1.4-5.1,2.2c-3.3,1.4-6.5,3-9.8,4.6c-1.8,0.9-3.6,1.8-5.4,2.8c-1.7,0.9-3.4,1.8-5,2.8
		s-3.3,1.9-5,2.9s-3.3,2-5,3.1s-3.3,2.1-5,3.2c-3.3,2.2-6.6,4.5-9.8,6.8c-3.2,2.3-6.3,4.7-9.5,7.1c-0.1,0.1-0.2,0.1-0.2,0.2
		c-3.2,2.5-6.4,5.1-9.6,7.8c-4.7,4-9.5,8.2-14.1,12.5c-1.6,1.5-3.3,3.1-4.9,4.6c-3.1,3-6.2,6-9.2,9.1c-1.6,1.7-3.2,3.3-4.8,4.9
		c-6.2,6.4-12.3,13.1-18.3,20.1c-4.6,5.3-9.1,10.7-13.6,16.3c-12.2,15.1-24,31.2-35.6,48.2c-3,4.3-5.9,8.7-8.8,13.2
		c-20.4,31.1-39.9,64.8-58.3,100.2c-0.1,0.2-0.2,0.4-0.3,0.6c-7.8,15-15.5,30.2-22.9,45.7c-1.2,2.6-2.5,5.2-3.8,7.8
		c-0.1,0.3-0.2,0.6-0.4,0.8c-2.4,5-4.7,10-7,15c-1.2,2.6-2.4,5.1-3.6,7.6c-1.2,2.8-2.5,5.5-3.8,8.3s-2.4,5.3-3.6,8
		c-1.4,3-2.7,6-4.1,9c-2.2,5-4.4,10.1-6.6,15.1c-1.3,3.1-2.7,6.1-4,9.2c-2.1,5-4.3,10-6.4,15.1c-2.3,5.4-4.5,10.8-6.8,16.2
		c-1.1,2.7-2.2,5.4-3.3,8.1c-2.2,5.4-4.4,10.9-6.6,16.3c-1.1,2.7-2.2,5.4-3.2,8.1s-2.1,5.4-3.2,8.1l-0.6,1.4
		c-1.9,4.9-3.8,9.9-5.7,14.8c-1,2.7-2.1,5.4-3.1,8.1c-2,5.4-4.1,10.8-6.1,16.2c-1,2.7-2,5.4-3,8.1c-2,5.3-4,10.7-5.9,16.1
		c-1,2.7-1.9,5.3-2.9,8s-1.9,5.3-2.9,8s-1.9,5.3-2.8,8l-2.8,7.9c-3,8.5-5.9,17-8.8,25.4c-1.6,4.5-3.1,9-4.6,13.5
		c-2.6,7.8-5.2,15.5-7.7,23.2c-0.9,2.5-1.7,5-2.5,7.6c-4.1,12.6-8.1,24.9-11.9,37c-0.8,2.3-1.5,4.7-2.2,7c-0.2,0.7-0.5,1.5-0.7,2.2
		c-0.8,2.4-1.5,4.8-2.2,7.2c-2.7,8.8-5.4,17.4-7.9,25.9c-0.6,2-1.2,4-1.8,6c-2.1,7.1-4.2,14-6.2,20.7c-0.8,2.9-1.7,5.7-2.5,8.5
		c-6.9,23.6-13,45.3-18.3,64.8c-0.5,1.8-1,3.5-1.4,5.2c-1,3.7-2,7.3-2.9,10.8c-0.6,2.3-1.2,4.5-1.8,6.7c-0.4,1.6-0.9,3.2-1.3,4.7
		c-0.3,0.9-0.5,1.9-0.8,2.8c-1.8,6.7-3.4,13-4.9,18.9l-0.6,2.3c-0.2,0.6-0.4,1.3-0.5,1.9c-0.3,1.2-0.6,2.3-0.9,3.5
		c-0.5,2-1,3.9-1.5,5.7c-0.1,0.6-0.3,1.2-0.4,1.7c-1.4,5.7-2.7,10.8-3.8,15.2c-0.2,0.8-0.4,1.7-0.6,2.5c-0.3,1.3-0.6,2.5-0.9,3.7
		l0,0c-0.3,1.1-0.5,2.1-0.8,3.1c-0.2,0.7-0.4,1.4-0.5,2s-0.3,1.2-0.4,1.7c-0.3,1.3-0.6,2.4-0.8,3.4c-0.1,0.6-0.2,1.1-0.4,1.6
		c-0.2,0.9-0.4,1.7-0.5,2.2c0,0,0,0.1,0,0.1l-12.7-9.4l0,0c0,0,0,0,0-0.1s0-0.2,0.1-0.4s0.1-0.3,0.1-0.5s0.1-0.3,0.1-0.5
		c0.1-0.5,0.2-1.1,0.4-1.8c0.1-0.4,0.2-0.9,0.4-1.5c0.3-1.1,0.6-2.4,0.9-3.8c0.1-0.4,0.2-0.7,0.3-1.1s0.2-0.8,0.3-1.2s0.2-0.7,0.2-1
		c0.2-0.9,0.5-1.9,0.7-3c0,0,0-0.1,0-0.2l0,0c0.1-0.3,0.1-0.6,0.2-0.9c0.5-2.1,1.1-4.4,1.7-7c0.5-2.2,1.1-4.5,1.7-7
		c0-0.1,0.1-0.3,0.1-0.4c0.3-1.2,0.6-2.4,0.9-3.6c0.2-0.8,0.4-1.7,0.6-2.6c0.1-0.6,0.3-1.1,0.4-1.7c0.3-1.4,0.7-2.8,1.1-4.2
		c0.1-0.5,0.2-1,0.4-1.5c0.3-1.1,0.6-2.3,0.9-3.5c0.2-0.7,0.3-1.3,0.5-1.9s0.4-1.6,0.6-2.3c1.5-5.8,3.1-12.2,4.9-18.9
		c0.2-0.9,0.5-1.9,0.8-2.8c0.4-1.6,0.8-3.1,1.3-4.7c0.6-2.2,1.2-4.4,1.8-6.7c1-3.5,1.9-7.1,2.9-10.8c0.4-1.7,0.9-3.5,1.4-5.2
		c5.3-19.5,11.4-41.2,18.3-64.8c0.8-2.8,1.7-5.7,2.5-8.5c2-6.8,4.1-13.7,6.2-20.7c0.6-2,1.2-4,1.8-6c2.6-8.4,5.2-17.1,7.9-25.9
		c0.7-2.4,1.5-4.8,2.2-7.2c0.2-0.7,0.5-1.5,0.7-2.2c0.7-2.3,1.4-4.7,2.2-7c3.8-12.1,7.8-24.4,11.9-37c0.8-2.5,1.6-5,2.5-7.6
		c2.5-7.7,5.1-15.4,7.7-23.2c1.5-4.5,3.1-9,4.6-13.5c2.9-8.4,5.8-16.9,8.8-25.4c0.9-2.6,1.9-5.3,2.8-7.9s1.9-5.3,2.8-7.9
		s1.9-5.3,2.9-8s1.9-5.3,2.9-8c1.9-5.4,3.9-10.7,5.9-16.1c1-2.7,2-5.4,3-8.1c2-5.4,4-10.8,6.1-16.2c1.1-2.7,2.1-5.4,3.1-8.1
		c1.9-4.9,3.8-9.9,5.7-14.8c0.2-0.5,0.4-1,0.6-1.4c1.1-2.7,2.1-5.4,3.2-8.1c1.1-2.7,2.1-5.4,3.2-8.1c2.2-5.4,4.4-10.9,6.6-16.3
		l3.3-8.1c2.2-5.4,4.5-10.8,6.8-16.2c2.1-5,4.2-10.1,6.4-15.1c1.3-3.1,2.7-6.2,4-9.2c2.2-5,4.4-10.1,6.6-15.1l4.1-9.1
		c1.2-2.7,2.4-5.3,3.6-8c1.3-2.8,2.5-5.5,3.8-8.3c1.2-2.5,2.4-5.1,3.6-7.6c2.3-5,4.7-10,7.1-15c0.1-0.3,0.3-0.6,0.4-0.8
		c1.3-2.6,2.5-5.2,3.8-7.8c7.5-15.5,15.1-30.7,22.9-45.7c0.1-0.2,0.2-0.4,0.3-0.6c18.5-35.4,37.9-69.1,58.3-100.2
		c2.9-4.4,5.8-8.8,8.8-13.2c11.6-17,23.4-33.1,35.6-48.2c4.5-5.6,9-11,13.6-16.3c6-7,12.1-13.7,18.3-20.1l4.8-4.9
		c3.1-3.1,6.1-6.1,9.2-9.1c1.6-1.6,3.3-3.1,4.9-4.6c4.7-4.3,9.4-8.5,14.1-12.5c3.2-2.7,6.4-5.3,9.6-7.8c0.1-0.1,0.2-0.1,0.2-0.2
		c3.2-2.5,6.3-4.8,9.5-7.1s6.5-4.6,9.8-6.8c1.7-1.1,3.3-2.1,5-3.2s3.3-2,5-3s3.3-2,5-2.9s3.3-1.9,5-2.8s3.6-1.9,5.4-2.8
		c2.9-1.5,5.8-2.9,8.8-4.2c0.3-0.2,0.7-0.3,1-0.5c0.5-0.2,1-0.5,1.6-0.7l1-0.4c0.9-0.4,1.7-0.7,2.6-1.1l0.4-0.2
		c1,0.6,1.5,0.9,1.5,0.9s0.7-0.8,2.1-2.3c1.3-0.5,2.6-1,3.9-1.5l2-0.7l2-0.7c25.9-8.9,52.6-11.9,80.1-7.9l0,0
		c2.3,0.3,4.5,0.7,6.8,1.1c5.1,0.9,10.2,2.1,15.3,3.6c1.8,0.5,3.6,1,5.4,1.6c1.2,0.4,2.3,0.7,3.5,1.1c3.4,1.2,6.9,2.4,10.4,3.8l0,0
		c1.9,0.8,3.8,1.5,5.7,2.4l0,0c1.9,0.8,3.8,1.7,5.7,2.5l1.9,0.9c1.3,0.6,2.6,1.2,3.8,1.9c6,3,12,6.4,18.1,10.1
		c0.8,0.5,1.6,1,2.4,1.5c4.1,2.6,8.3,5.3,12.4,8.2c1.3,0.9,2.6,1.8,3.9,2.8l2,1.4l37.5,27.7c5.3,3.9,10.3,7.9,15.1,11.9
		c0.8,0.7,1.6,1.3,2.3,2l0,0C3191.1,579,3191.9,579.7,3192.6,580.4z"/>
	<path class="st5" d="M3175,824.4c-7.4,5-13.4,11.8-17.7,19.6c-1,1.9-4.3,19.7-7.1,35.7c-76.7,136.7-264.8,282.6-403.1,377.4
		l-3.3-8.1l-1.3,11.3c-41.1,28.1-77.5,51.5-105,68.7c-32.7,20.4-52.8,32.1-52.9,32.2l-11.5-8.5l-18.9-14c0,0,0,0,0-0.1l0,0
		c0-0.1,0-0.2,0.1-0.3l0,0c0-0.1,0.1-0.2,0.1-0.4c0.1-0.5,0.2-1.1,0.4-1.8c0.1-0.4,0.2-0.8,0.3-1.3c0.2-0.8,0.4-1.7,0.6-2.7
		c0.1-0.4,0.2-0.9,0.3-1.4s0.3-1.1,0.4-1.7c0.2-0.8,0.4-1.6,0.6-2.5l0,0c0.2-1,0.4-2,0.7-3c0.2-0.7,0.3-1.3,0.5-2
		c0.9-3.6,1.9-7.7,3.1-12.3c0.1-0.5,0.2-0.9,0.4-1.4c0.4-1.5,0.8-3,1.2-4.6c0.2-0.9,0.4-1.8,0.7-2.8c0.1-0.5,0.3-1.1,0.4-1.6
		s0.3-1.3,0.5-1.9c1.2-4.7,2.5-9.9,4-15.3c0.2-0.8,0.4-1.5,0.6-2.3c0.3-1.3,0.7-2.5,1-3.8c0.5-1.8,0.9-3.6,1.4-5.4
		c0.8-2.8,1.6-5.8,2.4-8.8c0.4-1.4,0.8-2.8,1.1-4.3c4.3-15.8,9.3-33.4,14.9-52.5c0.7-2.3,1.3-4.6,2-6.9c1.6-5.5,3.3-11.1,5-16.8
		l1.5-4.8c2.1-6.8,4.2-13.8,6.4-21c0.6-1.9,1.2-3.9,1.8-5.8c0.2-0.6,0.4-1.2,0.6-1.8c0.6-1.9,1.2-3.8,1.8-5.7
		c3.1-9.8,6.3-19.8,9.6-29.9c0.6-2.1,1.3-4.1,2-6.1c2-6.2,4.1-12.5,6.2-18.8c1.2-3.6,2.5-7.3,3.7-10.9c2.3-6.8,4.7-13.7,7.1-20.6
		c0.8-2.1,1.5-4.3,2.3-6.4s1.5-4.3,2.3-6.4s1.6-4.3,2.3-6.5s1.6-4.3,2.4-6.5c1.6-4.3,3.2-8.7,4.8-13l2.4-6.5
		c1.6-4.4,3.3-8.8,4.9-13.1l2.5-6.6c1.5-4,3.1-8,4.6-12c0.1-0.4,0.3-0.8,0.4-1.2c0.9-2.2,1.7-4.4,2.6-6.6s1.7-4.4,2.6-6.6
		c1.8-4.4,3.5-8.8,5.3-13.2c0.9-2.2,1.8-4.4,2.7-6.6c1.8-4.4,3.6-8.8,5.5-13.2c1.7-4.1,3.4-8.2,5.2-12.2c1.1-2.5,2.1-5,3.2-7.5
		c1.8-4.1,3.6-8.2,5.4-12.2c1.1-2.5,2.2-4.9,3.3-7.3c1-2.2,1.9-4.3,2.9-6.5s2-4.5,3-6.7c1-2.1,1.9-4.1,2.9-6.2
		c1.9-4,3.8-8.1,5.7-12.1c0.1-0.2,0.2-0.5,0.3-0.7c1-2.1,2-4.2,3-6.3c6-12.5,12.2-24.9,18.6-37c0.1-0.1,0.2-0.3,0.3-0.5
		c15-28.7,30.7-56,47.2-81.2c2.4-3.6,4.7-7.2,7.1-10.7c9.4-13.8,19-26.8,28.8-39.1c3.7-4.5,7.3-8.9,11-13.2
		c4.9-5.7,9.8-11.1,14.8-16.3c1.3-1.3,2.6-2.7,3.9-4c2.5-2.5,5-5,7.5-7.3c1.3-1.3,2.6-2.5,4-3.8c3.8-3.5,7.6-6.9,11.4-10.1
		c2.6-2.2,5.2-4.3,7.8-6.3c0.1-0.1,0.1-0.1,0.2-0.2c2.6-2,5.1-3.9,7.7-5.8s5.3-3.7,8-5.5c1.4-0.9,2.7-1.7,4-2.6s2.7-1.7,4-2.5
		s2.7-1.6,4-2.4s2.7-1.5,4.1-2.2s2.9-1.5,4.4-2.3c2.6-1.3,5.3-2.6,7.9-3.8c1.4-0.6,2.8-1.2,4.1-1.8c0.1-0.1,0.2-0.1,0.3-0.2l1.2,0.7
		l1.7-1.9h0.1c30.7-12,62.9-13.8,96.3-2.7c2.8,0.9,5.6,2,8.4,3.1l0,0c1.5,0.6,3.1,1.2,4.6,1.9l0,0c1.5,0.7,3.1,1.4,4.6,2.1l1.6,0.7
		c1,0.5,2.1,1,3.1,1.5c4.9,2.4,9.7,5.1,14.7,8.2l2,1.2c3.3,2.1,6.7,4.3,10.1,6.7c1.1,0.7,2.1,1.5,3.2,2.3c0.5,0.4,1.1,0.8,1.6,1.2
		l30.4,22.4c35.4,26.2,56.1,55.6,64.7,87.3c0.3,1.1,0.6,2.2,0.8,3.2c0.2,0.9,0.4,1.8,0.6,2.7C3187.9,763.5,3185,793.5,3175,824.4z"
		/>
	<path class="st6" d="M3175,824.4c-7.4,5-13.4,11.8-17.7,19.6c-1,1.9-4.3,19.7-7.1,35.7c-76.7,136.7-264.8,282.6-403.1,377.4
		l-4.6,3.1c-41.1,28.1-77.5,51.5-105,68.7c-32.7,20.4-52.8,32.1-52.9,32.2l-11.5-8.5l-18.9-14c0,0,0,0,0-0.1l0,0
		c0-0.1,0-0.2,0.1-0.3l0,0c0-0.1,0.1-0.2,0.1-0.4c0.1-0.5,0.2-1.1,0.4-1.8c0.1-0.4,0.2-0.8,0.3-1.3c0.2-0.8,0.4-1.7,0.6-2.7
		c0.1-0.4,0.2-0.9,0.3-1.4s0.3-1.1,0.4-1.7c0.2-0.8,0.4-1.6,0.6-2.5l0,0c0.2-1,0.4-2,0.7-3c0.2-0.7,0.3-1.3,0.5-2
		c0.9-3.6,1.9-7.7,3.1-12.3c0.1-0.5,0.2-0.9,0.4-1.4c0.4-1.5,0.8-3,1.2-4.6c0.2-0.9,0.4-1.8,0.7-2.8c0.1-0.5,0.3-1.1,0.4-1.6
		s0.3-1.3,0.5-1.9c1.2-4.7,2.5-9.9,4-15.3c0.2-0.8,0.4-1.5,0.6-2.3c0.3-1.3,0.7-2.5,1-3.8c0.5-1.8,0.9-3.6,1.4-5.4
		c0.8-2.8,1.6-5.8,2.4-8.8c0.4-1.4,0.8-2.8,1.1-4.3c4.3-15.8,9.3-33.4,14.9-52.5c0.7-2.3,1.3-4.6,2-6.9c1.6-5.5,3.3-11.1,5-16.8
		l1.5-4.8c2.1-6.8,4.2-13.8,6.4-21c0.6-1.9,1.2-3.9,1.8-5.8c0.2-0.6,0.4-1.2,0.6-1.8c0.6-1.9,1.2-3.8,1.8-5.7
		c3.1-9.8,6.3-19.8,9.6-29.9c0.6-2.1,1.3-4.1,2-6.1c2-6.2,4.1-12.5,6.2-18.8c1.2-3.6,2.5-7.3,3.7-10.9c2.3-6.8,4.7-13.7,7.1-20.6
		c0.8-2.1,1.5-4.3,2.3-6.4s1.5-4.3,2.3-6.4s1.6-4.3,2.3-6.5s1.6-4.3,2.4-6.5c1.6-4.3,3.2-8.7,4.8-13l2.4-6.5
		c1.6-4.4,3.3-8.8,4.9-13.1l2.5-6.6c1.5-4,3.1-8,4.6-12c0.1-0.4,0.3-0.8,0.4-1.2c0.9-2.2,1.7-4.4,2.6-6.6s1.7-4.4,2.6-6.6
		c1.8-4.4,3.5-8.8,5.3-13.2c0.9-2.2,1.8-4.4,2.7-6.6c1.8-4.4,3.6-8.8,5.5-13.2c1.7-4.1,3.4-8.2,5.2-12.2c1.1-2.5,2.1-5,3.2-7.5
		c1.8-4.1,3.6-8.2,5.4-12.2c1.1-2.5,2.2-4.9,3.3-7.3c1-2.2,1.9-4.3,2.9-6.5s2-4.5,3-6.7c1-2.1,1.9-4.1,2.9-6.2
		c1.9-4,3.8-8.1,5.7-12.1c0.1-0.2,0.2-0.5,0.3-0.7c1-2.1,2-4.2,3-6.3c6-12.5,12.2-24.9,18.6-37c0.1-0.1,0.2-0.3,0.3-0.5
		c15-28.7,30.7-56,47.2-81.2c2.4-3.6,4.7-7.2,7.1-10.7c9.4-13.8,19-26.8,28.8-39.1c3.7-4.5,7.3-8.9,11-13.2
		c4.9-5.7,9.8-11.1,14.8-16.3c1.3-1.3,2.6-2.7,3.9-4c2.5-2.5,5-5,7.5-7.3c1.3-1.3,2.6-2.5,4-3.8c3.8-3.5,7.6-6.9,11.4-10.1
		c2.6-2.2,5.2-4.3,7.8-6.3c0.1-0.1,0.1-0.1,0.2-0.2c2.6-2,5.1-3.9,7.7-5.8s5.3-3.7,8-5.5c1.4-0.9,2.7-1.7,4-2.6s2.7-1.7,4-2.5
		s2.7-1.6,4-2.4s2.7-1.5,4.1-2.2s2.9-1.5,4.4-2.3c2.6-1.3,5.3-2.6,7.9-3.8c1.4-0.6,2.8-1.2,4.1-1.8c0.1-0.1,0.2-0.1,0.3-0.2l1.2,0.7
		l1.7-1.9h0.1c30.7-12,62.9-13.8,96.3-2.7c2.8,0.9,5.6,2,8.4,3.1l0,0c1.5,0.6,3.1,1.2,4.6,1.9l0,0c1.5,0.7,3.1,1.4,4.6,2.1l1.6,0.7
		c1,0.5,2.1,1,3.1,1.5c4.9,2.4,9.7,5.1,14.7,8.2l2,1.2c3.3,2.1,6.7,4.3,10.1,6.7c1.1,0.7,2.1,1.5,3.2,2.3c0.5,0.4,1.1,0.8,1.6,1.2
		l30.4,22.4c35.4,26.2,56.1,55.6,64.7,87.3c0.3,1.1,0.6,2.2,0.8,3.2c0.2,0.9,0.4,1.8,0.6,2.7C3187.9,763.5,3185,793.5,3175,824.4z"
		/>
	<polygon class="st7" points="2718.5,1323.8 2714.4,1313.8 2712.8,1327.7 2709.1,1307.1 2710.7,1293.2 2714.7,1303.3 	"/>
	<path class="st8" d="M3246.5,789.8c-9.1,6.2-16.5,14.5-21.8,24.1c-1.2,2.3-5.3,24.4-8.8,44c-94.6,168.8-326.8,348.8-497.5,465.9
		l-3.7-20.6c170.7-117.1,402.9-297.1,497.5-465.9c3.5-19.7,7.6-41.7,8.8-44c5.3-9.6,12.7-17.9,21.8-24.1c10.4-32,14.6-63.2,11-93
		c0.3,1.1,0.5,2.2,0.8,3.4C3262.5,714.5,3258.9,751.6,3246.5,789.8z"/>
	<path class="st9" d="M3254.6,679.6c-0.6-2.5-1.1-4.9-1.8-7.4c-9-32.8-28.3-63.7-60.1-91.8c-0.8-0.7-1.5-1.4-2.3-2l0,0
		c-0.8-0.7-1.5-1.3-2.3-2c-4.8-4-9.8-8-15.1-11.9l-37.5-27.7l-2-1.4c-1.3-1-2.6-1.9-3.9-2.8c-4.2-2.9-8.3-5.7-12.4-8.2
		c-0.8-0.5-1.6-1-2.4-1.5c-6.1-3.7-12.1-7.1-18.1-10.1c-1.3-0.7-2.6-1.3-3.8-1.9l-1.9-0.9c-1.9-0.9-3.8-1.7-5.7-2.5l0,0
		c-1.9-0.8-3.8-1.6-5.7-2.4l0,0c-3.5-1.4-6.9-2.6-10.4-3.8c-1.2-0.4-2.3-0.8-3.5-1.1c-1.8-0.6-3.6-1.1-5.4-1.6
		c-5.1-1.4-10.2-2.6-15.3-3.6c-2.3-0.4-4.5-0.8-6.8-1.1l0,0c-27.4-3.9-54.2-0.9-80.1,7.9l-2,0.7l-2,0.7c-1.3,0.5-2.6,1-3.9,1.5
		l9.9-29.1c54-16.6,111.5-7.6,171.8,36.9l37.5,27.7C3224.7,581,3250.7,628.4,3254.6,679.6z"/>
	<path class="st9" d="M2950.7,478.7l-4.2,27.4c-1,0.4-2,0.8-3,1.3l-1,0.4l-2.6,1.2c-238.5,108.3-405.8,703.6-448.7,871.5
		c-0.1,0.5-0.2,1-0.4,1.5c-0.8,3-1.5,5.8-2.2,8.5c-0.3,1.2-0.6,2.4-0.9,3.6c0,0.1-0.1,0.3-0.1,0.4c-0.6,2.5-1.2,4.8-1.7,7
		c-0.6,2.5-1.2,4.9-1.7,7c-0.1,0.3-0.1,0.6-0.2,0.9c0,0,0,0.1,0,0.2c-0.3,1.4-0.7,2.7-1,3.9c-0.1,0.4-0.2,0.8-0.3,1.2
		s-0.2,0.8-0.3,1.1c-0.4,1.5-0.6,2.7-0.9,3.8l-0.4,1.5c-0.2,0.7-0.3,1.3-0.4,1.8c0,0.2-0.1,0.4-0.1,0.5s-0.1,0.4-0.1,0.5
		s-0.1,0.4-0.1,0.4c0,0,0,0.1,0,0.1l0,0c-2.9-7.8-4.1-16.1-3.6-24.3c0,0,28.8-125.7,81.1-284.8c0.1-0.4,0.3-0.9,0.4-1.3
		c7.4-1.2,12.5-8,16.1-16.8l0.4-0.9c0.2-0.6,0.4-1.1,0.6-1.7c3.4-10.1,2.1-20-2.4-24.2c0.1-0.3,0.2-0.6,0.3-0.9
		C2655.8,830.1,2787.1,538.2,2950.7,478.7z"/>
	<path class="st10" d="M2529.7,1436.1l362.9-491.8l-359.6,495c-0.8-0.8-1.6-1.6-2.5-2.4L2529.7,1436.1z"/>
	<polygon class="st10" points="2892.6,944.2 2892.6,944.2 2892.6,944.3 	"/>
	<path class="st10" d="M2505,1417.3l28.1,21.9l-50.6-33.6l65.6-73l4.1-0.5l-3.1-0.9L2943.4,797c5.4-7.3,13.5-12.2,22.5-13.5
		c0.7,4.9,3.4,9.3,7.4,12.3c2,1.4,4.2,2.5,6.6,3.1c-1.7,3.2-3.6,6.3-5.8,9.2L2505,1417.3z"/>
	<path class="st10" d="M2980.9,824.6c1.6-2.2,3-4.6,4-7.1c-1.1,2.6-2.4,5-4.1,7.2l-71.7,97.1l71.7-97.1
		C2980.9,824.6,2980.9,824.6,2980.9,824.6z"/>
	<path class="st10" d="M2984.9,817.5c0.7-1.7,1.2-3.4,1.7-5.1C2986.2,814.1,2985.6,815.8,2984.9,817.5z"/>
	<path class="st10" d="M2987.3,808.4c-0.2,1.3-0.4,2.6-0.7,3.9C2986.9,811.1,2987.1,809.8,2987.3,808.4z"/>
	<path class="st5" d="M2965.8,783.5c-24,33.7-60.6,84.8-106.1,146.7c-34.4,46.7-40,53.6-85.6,114.6
		c-119.9,160.8-148.9,204.3-219.2,291.1c-23.1,28.6-43.7,52.1-57.2,67.8l9.2-25.1l0,0l41.3-45.9l4.1-0.5l-3.1-0.9L2943.4,797
		C2948.8,789.7,2956.9,784.8,2965.8,783.5z"/>
	
		<linearGradient id="SVGID_00000159438328521436633810000009550339071953578410_" gradientUnits="userSpaceOnUse" x1="2520.5298" y1="2578.2302" x2="2533.9597" y2="2598.9802" gradientTransform="matrix(1 0 0 -1 0 4000)">
		<stop  offset="0.16" style="stop-color:#B78869"/>
		<stop  offset="1" style="stop-color:#A0735A"/>
	</linearGradient>
	<path style="fill:url(#SVGID_00000159438328521436633810000009550339071953578410_);" d="M2529.7,1436.1
		c-0.1,0-24.7-18.8-24.7-18.8l23-29.9L2529.7,1436.1z"/>
	<path class="st12" d="M2987.3,808.4c-0.2,1.3-0.4,2.6-0.7,3.9c-0.4,1.7-1,3.5-1.7,5.1c-1,2.5-2.4,4.9-4,7.1c0,0,0,0.1-0.1,0.1
		l-71.7,97.1l-45.1,48.4l28.5-25.9l-362.9,491.8l-1.7-48.7l446-579.2c2.2-2.9,4.1-6,5.8-9.2l0,0c1.1,0.3,2.2,0.4,3.4,0.5
		c1.3,0.1,2.7,0,4-0.2C2987.6,802.3,2987.7,805.4,2987.3,808.4z"/>
	<polygon class="st12" points="2864.1,970.2 2892.6,944.2 2892.6,944.3 	"/>
	<path class="st13" d="M2892.6,944.2l-359.6,495c-0.8-0.8-1.6-1.6-2.5-2.4l-0.9-0.8L2892.6,944.2z"/>
	<path class="st3" d="M2575.4,1094.8c-0.2,0.6-0.4,1.1-0.6,1.7l-0.4,0.9c-3.6,8.8-8.6,15.6-16.1,16.8c4.2-5.2,7.7-11,10.3-17.2
		c3.2-8.4,4.7-17.3,4.4-26.3C2577.5,1074.7,2578.8,1084.7,2575.4,1094.8z"/>
	<path class="st14" d="M782.6,3682.8L782.6,3682.8c-0.5,0.7-0.9,1.4-1.4,2.1s-0.9,1.4-1.4,2.1l-11.2,4.3l9.7-2.2
		c-0.3,0.4-0.6,0.8-0.9,1.2c-0.5,0.6-1,1.3-1.5,1.9s-1,1.2-1.5,1.8s-1.1,1.2-1.6,1.8s-1.3,1.4-1.9,2s-1.3,1.3-1.9,1.9
		s-1.3,1.2-2,1.8c-0.4,0.4-0.9,0.8-1.4,1.2l0,0c-0.4,0.3-0.8,0.6-1.2,1l0,0c-7.2,5.7-14.1,8.4-18.5,6.7c-0.5-0.3-1-0.6-1.5-0.8
		c-4.1-3-4-10.6-0.6-19.9c2.5-2.9,4.5-6.1,6-9.5c0.6-1.5,1-3.1,1.2-4.7c1.1-1.7,2.2-3.4,3.5-5.1c12.3-16.7,27.8-26.2,34.6-21.2
		c1.6,1.3,2.7,3.2,2.9,5.3l0,0C793.1,3661,789.6,3671.8,782.6,3682.8z"/>
	
		<linearGradient id="SVGID_00000077303380682440693040000014240504232577435836_" gradientUnits="userSpaceOnUse" x1="825.1399" y1="1423.4597" x2="2533.05" y2="1423.4597" gradientTransform="matrix(1 0 0 -1 0 4000)">
		<stop  offset="0.85" style="stop-color:#F9B87E"/>
		<stop  offset="0.87" style="stop-color:#ECAD76"/>
		<stop  offset="0.9" style="stop-color:#DEA06E"/>
		<stop  offset="0.94" style="stop-color:#D69869"/>
		<stop  offset="1" style="stop-color:#D39667"/>
	</linearGradient>
	<path style="fill:url(#SVGID_00000077303380682440693040000014240504232577435836_);" d="M2533.1,1439.2c-1.9,2.4-3.9,4.8-5.8,7.3
		l-0.2,0.3c-42.3,53-84.3,106.5-126,160.7c-1.9,2.5-3.9,5-5.8,7.6l0,0c-3.4,4.5-6.9,9-10.3,13.5c-0.7,0.9-1.4,1.8-2.1,2.8
		c-1.1,1.4-2.2,2.9-3.3,4.3c-11,14.4-21.9,28.9-32.9,43.4c-0.3,0.5-0.7,0.9-1,1.3l0,0l-0.1,0.2l-2.8,3.7
		c-7.3,9.7-14.5,19.4-21.8,29.1l0,0c-0.3,0.4-0.6,0.7-0.8,1.1c-1,1.4-2.1,2.8-3.1,4.2c-2.8,3.7-5.6,7.5-8.4,11.2l0,0
		c0,0-0.1,0.1-0.1,0.2l-5,6.8c-5.6,7.6-11.3,15.2-16.9,22.9l-1.2,1.6l-1.4,1.9c-7.7,10.4-15.3,20.9-23,31.5c-1,1.3-2,2.7-3,4.1
		c-3.2,4.5-6.5,9-9.7,13.4c-4.5,6.3-9,12.5-13.5,18.8c-96.8,134.8-186,263.6-186,263.6c-176.8,256.2-263.9,401-598.4,871.9
		c-9.3,13.1-18.6,26.2-27.8,39.1c-1.8,2.6-3.7,5.2-5.6,7.8c-1.2,1.7-2.4,3.4-3.6,5.1c-20.5,28.8-40.8,57.1-60.7,84.9
		c-2.4,3.4-4.9,6.8-7.3,10.2c-2.8,3.9-5.7,7.9-8.5,11.8c-5.2,7.3-10.5,14.5-15.7,21.8c-2.1,2.9-4.1,5.8-6.2,8.6
		c-3.5,4.8-6.9,9.6-10.4,14.4c-2.2,3.1-4.4,6.1-6.6,9.2c-2.6,3.6-5.1,7.1-7.7,10.6c-12.7,17.7-25.3,35.1-37.8,52.3
		c-2.5,3.4-5,6.9-7.4,10.3l-16.4,22.6c-1.9,2.6-3.8,5.3-5.7,7.9c-1.4,1.9-2.7,3.8-4.1,5.6l0,0c-1,1.5-2.1,2.9-3.2,4.4
		c-2.2,3-4.4,6-6.6,9l0,0c-0.2,0.3-0.5,0.6-0.7,0.9c-4.8,6.6-9.6,13.2-14.4,19.8c-2.3,3.2-4.6,6.3-6.9,9.5c-1.1,1.6-2.3,3.1-3.4,4.7
		s-2.3,3.1-3.4,4.7c-0.1,0.2-0.3,0.4-0.4,0.6c-4.7,6.5-9.3,12.9-14,19.2l-13.6,18.7l-7.1,9.7l-6.8,9.3l-7.9,10.9
		c-4.8,6.5-9.6,13-14.3,19.5c-3.4,4.7-6.8,9.3-10.2,13.9c-0.3,0.5-0.7,0.9-1,1.4l-9.9,13.5c-1.1,1.4-2.1,2.9-3.2,4.3
		c-9.5,13-18.9,25.7-28.1,38.3c-4.2,5.7-8.4,11.4-12.6,17c-5.5,7.5-11,15-16.5,22.3l0,0l-0.5,0.6c-2.5,3.5-5.1,6.9-7.6,10.3l0,0
		c-1.1,1.5-2.2,3-3.3,4.4l-3.3,4.5c-0.9,1.2-1.7,2.4-2.6,3.5l-6.7,9.1l0,0c-1.3,1.8-2.6,3.6-3.9,5.3l-7.8,10.5l0,0
		c-0.5,0.7-1,1.4-1.5,2c-0.8,1.1-1.6,2.1-2.3,3.2l0,0c-0.3,0.4-0.7,0.9-1,1.3c-2.2,3-4.4,6-6.7,9l0,0c-0.2,0.3-0.5,0.6-0.7,1
		l-5.5,7.4c-1.7,2.3-3.4,4.6-5.1,6.9l0,0l-11.2,15.1l0,0l0,0c-1.2,1.6-2.4,3.3-3.6,4.9s-2.4,3.3-3.6,4.9l0,0
		c-1.2,1.6-2.4,3.2-3.6,4.8s-2.4,3.2-3.6,4.8l0,0c-1.2,1.6-2.4,3.2-3.5,4.8l-7,9.5l0,0l-3.5,4.6l0,0l0,0c-1.1,1.5-2.3,3.1-3.4,4.6
		c-2.3,3.1-4.6,6.2-6.9,9.2l0,0c-1.1,1.5-2.3,3-3.4,4.5l0,0c-0.8,1.1-1.7,2.2-2.5,3.4c-1.4,1.9-2.8,3.8-4.2,5.6l0,0l-3.3,4.4l0,0
		c-1.1,1.5-2.2,2.9-3.3,4.4l0,0c-0.6,0.7-1.1,1.5-1.6,2.2s-1.1,1.5-1.6,2.2l0,0c-1.1,1.4-2.1,2.9-3.2,4.3l0,0l0,0
		c-1.1,1.4-2.1,2.9-3.2,4.3l0,0c-1.1,1.4-2.1,2.8-3.2,4.2l0,0l0,0c-1.1,1.4-2.1,2.8-3.2,4.2l0,0c-1.1,1.4-2.1,2.8-3.1,4.2l0,0l0,0
		c-1,1.4-2.1,2.8-3.1,4.1l0,0c-1,1.4-2.1,2.7-3.1,4.1l0,0c-1,1.4-2,2.7-3,4.1l0,0c-45.9,6.5-56.2-41.4-56.2-41.4
		c276.2-371.4,472.5-644.4,603.6-828.7c139.9-196.6,233.5-331.6,307.6-440l27.3-29.6l3.3-3.5l-0.1,0.1l0,0l-18.9,16.1l0,0l0,0
		c2.8-4.1,5.6-8.2,8.4-12.3c2.7-3.9,5.3-7.8,8-11.7c1.3-1.9,2.6-3.9,3.9-5.8l2.8-4c0.4-0.6,0.8-1.1,1.1-1.7l0,0
		c0.2-0.2,0.3-0.5,0.5-0.7l3.4-5l0,0c0.2-0.3,0.4-0.6,0.6-0.9c1.1-1.6,2.1-3.2,3.2-4.8l0,0c0.3-0.4,0.5-0.8,0.8-1.2
		c0.8-1.2,1.7-2.4,2.5-3.6c0.7-1,1.3-1.9,2-2.9s1.3-1.9,2-2.9c0.1-0.2,0.2-0.4,0.4-0.6l0,0c0.3-0.5,0.6-0.9,0.9-1.4
		c0.9-1.4,1.8-2.8,2.8-4.1l0,0l0.8-1.2c0.9-1.4,1.9-2.8,2.9-4.2l0,0c0.3-0.5,0.7-1,1-1.4c1.3-1.9,2.6-3.9,3.9-5.8s2.6-3.8,3.9-5.7
		c0.7-1.1,1.5-2.2,2.2-3.3l0,0c0.5-0.8,1-1.5,1.5-2.2s1-1.5,1.5-2.2c4.5-6.6,8.9-13.2,13.3-19.6c0.5-0.8,1.1-1.6,1.6-2.4l0,0
		c0.4-0.6,0.8-1.2,1.2-1.8c0.6-0.9,1.2-1.7,1.7-2.6c0.2-0.3,0.4-0.6,0.6-0.8l0,0c4.3-6.4,8.7-12.8,12.9-19.1l3.6-5.3l0.9-1.3
		l6.4-9.5c2.4-3.6,4.8-7.2,7.3-10.8c3.4-5,6.8-10,10.1-14.9c5.8-8.6,11.7-17.3,17.5-25.9l6.4-9.4c2.9-4.3,5.9-8.7,8.8-13
		c2.6-3.9,5.3-7.8,7.9-11.7c4-6,8.1-12,12.2-18c1.6-2.3,3.1-4.5,4.6-6.8c8-11.7,16.1-23.6,24.4-35.6c1.4-2.1,2.8-4.1,4.2-6.2
		c10-14.5,20.2-29.3,30.8-44.6c0,0,83.5-120,172.6-243.8c98.8-137.5,208.7-277.7,325.1-421.8c3,1.3,6,2.7,9.1,4.2
		c1.7,0.8,3.4,1.7,5.1,2.6c2.2,1.2,4.4,2.4,6.6,3.8c0.6,0.4,1.2,0.7,1.7,1c1.3,0.8,2.6,1.6,4,2.5c2,1.3,4,2.7,6,4.2
		c1.6,1.1,3.1,2.3,4.7,3.5c1.5,1.2,3,2.4,4.5,3.7c0.9,0.8,1.9,1.6,2.8,2.4s1.9,1.7,2.8,2.5l0.9,0.8
		C2531.4,1437.6,2532.2,1438.4,2533.1,1439.2z"/>
	
		<linearGradient id="SVGID_00000044177086733889411100000011465948626152510615_" gradientUnits="userSpaceOnUse" x1="1250.8113" y1="881.6263" x2="2907.1211" y2="3193.4062" gradientTransform="matrix(1 0 0 -1 0 4000)">
		<stop  offset="0" style="stop-color:#FCCCA7"/>
		<stop  offset="0.31" style="stop-color:#FACAA4"/>
		<stop  offset="0.49" style="stop-color:#F2C29C"/>
		<stop  offset="0.64" style="stop-color:#E5B58E"/>
		<stop  offset="0.78" style="stop-color:#D3A27A"/>
		<stop  offset="0.9" style="stop-color:#BC8B60"/>
		<stop  offset="0.9" style="stop-color:#BB8A5F"/>
	</linearGradient>
	<path style="fill:url(#SVGID_00000044177086733889411100000011465948626152510615_);" d="M2506.9,1378.6l-9.2,25.1
		c-2.5,2.9-4.7,5.4-5.6,6.4l-1.2,1.5l0,0c-114.6,142-222.8,280.3-320.3,415.8c-89,123.8-172.6,243.8-172.6,243.8
		c-10.6,15.3-20.8,30.1-30.8,44.6c-1.4,2.1-2.8,4.1-4.2,6.2c-8.3,12.1-16.4,23.9-24.4,35.6c-1.6,2.3-3.1,4.5-4.6,6.8
		c-4.1,6-8.2,12-12.2,18c-2.7,3.9-5.3,7.8-7.9,11.7c-3,4.3-5.9,8.7-8.8,13l-6.4,9.4c-5.9,8.6-11.7,17.2-17.5,25.9
		c-3.3,5-6.7,9.9-10.1,14.9l-7.3,10.8l-6.4,9.5c-0.3,0.4-0.6,0.9-0.9,1.3l-3.6,5.3c-4.3,6.3-8.6,12.7-12.9,19.1l0,0
		c-0.2,0.3-0.4,0.6-0.6,0.8c-0.6,0.9-1.1,1.7-1.7,2.6c-0.4,0.6-0.8,1.2-1.2,1.8l0,0c-0.5,0.8-1.1,1.6-1.6,2.4
		c-4.4,6.5-8.8,13-13.3,19.6c-0.5,0.7-1,1.5-1.5,2.2s-1,1.5-1.5,2.2l0,0c-0.8,1.1-1.5,2.2-2.2,3.3c-1.3,1.9-2.6,3.8-3.9,5.7
		s-2.6,3.8-3.9,5.8c-0.3,0.5-0.7,1-1,1.4l0,0l-2.9,4.2l-0.8,1.2l0,0c-0.9,1.4-1.9,2.7-2.8,4.1c-0.3,0.5-0.6,0.9-0.9,1.4l0,0
		c-0.1,0.2-0.3,0.4-0.4,0.6c-0.6,1-1.3,1.9-1.9,2.9s-1.3,1.9-2,2.9c-0.8,1.2-1.7,2.4-2.5,3.6c-0.3,0.4-0.5,0.8-0.8,1.2l0,0
		c-1.1,1.6-2.2,3.2-3.2,4.8c-0.2,0.3-0.4,0.6-0.6,0.9l0,0l-3.4,5c-0.2,0.2-0.3,0.5-0.5,0.7l0,0c-0.4,0.6-0.8,1.1-1.1,1.7
		c-0.9,1.3-1.8,2.7-2.8,4c-1.3,1.9-2.6,3.9-3.9,5.8c-2.6,3.9-5.3,7.8-8,11.7s-5.5,8.1-8.4,12.3l0,0l0,0l-11.5,16.9
		c-74.1,108.4-167.7,243.4-307.6,440c-129.6,182.2-594,815.2-594,815.2l0,0c-2.2-0.9-4.4-1.8-6.5-2.9l-1.1-0.6l-1-0.5l-0.8-0.5
		c269.1-362.1,461.2-629.3,590.1-810.6c139.9-196.6,233.5-331.6,307.6-440l27.3-29.6l3.3-3.5l-0.1,0.1l0,0l-18.9,16.1l0,0l0,0
		c2.8-4.1,5.6-8.2,8.4-12.3c2.7-3.9,5.3-7.8,8-11.7c1.3-1.9,2.6-3.9,3.9-5.8l2.8-4c0.4-0.6,0.8-1.1,1.1-1.7l0,0
		c0.2-0.2,0.3-0.5,0.5-0.7l3.4-5l0,0c0.2-0.3,0.4-0.6,0.6-0.9c1.1-1.6,2.1-3.2,3.2-4.8l0,0c0.3-0.4,0.5-0.8,0.8-1.2
		c0.8-1.2,1.7-2.4,2.5-3.6c0.7-1,1.3-1.9,2-2.9s1.3-1.9,2-2.9c0.1-0.2,0.2-0.4,0.4-0.6l0,0c0.3-0.5,0.6-0.9,0.9-1.4
		c0.9-1.4,1.8-2.8,2.8-4.1l0,0l0.8-1.2c0.9-1.4,1.9-2.8,2.9-4.2l0,0c0.3-0.5,0.7-1,1-1.4c1.3-1.9,2.6-3.9,3.9-5.8s2.6-3.8,3.9-5.7
		c0.7-1.1,1.5-2.2,2.2-3.3l0,0c0.5-0.8,1-1.5,1.5-2.2s1-1.5,1.5-2.2c4.5-6.6,8.9-13.2,13.3-19.6c0.5-0.8,1.1-1.6,1.6-2.4l0,0
		c0.4-0.6,0.8-1.2,1.2-1.8c0.6-0.9,1.2-1.7,1.7-2.6c0.2-0.3,0.4-0.6,0.6-0.8l0,0c4.3-6.4,8.7-12.8,12.9-19.1l3.6-5.3l0.9-1.3
		l6.4-9.5c2.4-3.6,4.8-7.2,7.3-10.8c3.4-5,6.8-10,10.1-14.9c5.8-8.6,11.7-17.3,17.5-25.9l6.4-9.4c2.9-4.3,5.9-8.7,8.8-13
		c2.6-3.9,5.3-7.8,7.9-11.7c4-6,8.1-12,12.2-18c1.6-2.3,3.1-4.5,4.6-6.8c8-11.7,16.1-23.6,24.4-35.6c1.4-2.1,2.8-4.1,4.2-6.2
		c10-14.5,20.2-29.3,30.8-44.6c0,0,83.5-120,172.6-243.8c98.8-137.5,208.7-277.7,325.1-421.8l17.7-19.7L2506.9,1378.6z"/>
	<path class="st3" d="M847.6,3692.2"/>
	<path class="st17" d="M848.1,3696.6c-6.1-2.4-11.8-5.6-16.9-9.6c-8.8-6.9-11.2-12.3-19-19.5c-6-5.5-12.8-10-20.3-13.2
		c-0.8-0.4-1.7-0.8-2.6-1.1c-6.8-5-22.4,4.5-34.8,21.4c-1.3,1.7-2.5,3.5-3.5,5.2c-0.2,1.6-0.6,3.2-1.2,4.8c-1.5,3.5-3.6,6.7-6.1,9.6
		c-1.2,3.1-2,6.3-2.4,9.6c-0.5-3.7,0.3-8.6,2.3-14.1c2.5-2.9,4.5-6.1,6-9.5c0.6-1.5,1-3.1,1.2-4.7c1.1-1.7,2.2-3.4,3.5-5.1
		c12.3-16.7,27.8-26.2,34.6-21.2c8.4,3.3,16,8.2,22.7,14.2c7.7,7.1,10.1,12.5,18.8,19.3c5.2,4,11,7.3,17.1,9.7
		C847.9,3693.6,848.1,3695.1,848.1,3696.6z"/>
	<path class="st3" d="M746.6,3710.5c0.5,0.1,1,0.2,1.5,0.2C747.5,3710.7,747,3710.6,746.6,3710.5z"/>
	<path class="st3" d="M902.1,3824.6h0.3H902.1c-0.1,0-0.2,0-0.4-0.1C901.9,3824.6,902,3824.6,902.1,3824.6z"/>
	<path class="st3" d="M902.8,3824.7L902.8,3824.7c-0.1,0-0.2,0-0.3,0H902.8z"/>
	<path class="st3" d="M904.3,3824.7h0.2H904.3h-0.3H904.3z"/>
	<path class="st3" d="M905.3,3824.5c0.3,0,0.6-0.1,0.9-0.2C905.9,3824.4,905.6,3824.5,905.3,3824.5l-0.5,0.1L905.3,3824.5z"/>
	<path class="st3" d="M909.7,3823.2l0.2-0.1L909.7,3823.2l-0.4,0.2C909.4,3823.3,909.6,3823.2,909.7,3823.2z"/>
	<path class="st3" d="M917.8,3818.4c0.4-0.3,0.8-0.6,1.2-0.9C918.6,3817.8,918.2,3818.1,917.8,3818.4l-1.2,0.9
		c-1.1,0.8-2.3,1.6-3.5,2.2c-0.4,0.2-0.8,0.4-1.2,0.6c-0.4,0.2-0.7,0.4-1.1,0.6l-0.4,0.2l0.4-0.2c0.4-0.2,0.8-0.4,1.1-0.6
		c0.4-0.2,0.8-0.4,1.1-0.6c1.2-0.7,2.4-1.4,3.5-2.3C917,3818.9,917.4,3818.6,917.8,3818.4z"/>
	<path class="st3" d="M920.2,3816.4c0.8-0.7,1.6-1.4,2.4-2.1C921.8,3815.1,921,3815.8,920.2,3816.4z"/>
	<path class="st3" d="M931.7,3804.4l0.4-0.4C931.9,3804.1,931.8,3804.3,931.7,3804.4L931.7,3804.4z"/>
	<path class="st3" d="M936.3,3759.3c-4.1-2.3-8.1-4.9-11.7-7.9c-0.4-0.3-0.7-0.6-1-0.9c0.3,0.3,0.7,0.6,1.1,0.9
		C928.3,3754.4,932.2,3757,936.3,3759.3z"/>
	<path class="st3" d="M944.2,3763.5c5.7,5.7,1.1,22.6-10.8,38.6c-0.2,0.3-0.5,0.6-0.7,1c0.2-0.3,0.5-0.6,0.7-1
		C945.2,3786.1,949.8,3769.2,944.2,3763.5z"/>
	<path class="st3" d="M2234.7,1831.1c65.5-91.2,131.4-178.8,197.9-264.5C2366.1,1652.3,2300.1,1739.9,2234.7,1831.1
		c-96.7,134.8-186,263.6-186,263.6c-176.8,256.2-263.9,401-598.4,871.9c-238.9,336.3-439.2,606.8-569.4,780.6l0,0
		c130.2-173.9,330.4-444.4,569.3-780.6c334.6-470.9,421.6-615.7,598.4-871.9C2048.6,2094.7,2137.9,1965.9,2234.7,1831.1z"/>
	<path class="st3" d="M1686,2533.8L1686,2533.8L1686,2533.8z"/>
	<path class="st3" d="M748.8,3711.9c1,0.6,2.1,1.2,3.2,1.8L748.8,3711.9z"/>
	<path class="st18" d="M2527.3,1446.5L2527.3,1446.5l-0.2,0.3c-42.2,53-84.2,106.5-126,160.7c-1.9,2.5-3.9,5-5.8,7.6
		c-3.4,4.5-6.9,9-10.3,13.5l-5.4,7.1c-11,14.4-21.9,28.9-32.9,43.4c-1.3,1.8-2.6,3.5-4,5.2c-7.3,9.7-14.5,19.4-21.8,29.1l-4,5.3
		c-2.8,3.7-5.6,7.5-8.4,11.2l-5.2,6.9c-5.6,7.6-11.3,15.2-16.9,22.9l-2.6,3.6c-7.7,10.4-15.3,20.9-23,31.5
		c-4.2,5.8-8.5,11.6-12.7,17.5c-4.5,6.3-9,12.5-13.5,18.8c-96.8,134.8-186,263.6-186,263.6c-176.8,256.2-263.9,401-598.4,871.9
		c-9.3,13.1-18.6,26.2-27.8,39.1c-3,4.3-6.1,8.5-9.1,12.8c-20.5,28.8-40.8,57.1-60.7,84.9c-2.4,3.4-4.9,6.8-7.3,10.2
		c-2.8,3.9-5.7,7.9-8.5,11.8c-5.2,7.3-10.5,14.5-15.7,21.8c-2.1,2.9-4.1,5.8-6.2,8.6c-8.3,11.5-16.5,22.9-24.7,34.3
		c-12.7,17.7-25.3,35.1-37.8,52.3c-9.9,13.7-19.8,27.3-29.5,40.7c-1.4,1.9-2.7,3.8-4.1,5.6c-1,1.5-2.1,2.9-3.2,4.4
		c-2.2,3-4.4,6-6.6,9c-0.2,0.3-0.4,0.6-0.7,0.9c-4.8,6.6-9.6,13.2-14.4,19.8c-2.3,3.2-4.6,6.3-6.9,9.5c-1.1,1.6-2.3,3.1-3.4,4.7
		c-6,8.3-12,16.4-17.9,24.6l-13.6,18.7l-7.1,9.7l-6.8,9.3l-7.9,10.9c-8.6,11.8-17.1,23.4-25.5,34.8l-9.9,13.5
		c-1.1,1.4-2.1,2.9-3.2,4.3c-9.5,13-18.9,25.7-28.1,38.3c-4.2,5.7-8.4,11.4-12.6,17c-5.5,7.5-11,14.9-16.5,22.3
		c-0.1,0.2-0.3,0.4-0.5,0.6c-2.5,3.5-5.1,6.9-7.6,10.3c-1.1,1.5-2.2,3-3.3,4.4l-3.3,4.5c-0.9,1.2-1.7,2.4-2.6,3.5l-6.7,9.1
		c-1.3,1.8-2.6,3.5-3.9,5.3l-7.8,10.5c-0.5,0.7-1,1.4-1.5,2c-0.8,1.1-1.6,2.1-2.3,3.2c-0.3,0.4-0.7,0.9-1,1.3c-2.2,3-4.4,6-6.7,9
		c-0.2,0.3-0.5,0.6-0.7,1l-5.5,7.4c-1.7,2.3-3.4,4.6-5.1,6.9c-3.7,5-7.4,10-11.1,14.9c-5.5,7.4,0,0,0,0l-3.7,4.9
		c-1.2,1.6-2.4,3.3-3.6,4.9c-1.2,1.6-2.4,3.2-3.6,4.8s-2.4,3.2-3.6,4.8s-2.4,3.2-3.6,4.8l-7,9.5c-1.2,1.6-2.3,3.1-3.5,4.6l0,0
		c-1.2,1.5-2.3,3.1-3.5,4.6c-2.3,3.1-4.6,6.2-6.9,9.2c-1.1,1.5-2.2,3-3.4,4.5l0,0c-0.8,1.1-1.7,2.2-2.5,3.4
		c-1.4,1.9-2.8,3.8-4.2,5.6c-1.1,1.5-2.2,3-3.3,4.4l0,0c-1.1,1.5-2.2,2.9-3.3,4.4l0,0c-0.6,0.7-1.1,1.5-1.6,2.2s-1.1,1.5-1.6,2.2
		c-1.1,1.4-2.2,2.9-3.2,4.3c-1.6,2.2,0,0,0,0c-1,1.4-2.1,2.9-3.2,4.3l0,0c-1.1,1.4-2.1,2.8-3.2,4.2l0,0c-1,1.4-2.1,2.8-3.2,4.2l0,0
		c-1,1.4-2.1,2.8-3.2,4.2l0,0c-1,1.4-2.1,2.8-3.1,4.1l0,0c-1,1.4-2,2.7-3.1,4.1l0,0c-1,1.4-2,2.7-3.1,4.1l0,0
		c-0.2-0.6-6.6-17.2-31.7-31.2l7.4-10.2c276.2-371.4,472.5-644.4,603.6-828.7c139.9-196.6,233.5-331.6,307.6-440l11.5-16.9
		c90.2-132.3,152-225.7,237.4-348.9c0,0,83.5-120,172.6-243.8c96.2-133.8,202.8-270.1,315.7-410.2c1.3,0.8,2.6,1.6,4,2.5
		c2,1.3,4,2.7,6,4.2c1.6,1.1,3.1,2.3,4.7,3.5c1.5,1.2,3,2.4,4.5,3.7c0.9,0.8,1.9,1.6,2.8,2.4l2.9,2.6l0,0
		C2529.9,1436.8,2529.1,1444.1,2527.3,1446.5z"/>
	<path class="st19" d="M2527.3,1446.5L2527.3,1446.5l-0.2,0.3c-42.2,53-84.2,106.5-126,160.7c-1.9,2.5-3.9,5-5.8,7.6
		c-3.4,4.5-6.9,9-10.3,13.5l-5.4,7.1c-11,14.4-21.9,28.9-32.9,43.4c-1.3,1.8-2.6,3.5-4,5.2c-7.3,9.7-14.5,19.4-21.8,29.1l-4,5.3
		c-2.8,3.7-5.6,7.5-8.4,11.2l-5.2,6.9c-5.6,7.6-11.3,15.2-16.9,22.9l-2.6,3.6c-7.7,10.4-15.3,20.9-23,31.5
		c-4.2,5.8-8.5,11.6-12.7,17.5c-4.5,6.3-9,12.5-13.5,18.8c-96.8,134.8-186,263.6-186,263.6c-176.8,256.2-263.9,401-598.4,871.9
		c-9.3,13.1-18.6,26.2-27.8,39.1c-3,4.3-6.1,8.5-9.1,12.8c-20.5,28.8-40.8,57.1-60.7,84.9c-2.4,3.4-4.9,6.8-7.3,10.2
		c-2.8,3.9-5.7,7.9-8.5,11.8c-5.2,7.3-10.5,14.5-15.7,21.8c-2.1,2.9-4.1,5.8-6.2,8.6c-8.3,11.5-16.5,22.9-24.7,34.3
		c-12.7,17.7-25.3,35.1-37.8,52.3c-9.9,13.7-19.8,27.3-29.5,40.7c-1.4,1.9-2.7,3.8-4.1,5.6c-1,1.5-2.1,2.9-3.2,4.4
		c-2.2,3-4.4,6-6.6,9c-0.2,0.3-0.4,0.6-0.7,0.9c-4.8,6.6-9.6,13.2-14.4,19.8c-2.3,3.2-4.6,6.3-6.9,9.5c-1.1,1.6-2.3,3.1-3.4,4.7
		c-6,8.3-12,16.4-17.9,24.6l-13.6,18.7l-7.1,9.7l-6.8,9.3l-7.9,10.9c-8.6,11.8-17.1,23.4-25.5,34.8l-9.9,13.5
		c-1.1,1.4-2.1,2.9-3.2,4.3c-9.5,13-18.9,25.7-28.1,38.3c-4.2,5.7-8.4,11.4-12.6,17c-5.5,7.5-11,14.9-16.5,22.3
		c-0.1,0.2-0.3,0.4-0.5,0.6c-2.5,3.5-5.1,6.9-7.6,10.3c-1.1,1.5-2.2,3-3.3,4.4l-3.3,4.5c-0.9,1.2-1.7,2.4-2.6,3.5l-6.7,9.1
		c-1.3,1.8-2.6,3.5-3.9,5.3l-7.8,10.5c-0.5,0.7-1,1.4-1.5,2c-0.8,1.1-1.6,2.1-2.3,3.2c-0.3,0.4-0.7,0.9-1,1.3c-2.2,3-4.4,6-6.7,9
		c-0.2,0.3-0.5,0.6-0.7,1l-5.5,7.4c-1.7,2.3-3.4,4.6-5.1,6.9c-3.7,5-7.4,10-11.1,14.9c-5.5,7.4,0,0,0,0l-3.7,4.9
		c-1.2,1.6-2.4,3.3-3.6,4.9c-1.2,1.6-2.4,3.2-3.6,4.8s-2.4,3.2-3.6,4.8s-2.4,3.2-3.6,4.8l-7,9.5c-1.2,1.6-2.3,3.1-3.5,4.6l0,0
		c-1.2,1.5-2.3,3.1-3.5,4.6c-2.3,3.1-4.6,6.2-6.9,9.2c-1.1,1.5-2.2,3-3.4,4.5l0,0c-0.8,1.1-1.7,2.2-2.5,3.4
		c-1.4,1.9-2.8,3.8-4.2,5.6c-1.1,1.5-2.2,3-3.3,4.4l0,0c-1.1,1.5-2.2,2.9-3.3,4.4l0,0c-0.6,0.7-1.1,1.5-1.6,2.2s-1.1,1.5-1.6,2.2
		c-1.1,1.4-2.2,2.9-3.2,4.3c-1.6,2.2,0,0,0,0c-1,1.4-2.1,2.9-3.2,4.3l0,0c-1.1,1.4-2.1,2.8-3.2,4.2l0,0c-1,1.4-2.1,2.8-3.2,4.2l0,0
		c-1,1.4-2.1,2.8-3.2,4.2l0,0l-2.4,3.2c-5.7-5.3-12-9.9-18.8-13.7l7.4-10.2c276.2-371.4,472.5-644.4,603.6-828.7
		c139.9-196.6,233.5-331.6,307.6-440l11.5-16.9c90.2-132.3,152-225.7,237.4-348.9c54-79.8,111.5-161.1,172.6-243.8
		c99.1-133.8,305-386.5,307.7-391c3.9-6.3,7-11.8,10.1-11.3c1.3,0.2,2.3,1.5,2.9,2.6l0,0C2529.9,1436.8,2529.1,1444.1,2527.3,1446.5
		z"/>
	<path class="st18" d="M1987.9,2179.3L1987.9,2179.3c-0.1,0.1-0.2,0.2-0.2,0.3L1987.9,2179.3z"/>
	<path class="st18" d="M2512.1,1439.1c0,0,0.1,0.1,0.1,0.1l0,0L2512.1,1439.1z"/>
	<path class="st18" d="M2517.3,1449.9C2517.3,1449.9,2517.3,1449.9,2517.3,1449.9L2517.3,1449.9
		C2517.3,1449.9,2517.3,1449.9,2517.3,1449.9z"/>
	<path class="st18" d="M2517.4,1450.3L2517.4,1450.3c0-0.1-0.1-0.2-0.1-0.4C2517.3,1450.1,2517.4,1450.2,2517.4,1450.3z"/>
	<path class="st20" d="M946.6,3770.7v0.2c0,0.2,0,0.5,0,0.8v0.1l0,0c0,0.1,0,0.3,0,0.4l0,0l0,0l0,0v0.1c0,0,0,0,0,0.1v0.1
		c0,0.2,0,0.4,0,0.6s0,0.4-0.1,0.5c0,0,0,0.1,0,0.1v0.1l0,0l0,0c0,0,0,0,0,0.1v0.1l0,0v0.1l0,0l0,0v0.2c0,0.1,0,0.1,0,0.2
		c0,0.1,0,0.3-0.1,0.5s-0.1,0.4-0.1,0.7v0.2c-0.1,0.3-0.1,0.6-0.2,0.9s-0.1,0.6-0.2,0.9s-0.2,0.8-0.3,1.2s-0.2,0.5-0.2,0.8
		c0,0.1-0.1,0.3-0.1,0.4c-0.1,0.5-0.3,0.9-0.4,1.4c-0.1,0.3-0.2,0.6-0.3,0.9c0,0.1-0.1,0.3-0.2,0.4s-0.1,0.3-0.2,0.5l-0.3,0.9
		l-0.1,0.2c-0.1,0.3-0.3,0.7-0.4,1s-0.3,0.8-0.5,1.3c0,0.1-0.1,0.2-0.2,0.3c-0.2,0.5-0.4,1-0.7,1.5c-0.2,0.3-0.3,0.7-0.5,1
		c-0.3,0.7-0.7,1.4-1.1,2.1l-0.4,0.7c-0.1,0.1-0.1,0.3-0.2,0.4l-0.1,0.1l-0.3,0.6l-0.8,1.4c-0.2,0.3-0.4,0.7-0.6,1l-0.4,0.7
		l-0.4,0.6c-0.6,0.9-1.2,1.8-1.8,2.7l-0.3,0.5c-0.2,0.3-0.5,0.7-0.7,1s-0.5,0.7-0.7,1c-0.1,0.1-0.2,0.3-0.3,0.4s-0.1,0.2-0.2,0.3
		l-0.2,0.2l-0.7,0.8l-0.4,0.4l-4.4-5.2l-2.3-2.7l2.1,3l4,5.7c-0.5,0.6-1.1,1.3-1.6,2s-1.3,1.5-2,2.3c-1.6,1.8-3.2,3.4-4.8,4.9l0,0
		c-0.8,0.8-1.6,1.4-2.4,2.1l0,0c-0.2,0.2-0.4,0.3-0.6,0.5l-0.6,0.5c-0.4,0.3-0.8,0.6-1.2,0.9c-0.1,0.1-0.2,0.2-0.3,0.2l-1,0.6
		c-0.4,0.2-0.7,0.4-1.1,0.6c-0.1,0.1-0.2,0.1-0.4,0.2s-0.3,0.1-0.5,0.2c-0.1,0-0.1,0.1-0.2,0.1l-0.4,0.2l-0.4,0.2
		c-0.5,0.1-0.9,0.3-1.3,0.4l-0.9,0.2c-0.2,0.1-0.3,0.1-0.5,0.1c-0.3,0.1-0.6,0.1-0.9,0.2l-0.5,0.1l0,0h-0.3c-0.1,0-0.1,0-0.2,0h-0.3
		c-0.1,0-0.3,0-0.4,0c-0.1,0-0.3,0-0.4,0c-0.1,0-0.3,0-0.4,0h-0.3h-0.1h-0.3c-0.1,0-0.2,0-0.4,0c-0.2,0-0.4-0.1-0.6-0.1l-0.3-0.1
		l-0.3-0.1l-0.3-0.1c-0.1,0-0.2,0-0.2-0.1h-0.1c-0.1,0-0.1,0-0.2-0.1l0,0c-0.1-0.1-0.3-0.2-0.4-0.2l-0.1-0.1c0,0,0,0-0.1-0.1l0,0
		l0,0l0,0c-1.4-1.8-3-3.7-4.7-5.8c-0.6-0.7-1.2-1.4-1.8-2.1c-0.5-0.6-1-1.1-1.5-1.7c-1-1.1-2.1-2.3-3.3-3.5l-1.8-1.8
		c-0.6-0.6-1.2-1.2-1.8-1.8c-2.5-2.5-5.2-5-8-7.6c-0.2-0.2-0.4-0.3-0.5-0.5c-1.3-1.1-2.6-2.2-4-3.3l-0.2-0.2l-0.2-0.2
		c-0.2-0.1-0.3-0.2-0.5-0.4l1.9-2.5l0,0l0,0l-1.5-0.5l-0.7-0.2l-0.7-1.5l0,0l-4.4-0.9l-2.8-2.8l0,0l-1.3,1.1l-0.1,0.1
		c0,0-0.1-0.1-0.1-0.1c0,0-0.1-0.1-0.1-0.1c-0.8-0.6-1.6-1.1-2.4-1.6l-2.4-1.5c-3.1-1.9-6-3.5-8.8-4.9c-1.4-0.7-2.8-1.4-4.2-2.1
		c-4.7-2.3-9.4-4.6-14.8-7.7c-0.5-0.3-1.1-0.6-1.6-0.9c-0.9-0.5-1.8-1.1-2.7-1.7l-1.5-1l-0.9-0.6c-0.6-0.4-1.2-0.8-1.8-1.2
		c-3-2-6.2-4.3-9.8-7l-0.2-0.2c-0.2-0.2-0.4-0.3-0.6-0.5c-0.5-0.4-1-0.8-1.5-1.2l0,0l-0.4-0.4l-1.2-0.9l-2.5-2.1
		c-0.2-0.2-0.5-0.4-0.8-0.6l0,0c-4.1-3.5-7.1-6.3-10.5-9.4l0,0c-0.2-0.2-0.4-0.4-0.7-0.6c-0.7-0.6-1.3-1.2-2.1-1.8
		c-0.2-0.1-0.3-0.3-0.5-0.4l-0.6-0.5c-0.4-0.4-0.8-0.7-1.3-1.1c-0.2-0.2-0.4-0.4-0.7-0.5c-2.9-2.4-6.3-5-10.8-8.1
		c-6.6-4.7-12.8-8.6-18.2-11.9l-0.9-0.6c28.5,5,87.8,12,87.3-16.6c0-0.5,0-1-0.1-1.5c-0.1-1-0.2-1.9-0.4-2.9l0,0
		c1.4,0.4,2.7,0.9,3.9,1.4l0,0c4.1,1.6,8.1,3.5,11.9,5.6c20,10.2,21,20.5,21.1,20.9l0,0c1,0.4,2,0.9,2.9,1.4s1.8,0.9,2.7,1.4l0,0
		c1.2,0.6,2.3,1.2,3.3,1.9c4.8,2.8,9.3,6.2,13.5,9.9l0,0c0.4,0.4,0.8,0.8,1.2,1.2l0,0l1.2,1.1l0.6,0.6l0.5,0.6v0.1
		c0.4,0.4,0.8,0.8,1.2,1.2l0.8,0.9c0.8,0.9,1.5,1.7,2.3,2.5c0.2,0.2,0.3,0.3,0.5,0.5c0.5,0.5,0.9,1,1.4,1.5l0.8,0.9
		c0.4,0.4,0.7,0.8,1.1,1.1l0.5,0.5l0,0c0.3,0.4,0.7,0.7,1.1,1.1c0.2,0.2,0.4,0.4,0.6,0.5c0.4,0.4,0.8,0.7,1.2,1.1l0,0
		c0.3,0.3,0.7,0.6,1,0.9l0.5,0.4l0.5,0.4c0.2,0.2,0.5,0.4,0.8,0.6c0,0,0.1,0.1,0.1,0.1h0.1l0.1,0.1l0,0l0,0l0.1,0.1l0.1,0.1l0,0
		l0.1,0.1l0,0l0,0c0,0,0,0,0.1,0l0,0l0.2,0.2l0,0l0.3,0.2l0,0l0.2,0.1l0.8,0.6l0,0c0,0,0,0,0,0.1h0.1l0.1,0.1l0.2,0.1
		c0.1,0.1,0.3,0.2,0.5,0.3l0,0l0.1,0.1l0.1,0.1l0,0l0,0l0,0l0,0l0,0l0,0l0,0l0,0l0,0l0,0l0,0l0.1,0.1h0.1c0,0,0.1,0.1,0.1,0.1
		c0,0,0,0,0,0.1l0,0l0,0l0,0l0,0l0.2,0.1c0.2,0.1,0.3,0.2,0.5,0.3l0.3,0.2c0,0,0.1,0,0.1,0c0,0,0.1,0,0.1,0.1l0.4,0.3l0.8,0.5
		l0.1,0.1l0,0c0,0,0.1,0,0.1,0.1c0.1,0.1,0.2,0.1,0.3,0.2l0.5,0.3l0.1,0.1c0,0,0.1,0.1,0.1,0.1l0.1,0.1l0.2,0.1l0.1,0.1l0.3,0.2
		c0.3,0.2,0.6,0.4,0.9,0.5c0.5,0.3,1.1,0.6,1.6,0.9l0.7,0.4c0.3,0.2,0.6,0.3,0.8,0.4s0.9,0.5,1.3,0.7l0.9,0.5l0.2,0.1
		c0.6,0.3,1.2,0.6,1.8,0.8l0.9,0.4c0.2,0.1,0.3,0.2,0.4,0.3c0.3,0.2,0.5,0.4,0.8,0.6c0.2,0.2,0.3,0.3,0.4,0.5c0,0,0.1,0.1,0.1,0.1
		c0,0.1,0.1,0.1,0.1,0.2c0,0,0.1,0.1,0.1,0.1c0.1,0.1,0.1,0.2,0.2,0.2l0,0c0,0,0,0,0,0.1c0,0,0.1,0.1,0.1,0.1c0,0,0.1,0.1,0.1,0.1
		l0,0.1l0.1,0.1c0,0.1,0.1,0.1,0.1,0.2c0.1,0.1,0.1,0.3,0.2,0.4l0,0c0,0.1,0.1,0.1,0.1,0.2v0.1c0.1,0.1,0.1,0.3,0.2,0.4
		c0,0.1,0,0.1,0.1,0.2c0,0,0,0.1,0,0.1c0,0,0,0.1,0,0.1l0.1,0.2c0,0.1,0.1,0.3,0.1,0.4c0,0.1,0,0.1,0,0.2l0,0l0,0c0,0.1,0,0.2,0,0.2
		c0,0.2,0.1,0.4,0.1,0.5v0.2l0,0c0,0,0,0,0,0.1l0,0c0,0.1,0,0.2,0,0.3s0,0,0,0.1l0,0c0,0.1,0,0.1,0,0.2c0,0.1,0,0.2,0,0.4l0,0
		c0,0.1,0,0.2,0,0.4v0.1C946.6,3770.4,946.6,3770.5,946.6,3770.7z"/>
	<path class="st21" d="M917.4,3818.6c-0.3,0.2-0.6,0.4-0.8,0.6c-1.1,0.8-2.3,1.6-3.5,2.3c-0.4,0.2-0.8,0.4-1.1,0.6
		c-0.4,0.2-0.7,0.4-1.1,0.6l-0.1,0.1l0,0l-0.2,0.1c-0.2,0.1-0.3,0.2-0.5,0.2l-0.2,0.1c-0.2,0-0.3,0.1-0.4,0.2l-0.4,0.2l-1.3,0.4
		c-0.3,0.1-0.6,0.2-0.9,0.2c-0.2,0.1-0.3,0.1-0.5,0.1c-0.3,0.1-0.6,0.1-0.9,0.2l-0.5,0.1l0,0c-0.1,0-0.2,0-0.3,0h-0.2h-0.3
		c-0.1,0-0.3,0-0.4,0h-0.8h-0.3h-0.1h-0.3c-0.1,0-0.3,0-0.4-0.1h-0.2c-0.1,0-0.2,0-0.4-0.1l-0.3-0.1l-0.3-0.1l-0.3-0.1
		c-0.1,0-0.2-0.1-0.2-0.1h-0.1l-0.2-0.1l0,0l0,0l-0.4-0.2h-0.1l-0.1-0.1c0,0-3-3.7-4.7-5.8c-0.3-0.4-0.6-0.7-0.9-1s-0.6-0.7-0.9-1.1
		c-0.5-0.6-1-1.1-1.5-1.7c-1-1.1-2.1-2.3-3.2-3.5l-1.8-1.8c-0.6-0.6-1.2-1.2-1.8-1.8c-0.9-0.9-1.9-1.9-2.9-2.8s-2-1.9-3-2.8
		l-2.2-1.9c-1.5-1.3-2.9-2.6-4.5-3.8h-0.1c0-0.1-0.1-0.1-0.2-0.1l-0.2-0.2l-0.5-0.4l1.9-2.5l-2.2-0.7l-0.7-1.5l0,0l-4.4-0.9
		l-2.8-2.8l-1.5,1.2c0,0-1.8-1.2-2.6-1.7l-0.1-0.1l-0.1-0.1c-0.8-0.5-1.5-1-2.2-1.4l0,0l-1.1-0.7l-1.1-0.7c-0.1-0.1-0.3-0.2-0.4-0.2
		s-0.5-0.3-0.7-0.4l0,0l-0.2-0.1c-0.3-0.2-0.6-0.3-0.9-0.5l-1.1-0.6l-1.1-0.6l-1.1-0.6l-1.1-0.6l-2.1-1.1l-2.1-1.1
		c-2.1-1-4.2-2.1-6.4-3.2l-1.5-0.8l-1.5-0.8l-1.5-0.8c-1.3-0.7-2.6-1.4-3.9-2.2c-0.5-0.3-1.1-0.6-1.6-0.9l-1.3-0.8l-1.4-0.9l-1.5-1
		l-0.9-0.6l-1.8-1.2c-2.2-1.4-4.4-3-6.8-4.8c-0.7-0.5-1.4-1-2.1-1.6l-1.1-0.8c-0.9-0.7-1.8-1.4-2.6-2c-0.4-0.3-0.8-0.6-1.2-1l-2.5-2
		l-0.8-0.6l0,0c-0.3-0.3-0.7-0.6-1-0.9s-0.6-0.5-1-0.8l-0.9-0.8l0,0c-0.7-0.6-1.3-1.2-2-1.8c-1.1-1-2.1-1.9-3.2-2.9
		c-0.4-0.4-0.8-0.8-1.2-1.1l-1.3-1.1l0,0c-0.2-0.2-0.4-0.4-0.7-0.6c-0.7-0.6-1.3-1.2-2.1-1.8l-0.5-0.4c-0.6-0.5-1.2-1.1-1.9-1.6
		l-0.7-0.5c-2.9-2.4-6.3-5-10.8-8.1l-2.6-1.9c-1.2-0.9-2.4-1.7-3.6-2.5l-1.2-0.8c-3.9-2.6-7.6-4.9-11-7c-1-0.6-1.9-1.2-2.8-1.7
		l-2.4-1.4c-1.1-0.6-2.2-1.2-3.2-1.8l-1.5-0.8l-0.7-0.4l-0.7-0.4c0.2,0.1,0.4,0.2,0.7,0.2c0.5,0.1,1,0.2,1.5,0.2l0,0
		c0.3,0,0.5,0,0.8,0c0.2,0,0.5,0,0.7,0h0.3l0.5-0.1h0.2h0.2l0.3-0.1c0.2,0,0.3-0.1,0.5-0.1c0.3-0.1,0.7-0.1,1-0.2h0.1
		c0.1,0,0.2-0.1,0.3-0.1h0.2l0.5-0.2h0.1c0.2-0.1,0.5-0.2,0.7-0.3s0.6-0.2,0.9-0.4s0.6-0.3,0.9-0.4c0.6-0.3,1.1-0.6,1.7-0.9
		c0.3-0.2,0.7-0.4,1-0.6l1-0.6c0.7-0.4,1.4-0.9,2.1-1.4s1.4-1,2.2-1.6l0,0c0.4-0.3,0.8-0.6,1.2-1l0,0c0.5-0.4,0.9-0.8,1.4-1.2
		c0.7-0.6,1.3-1.2,2-1.8s1.3-1.2,1.9-1.9s1.3-1.3,1.9-2s1.1-1.2,1.6-1.8s1-1.2,1.5-1.8s1-1.3,1.5-1.9c0.3-0.4,0.6-0.8,0.9-1.2
		l2.8,3.6l-0.8,1.1c-0.3,0.4-0.6,0.8-0.9,1.2c-0.5,0.6-1,1.3-1.5,1.9s-1,1.2-1.5,1.8s-1.1,1.2-1.6,1.8s-1.3,1.4-1.9,2
		s-1.3,1.3-1.9,1.9s-1.3,1.2-2,1.8c-0.4,0.4-0.9,0.8-1.4,1.2l0,0c-0.4,0.3-0.8,0.6-1.2,1l0,0c-2,1.6-4.2,3.1-6.4,4.3l-0.5,0.3
		l1.4,0.2l0.9,0.6c5.5,3.3,11.7,7.3,18.2,11.9c4.4,3.1,7.8,5.8,10.8,8.1c0.2,0.2,0.4,0.4,0.7,0.5c0.4,0.4,0.9,0.7,1.3,1.1l0.6,0.5
		c0.2,0.1,0.3,0.3,0.5,0.4c0.7,0.6,1.4,1.2,2.1,1.8c0.2,0.2,0.4,0.4,0.7,0.6l0,0c3.5,3.1,6.5,6,10.5,9.4l0,0
		c0.2,0.2,0.5,0.4,0.8,0.6l2.5,2.1l1.2,0.9l0.4,0.4l0,0c0.5,0.4,1,0.8,1.5,1.2c0.2,0.1,0.4,0.3,0.6,0.5l0.2,0.2c3.5,2.7,6.8,5,9.8,7
		c0.6,0.4,1.2,0.8,1.8,1.2l0.9,0.6l1.5,1c0.9,0.6,1.8,1.1,2.7,1.7c0.5,0.3,1.1,0.6,1.6,0.9c5.3,3.1,10.1,5.3,14.8,7.7
		c1.4,0.7,2.8,1.4,4.2,2.1c2.8,1.5,5.7,3.1,8.8,4.9l2.4,1.5c0.8,0.5,1.6,1,2.4,1.6c0,0,0.1,0.1,0.1,0.1c0,0,0.1,0.1,0.1,0.1l0.1-0.1
		l1.3-1.1l0,0l2.8,2.8l4.4,0.9l0,0l0.7,1.5l0.7,0.2l1.5,0.5l0,0l0,0l-1.9,2.5c0.1,0.1,0.3,0.3,0.5,0.4l0.2,0.2l0.2,0.2
		c1.3,1.1,2.7,2.2,4,3.3c0.2,0.2,0.4,0.3,0.5,0.5c2.9,2.5,5.6,5.1,8,7.6c0.6,0.6,1.2,1.2,1.8,1.8l1.8,1.8c1.1,1.2,2.2,2.4,3.3,3.5
		c0.5,0.6,1,1.2,1.5,1.7c0.6,0.7,1.2,1.4,1.8,2.1c1.7,2.1,3.3,4,4.7,5.8l0,0l0,0l0,0c0,0,0,0,0.1,0.1l0.1,0.1
		c0.1,0.1,0.3,0.2,0.4,0.2l0,0c0.1,0,0.1,0.1,0.2,0.1h0.1c0.1,0,0.1,0.1,0.2,0.1l0.3,0.1l0.3,0.1l0.3,0.1c0.2,0.1,0.4,0.1,0.6,0.1
		c0.1,0,0.2,0,0.4,0h0.3h0.4h0.3c0.1,0,0.3,0,0.4,0c0.1,0,0.3,0,0.4,0c0.1,0,0.3,0,0.4,0h0.3c0.1,0,0.1,0,0.2,0h0.3l0,0l0.5-0.1
		c0.3,0,0.6-0.1,0.9-0.2c0.2,0,0.3-0.1,0.5-0.1l0.9-0.2c0.4-0.2,0.8-0.3,1.3-0.4l0.4-0.2l0.4-0.2c0.1,0,0.1-0.1,0.2-0.1
		c0.2-0.1,0.3-0.1,0.5-0.2s0.2-0.1,0.4-0.2c0.4-0.2,0.8-0.4,1.1-0.6L917.4,3818.6z"/>
	<path class="st21" d="M753.7,3709.9l-0.5,0.2H753L753.7,3709.9z"/>
	<path class="st18" d="M946.6,3770.7v0.2c0,0.2,0,0.5,0,0.8v0.1l0,0c0,0.1,0,0.3,0,0.4l0,0l0,0l0,0v0.1c0,0,0,0,0,0.1v0.1
		c0,0.2,0,0.4,0,0.6s0,0.4-0.1,0.5c0,0,0,0.1,0,0.1v0.1c0,0,0,0.1,0,0.1c0,0,0,0,0,0.1l0,0l0,0v0.1l0,0l0,0v0.2c0,0.1,0,0.1,0,0.2
		c0,0.1,0,0.3-0.1,0.5s-0.1,0.4-0.1,0.7v0.2c-0.1,0.3-0.1,0.6-0.2,0.9s-0.1,0.6-0.2,0.9s-0.2,0.8-0.3,1.2s-0.2,0.5-0.2,0.8
		c0,0.1-0.1,0.3-0.1,0.4c-0.1,0.5-0.3,0.9-0.4,1.4c-0.1,0.3-0.2,0.6-0.3,0.9c0,0.1-0.1,0.3-0.2,0.4s-0.1,0.3-0.2,0.5l-0.3,0.9
		l-0.1,0.2c-0.1,0.3-0.3,0.7-0.4,1s-0.3,0.8-0.5,1.3c0,0.1-0.1,0.2-0.2,0.3c-0.2,0.5-0.4,1-0.7,1.5c-0.2,0.3-0.3,0.7-0.5,1
		c-0.3,0.7-0.7,1.4-1.1,2.1l-0.4,0.7c-0.1,0.1-0.1,0.3-0.2,0.4l-0.1,0.1l-0.3,0.6l-0.8,1.4c-0.2,0.3-0.4,0.7-0.6,1l-0.4,0.7
		l-0.4,0.6c-0.6,0.9-1.2,1.8-1.8,2.7l-0.3,0.5c-0.2,0.3-0.5,0.7-0.7,1s-0.5,0.7-0.7,1c-0.1,0.1-0.2,0.3-0.3,0.4s-0.1,0.2-0.2,0.3
		l-0.2,0.2l-0.7,0.8l-0.4,0.4l-4.4-5.2l-2.3-2.7l2.1,3l4,5.7c-0.5,0.6-1.1,1.3-1.6,2s-1.3,1.5-2,2.3c-1.6,1.8-3.2,3.4-4.8,4.9l0,0
		c-0.8,0.8-1.6,1.4-2.4,2.1l0,0c-0.2,0.2-0.4,0.3-0.6,0.5l-0.6,0.5c-0.4,0.3-0.8,0.6-1.2,0.9c-0.1,0.1-0.2,0.2-0.3,0.2
		c-0.3,0.2-0.6,0.4-0.8,0.6c-1.1,0.8-2.3,1.6-3.5,2.3c-0.4,0.2-0.8,0.4-1.1,0.6c-0.4,0.2-0.7,0.4-1.1,0.6l-0.1,0.1l0,0l-0.2,0.1
		c-0.2,0.1-0.3,0.2-0.5,0.2l-0.2,0.1c-0.2,0-0.3,0.1-0.4,0.2l-0.4,0.2l-1.3,0.4c-0.3,0.1-0.6,0.2-0.9,0.2c-0.2,0.1-0.3,0.1-0.5,0.1
		c-0.3,0.1-0.6,0.1-0.9,0.2l-0.5,0.1l0,0c-0.1,0-0.2,0-0.3,0h-0.2h-0.3c-0.1,0-0.3,0-0.4,0h-0.8h-0.3h-0.1h-0.3
		c-0.1,0-0.3,0-0.4-0.1h-0.2c-0.1,0-0.2,0-0.4-0.1l-0.3-0.1l-0.3-0.1l-0.3-0.1c-0.1,0-0.2-0.1-0.2-0.1h-0.1l-0.2-0.1l0,0l0,0
		l-0.4-0.2h-0.1l-0.1-0.1c0,0-3-3.7-4.7-5.8c-0.3-0.4-0.6-0.7-0.9-1s-0.6-0.7-0.9-1.1c-0.5-0.6-1-1.1-1.5-1.7
		c-1-1.1-2.1-2.3-3.2-3.5l-1.8-1.8c-0.6-0.6-1.2-1.2-1.8-1.8c-0.9-0.9-1.9-1.9-2.9-2.8s-2-1.9-3-2.8l-2.2-1.9
		c-1.5-1.3-2.9-2.6-4.5-3.8H872c0-0.1-0.1-0.1-0.2-0.1l-0.2-0.2l-0.5-0.4l1.9-2.5l-2.2-0.7l-0.7-1.5l0,0l-4.4-0.9l-2.8-2.8l-1.5,1.2
		c0,0-1.8-1.2-2.6-1.7l-0.1-0.1l-0.1-0.1c-0.8-0.5-1.5-1-2.2-1.4l0,0l-1.1-0.7l-1.1-0.7c-0.1-0.1-0.3-0.2-0.4-0.2s-0.5-0.3-0.7-0.4
		c-0.1,0-0.1-0.1-0.2-0.1c-0.3-0.2-0.6-0.3-0.9-0.5l-1.1-0.6l-1.1-0.6l-1.1-0.6l-1.1-0.6l-2.1-1.1l-2.1-1.1c-2.1-1-4.2-2.1-6.4-3.2
		l-1.5-0.8l-1.5-0.8l-1.5-0.8c-1.3-0.7-2.6-1.4-3.9-2.2c-0.5-0.3-1.1-0.6-1.6-0.9l-1.3-0.8l-1.4-0.9l-1.5-1l-0.9-0.6l-1.8-1.2
		c-2.2-1.4-4.4-3-6.8-4.8c-0.7-0.5-1.4-1-2.1-1.6l-1.1-0.8c-0.9-0.7-1.8-1.4-2.6-2c-0.4-0.3-0.8-0.6-1.2-1l-2.5-2l2.7,0.1
		c0.9,0.1,1.8,0.1,2.7,0.1l1.1,0.1l1.9,0.1h0.2c78.7,2.4,73.2-32.4,73.2-32.4c1,0.4,2,0.9,2.9,1.4s1.8,0.9,2.7,1.4l0,0
		c1.2,0.6,2.3,1.2,3.3,1.9c4.8,2.8,9.3,6.2,13.5,9.9l0,0c0.4,0.4,0.8,0.8,1.2,1.2l0,0l1.2,1.1l0.6,0.6l0.5,0.6v0.1
		c0.4,0.4,0.8,0.8,1.2,1.2l0.8,0.9c0.8,0.9,1.5,1.7,2.3,2.5c0.2,0.2,0.3,0.3,0.5,0.5c0.5,0.5,0.9,1,1.4,1.5l0.8,0.9
		c0.4,0.4,0.7,0.8,1.1,1.1l0.5,0.5l0,0c0.3,0.4,0.7,0.7,1.1,1.1c0.2,0.2,0.4,0.4,0.6,0.5c0.4,0.4,0.8,0.7,1.2,1.1l0,0
		c0.3,0.3,0.7,0.6,1,0.9l0.5,0.4l0.5,0.4c0.2,0.2,0.5,0.4,0.8,0.6c0,0,0.1,0.1,0.1,0.1h0.1l0.1,0.1l0,0l0,0c0,0,0,0.1,0.1,0.1l0,0
		l0.1,0.1l0,0l0.1,0.1l0,0l0,0c0,0,0,0,0.1,0l0,0l0.2,0.2l0,0l0.3,0.2l0,0l0.2,0.1l0.8,0.6l0,0c0,0,0,0,0,0.1h0.1l0.1,0.1l0.2,0.1
		c0.1,0.1,0.3,0.2,0.5,0.3l0,0l0.1,0.1l0.1,0.1l0,0l0,0l0,0l0,0l0,0l0,0l0,0l0,0l0,0l0,0l0,0l0.1,0.1h0.1c0,0,0.1,0.1,0.1,0.1
		c0,0,0,0,0,0.1l0,0l0,0l0,0l0,0l0.2,0.1c0.2,0.1,0.3,0.2,0.5,0.3l0.3,0.2c0,0,0.1,0,0.1,0c0,0,0.1,0,0.1,0.1l0.4,0.3l0.8,0.5
		c0,0,0.1,0.1,0.1,0.1c0,0,0.1,0,0.1,0.1c0.1,0.1,0.2,0.1,0.3,0.2l0.5,0.3l0.1,0.1c0,0,0.1,0.1,0.1,0.1l0.1,0.1l0.2,0.1l0.1,0.1
		l0.3,0.2c0.3,0.2,0.6,0.4,0.9,0.5c0.5,0.3,1.1,0.6,1.6,0.9l0.7,0.4c0.3,0.2,0.6,0.3,0.8,0.4s0.9,0.5,1.3,0.7l0.9,0.5l0.2,0.1
		c0.6,0.3,1.2,0.6,1.8,0.8l0.9,0.4c0.2,0.1,0.3,0.2,0.4,0.3c0.3,0.2,0.5,0.4,0.8,0.6c0.2,0.2,0.3,0.3,0.4,0.5c0,0,0.1,0.1,0.1,0.1
		c0,0.1,0.1,0.1,0.1,0.2c0,0,0.1,0.1,0.1,0.1c0.1,0.1,0.1,0.2,0.2,0.2l0,0c0,0,0,0,0,0.1c0,0,0.1,0.1,0.1,0.1c0,0,0.1,0.1,0.1,0.1
		l0,0.1l0.1,0.1c0,0.1,0.1,0.1,0.1,0.2c0.1,0.1,0.1,0.3,0.2,0.4l0,0c0,0.1,0.1,0.1,0.1,0.2v0.1c0.1,0.1,0.1,0.3,0.2,0.4
		c0,0.1,0,0.1,0.1,0.2c0,0,0,0.1,0,0.1c0,0,0,0.1,0,0.1l0.1,0.2c0,0.1,0.1,0.3,0.1,0.4c0,0.1,0,0.1,0,0.2l0,0l0,0c0,0.1,0,0.2,0,0.2
		c0,0.2,0.1,0.4,0.1,0.5v0.2l0,0c0,0,0,0,0,0.1l0,0c0,0.1,0,0.2,0,0.3s0,0,0,0.1l0,0c0,0.1,0,0.1,0,0.2c0,0.1,0,0.2,0,0.4l0,0
		c0,0.1,0,0.2,0,0.4v0.1C946.6,3770.4,946.6,3770.5,946.6,3770.7z"/>
	<path class="st22" d="M931.1,3805.1c-0.5,0.6-1.1,1.3-1.6,2s-1.3,1.5-2,2.3c-1.6,1.8-3.2,3.4-4.8,4.9l0,0c-0.8,0.8-1.6,1.4-2.4,2.1
		l0,0c-0.2,0.2-0.4,0.3-0.6,0.5l-0.6,0.5c-0.4,0.3-0.8,0.6-1.2,0.9c-0.1,0.1-0.2,0.2-0.3,0.2c-0.3,0.2-0.6,0.4-0.8,0.6
		c-1.1,0.8-2.3,1.6-3.5,2.3c-0.4,0.2-0.8,0.4-1.1,0.6c-0.4,0.2-0.7,0.4-1.1,0.6l-0.1,0.1l0,0l-0.2,0.1c-0.2,0.1-0.3,0.2-0.5,0.2
		l-0.2,0.1c-0.2,0-0.3,0.1-0.4,0.2l-0.4,0.2l-1.3,0.4c-0.3,0.1-0.6,0.2-0.9,0.2c-0.2,0.1-0.3,0.1-0.5,0.1c-0.3,0.1-0.6,0.1-0.9,0.2
		l-0.5,0.1l0,0c-0.1,0-0.2,0-0.3,0h-0.2h-0.3c-0.1,0-0.3,0-0.4,0h-0.8h-0.3h-0.1h-0.3c-0.1,0-0.3,0-0.4-0.1h-0.2
		c-0.1,0-0.2,0-0.4-0.1l-0.3-0.1l-0.3-0.1l-0.3-0.1c-0.1,0-0.2-0.1-0.2-0.1H900l-0.2-0.1l0,0l0,0l-0.4-0.2h-0.1l-0.1-0.1
		c0,0-3-3.7-4.7-5.8c-0.3-0.4-0.6-0.7-0.9-1s-0.6-0.7-0.9-1.1c-0.5-0.6-1-1.1-1.5-1.7c-1-1.1-2.1-2.3-3.2-3.5l-1.8-1.8
		c-0.6-0.6-1.2-1.2-1.8-1.8c-0.9-0.9-1.9-1.9-2.9-2.8s-2-1.9-3-2.8l-2.2-1.9c-1.5-1.3-2.9-2.6-4.5-3.8h-0.1c0-0.1-0.1-0.1-0.2-0.1
		l-0.2-0.2l-0.5-0.4l1.9-2.5l-2.2-0.7l-0.7-1.5l0,0l-4.4-0.9l-2.8-2.8l-1.5,1.2c0,0-1.8-1.2-2.6-1.7l-0.1-0.1l-0.1-0.1
		c-0.8-0.5-1.5-1-2.2-1.4l0,0l-1.1-0.7l-1.1-0.7c-0.1-0.1-0.3-0.2-0.4-0.2s-0.5-0.3-0.7-0.4c-0.1,0-0.1-0.1-0.2-0.1
		c-0.3-0.2-0.6-0.3-0.9-0.5l-1.1-0.6l-1.1-0.6l-1.1-0.6l-1.1-0.6l-2.1-1.1l-2.1-1.1c-2.1-1-4.2-2.1-6.4-3.2l-1.5-0.8l-1.5-0.8
		l-1.5-0.8c-1.3-0.7-2.6-1.4-3.9-2.2c-0.5-0.3-1.1-0.6-1.6-0.9l-1.3-0.8l-1.4-0.9l-1.5-1l-0.9-0.6l-1.8-1.2c-2.2-1.4-4.4-3-6.8-4.8
		c-0.7-0.5-1.4-1-2.1-1.6l-1.1-0.8c-0.9-0.7-1.8-1.4-2.6-2c-0.4-0.3-0.8-0.6-1.2-1l-2.5-2l2.7,0.1c0.9,0.1,1.8,0.1,2.7,0.1l1.1,0.1
		l1.9,0.1h0.2c0.3,0.2,0.6,0.5,0.9,0.7l0.6,0.5c0.2,0.1,0.4,0.3,0.6,0.5l0.2,0.2c0.4,0.3,0.8,0.6,1.2,0.9c3.6,2.8,6.9,5.2,10,7.2
		l1.8,1.2l0.9,0.6l1.5,1c0.9,0.6,1.8,1.1,2.7,1.7l1.6,0.9c5.4,3.1,10.1,5.3,14.8,7.7c1.4,0.7,2.8,1.4,4.2,2.1c2.8,1.5,5.7,3,8.8,4.9
		l2.4,1.5c0.7,0.4,11.3,8.5,15.9,12.1c1,0.8,1.7,1.3,1.9,1.6c2.9,2.5,5.6,5.1,8.1,7.5c0.6,0.6,1.2,1.2,1.8,1.8s1.2,1.2,1.8,1.8
		c1.1,1.2,2.2,2.4,3.2,3.5l1.5,1.7c0.6,0.7,1.2,1.4,1.8,2.1c1.1,1.3,2.1,2.5,3,3.7l0.3-0.1c0.1,0,0.3-0.1,0.4-0.2
		c0.1-0.1,0.3-0.1,0.4-0.2l0.2-0.1c0.2-0.1,0.3-0.1,0.5-0.2l0.4-0.2c0.4-0.2,0.8-0.4,1.1-0.6c0.4-0.2,0.8-0.4,1.2-0.6
		c1.2-0.7,2.4-1.4,3.5-2.3c0.4-0.3,0.8-0.6,1.2-0.9s0.8-0.6,1.2-1s0.8-0.6,1.2-1l0,0c0.8-0.7,1.6-1.4,2.4-2.2l0,0
		c1.6-1.5,3.2-3.1,4.8-4.9c0.7-0.8,1.3-1.5,2-2.3l1.6-2l0.6-0.7l0.4-0.4l0.4-0.5L931.1,3805.1z"/>
	<path class="st22" d="M935.2,3799.7l-0.3,0.5c-0.5,0.7-1,1.4-1.5,2c-0.2,0.3-0.5,0.6-0.7,1l-0.7,0.8l-0.4,0.4l-4.4-5.2l0,0l0.7-1
		c10.8-14.6,15.6-29.9,12.1-36.9c0.7,0.3,1.4,0.6,2,0.9l0.9,0.4c0.2,0.1,0.3,0.2,0.4,0.3c0.3,0.2,0.5,0.4,0.8,0.6
		C949.5,3769,945.7,3784.4,935.2,3799.7z"/>
	<path class="st20" d="M781.9,3691.6l-2.1-4.6c0.5-0.7,1-1.4,1.4-2.1s0.9-1.4,1.4-2.1l0,0c7-11.1,10.5-21.8,9.3-28.5l0,0
		C797.8,3658.3,792.8,3676.3,781.9,3691.6z"/>
	<polygon class="st4" points="768.7,3691.3 779.8,3687 778.3,3689 	"/>
	<polygon class="st7" points="781.9,3691.6 779.8,3687 778.3,3689 781.1,3692.7 784.2,3696.7 	"/>
	<polygon class="st7" points="930.3,3803.3 931.1,3805.1 927.1,3799.4 925,3796.4 927.3,3799.2 931.7,3804.4 	"/>
	<path class="st23" d="M2989,837.2l-419.6,566.4c-22.4,14.3-26.1,33.2-42.2,42.9c1.9-2.4,3.9-4.8,5.8-7.3c-0.8-0.8-1.6-1.6-2.5-2.4
		l-0.9-0.8l362.9-491.8l-28.6,25.9l45.1-48.4l71.7-97.1c0,0,0.1-0.1,0.1-0.1c5.3-7.3,7.6-16.4,6.2-25.3
		C2988.4,801.2,2994.4,829.9,2989,837.2z"/>
	<polygon class="st24" points="2718.5,1323.8 2714.4,1313.8 2712.8,1327.7 2710.7,1293.2 	"/>
	<path class="st18" d="M2529.7,1436.1"/>
	<path class="st8" d="M2712.8,1327.7c-50.7,34.6-95.7,63.6-129.7,84.8c-26,16.2-45.5,27.9-56.1,34.3l0.2-0.3l0,0
		c1.9-2.4,2.7-9.7,2.5-10.3l0,0l0,0l8.5-11.6c17.1-10.4,136.2-93.7,170.9-117.3L2712.8,1327.7z"/>
	<path class="st7" d="M2960,475.6l-9.9,29.1c-1.4,1.6-2.1,2.3-2.1,2.3s-0.5-0.3-1.5-0.9l4.2-27.4l-2.8,23.1l0.6,1.6l1.6-1.4
		L2960,475.6z"/>
	<polygon class="st6" points="2960,475.6 2950.1,502 2948.5,503.4 2947.9,501.8 2950.7,478.7 2949.4,499.2 	"/>
</g>
</svg>
