<svg xmlns="http://www.w3.org/2000/svg" viewBox="0 0 239.53 183.83"><defs><style>.cls-1,.cls-3{fill:#130b08;}.cls-1,.cls-21{isolation:isolate;opacity:0.5;}.cls-2{fill:#261b19;}.cls-4{fill:#39231f;}.cls-5{fill:#684f4b;}.cls-6{fill:#004d13;}.cls-7{fill:#1cb702;}.cls-8{fill:#95d801;}.cls-9{fill:#cab5a9;}.cls-10{fill:#45362e;}.cls-11{fill:#120b08;}.cls-12{fill:#291a19;}.cls-13{fill:#493128;}.cls-14{fill:#392620;}.cls-15{fill:#483129;}.cls-16{fill:#655150;}.cls-17{fill:#a7877a;}.cls-18{fill:#d9e6c7;}.cls-19{fill:#d3e6c6;}.cls-20{fill:#d9efc7;}.cls-21{fill:#4e8760;}.cls-22{fill:#42b83f;}.cls-23{fill:#85de08;}.cls-24{fill:#41ff48;}.cls-25{fill:#73d625;}.cls-26{fill:#46865e;}.cls-27{fill:#e8f2ba;}</style></defs><g id="Слой_2" data-name="Слой 2"><g id="Слой_1-2" data-name="Слой 1"><g id="Layer_2" data-name="Layer 2"><ellipse class="cls-1" cx="119.76" cy="157.39" rx="119.76" ry="26.44"/><path class="cls-2" d="M209.54,83.58v2.07s0,0,0,0v.76a.38.38,0,0,1,0,.15h0V87h0v.28l0,.52V88l0,.4v.31h0a2.2,2.2,0,0,1-.06.5,1.16,1.16,0,0,1,0,.32h0a.78.78,0,0,1,0,.3v.41a.87.87,0,0,1-.06.36l0,.28h0a2,2,0,0,1-.08.49l0,.24A2,2,0,0,1,209,92c0,.14,0,.18,0,.26s0,.18-.05.28l-.1.49v.25a3.1,3.1,0,0,1-.11.51,47.17,47.17,0,0,1-23.25,30.93c-.55.3-1.1.59-1.66.87h0a131.09,131.09,0,0,1-12.39,6.17,128.82,128.82,0,0,1-12.73,4.73c0-.4.05-.81.05-1.21a13.72,13.72,0,0,0-27.44,0,13.31,13.31,0,0,0,.07,1.41v.38l0,.29a1.88,1.88,0,0,0,.05.33l.06.33h0a1.25,1.25,0,0,0,.07.31c.05.21.11.43.17.67a1.16,1.16,0,0,0,0,.18.89.89,0,0,0,.09.26h0a3.38,3.38,0,0,0,.11.34v.07c0,.12.09.24.14.36s.12.3.18.46l.14.29h0c.05.1.09.21.14.31s.14.28.22.42q-6.35.62-12.85.63a129,129,0,0,1-56.11-12.75q-4-2-7.95-4.17h0a47.3,47.3,0,0,1-5.9-3.58h0A47,47,0,0,1,38.85,56.31c.76-1.07,1.56-2.1,2.4-3.1A73.59,73.59,0,0,0,51.68,30.8v-.09l.49.29.3.17.41.23c.61.34,1.26.67,1.94,1l.56.27L56,33a81.77,81.77,0,0,0,12.45,4.3,149.87,149.87,0,0,0,15.44,3.18l.67.11h.18l1.06.15.57.09h.4l1,.13,1,.13.74.1h.15l1.34.16.78.09,1,.11h0l1,.12,1.66.17.71.06h.2l.76.08.42,0,.41,0,2.12.17h0c6.35.5,13,.76,19.93.76h5.71l2.92-.07.84,0h.82l1.15,0h.08l.92,0L135,42.6l1.12-.07,1.08-.07.78-.05,1.85-.14L142,42.1l.92-.09h0l.34,0,.88-.08.39,0,.75-.07.77-.08.78-.09.44,0h0l.74-.08.77-.09.58-.07,1.34-.17,1-.13.8-.11.76-.1.75-.12h0l1.77-.26c.9-.14,1.81-.28,2.67-.44l.9-.15.91-.16.88-.17.89-.17,1.78-.35.59-.12c.91-.19,1.81-.39,2.67-.59l.53-.13h0l.46-.1,1.45-.36h0l.2-.05,1.61-.41a66.52,66.52,0,0,0,16.74-6.55h0c.16.56.31,1.1.47,1.64l.33,1.09.08.26.24.74c.37,1.09.75,2.18,1.16,3.24.07.17.13.34.19.5l.24.62.17.39.18.44c.62,1.5,1.29,3,2,4.42a4.66,4.66,0,0,0,.22.45c.08.14.19.38.29.58l.3.57.08.16c.1.17.19.34.28.52l.08.15.35.62.35.63a.06.06,0,0,0,0,.06c.18.33.37.67.56,1l.59,1,.8,1.3c.28.42.54.82.82,1.23l0,.08.41.59.19.29a46.88,46.88,0,0,1,11,30.27Z"/><path class="cls-3" d="M132.59,141.83q-6.34.63-12.85.63a128.94,128.94,0,0,1-56.1-12.75q-4.06-2-8-4.17h0a46.51,46.51,0,0,1-5.9-3.57h0A47,47,0,0,1,38.62,56.44c.75-1.06,1.55-2.1,2.4-3.1l.51-.75c-9.81,27.09,1.86,77.69,89.56,81.17a13,13,0,0,0-.1,1.65c0,.47,0,.94.07,1.41v.39l0,.29a1.91,1.91,0,0,0,.06.33l.06.33h0a1.88,1.88,0,0,0,.06.31c.05.21.11.42.17.66a1.21,1.21,0,0,0,.05.18.92.92,0,0,0,.08.27h0l.12.34V140c0,.12.08.24.13.37s.12.3.19.45l.13.3h0l.15.3C132.35,141.5,132.51,141.69,132.59,141.83Z"/><path class="cls-4" d="M132.59,141.83q-6.34.63-12.85.63a128.94,128.94,0,0,1-56.1-12.75q-4.06-2-8-4.17h0a46.51,46.51,0,0,1-5.9-3.57h0A47,47,0,0,1,38.62,56.44c.75-1.06,1.55-2.1,2.4-3.1A73.71,73.71,0,0,0,51.45,30.93v-.09a40.62,40.62,0,0,0,4.29,2.24,73.83,73.83,0,0,1-7.84,14.7,46.26,46.26,0,0,0-3.34,4.43h0c-4.89,7.42-9.35,16.43-7.72,25.84C48.86,147.79,131.77,140.3,132.59,141.83Z"/><path class="cls-3" d="M196.07,116.55a47.05,47.05,0,0,1-6,5.17,44.33,44.33,0,0,1-4.89,3.1c-.54.31-1.1.59-1.66.88h0a128.66,128.66,0,0,1-12.39,6.16,127,127,0,0,1-12.73,4.73c0-.39.06-.8.06-1.21a13.79,13.79,0,0,0-.9-4.88C164.48,128.63,185.57,122.67,196.07,116.55Z"/><path class="cls-5" d="M195.28,21.57c0,3.31-2.59,6.44-7.23,9.23h0c-4.11,2.48-9.82,4.67-16.74,6.54a180,180,0,0,1-31.58,5c-6.37.5-13.07.76-20,.76s-13.58-.26-19.93-.76h0a177.31,177.31,0,0,1-31.61-5c-6.92-1.85-12.63-4.06-16.7-6.54h0c-4.64-2.8-7.24-5.92-7.24-9.23,0-3.07,2.24-6,6.28-8.63a31.94,31.94,0,0,1,2.76-1.61q.39-.23.81-.42C67.12,4.39,91.66,0,119.81,0s52.76,4.4,65.73,10.93l.78.41,1,.55c.62.35,1.2.71,1.75,1.06a18.22,18.22,0,0,1,4.52,4h0A7.55,7.55,0,0,1,195.28,21.57Z"/><path class="cls-5" d="M195.28,21.57c0,3.31-2.59,6.44-7.23,9.23h0c-4.11,2.48-9.82,4.67-16.74,6.54a180,180,0,0,1-31.58,5c-6.37.5-13.07.76-20,.76s-13.58-.26-19.93-.76h0a177.31,177.31,0,0,1-31.61-5c-6.92-1.85-12.63-4.06-16.7-6.54h0c-4.64-2.8-7.24-5.92-7.24-9.23,0-3.07,2.24-6,6.28-8.63a31.94,31.94,0,0,1,2.76-1.61,8.38,8.38,0,0,0-2.49,4.32,5.16,5.16,0,0,0-.1,1,7.78,7.78,0,0,0,2.63,5.41,17.71,17.71,0,0,0,2.39,2C66,31.35,90.81,36.45,119.81,36.45s53.83-5.1,64.08-12.34a17.73,17.73,0,0,0,2.42-2,7.72,7.72,0,0,0,2.59-5.35,6.56,6.56,0,0,0-1.2-3.67,10.62,10.62,0,0,0-1.38-1.69l1,.55c.62.35,1.2.71,1.75,1.06a18.22,18.22,0,0,1,4.52,4h0A7.56,7.56,0,0,1,195.28,21.57Z"/><path class="cls-6" d="M183.82,24.09a45.86,45.86,0,0,1-11.75,5.5C158.86,22,131.32,16.7,99.48,16.7a260.09,260.09,0,0,0-33.24,2c12.51-4.51,31.83-7.39,53.5-7.39C149.13,11.35,174.18,16.65,183.82,24.09Z"/><path class="cls-7" d="M172.07,29.59c-.59.19-1.2.39-1.81.57l-.43.13c-.58.17-1.17.35-1.77.51l-.45.13c-.91.25-1.85.5-2.81.73l-.47.11c-.87.22-1.76.42-2.67.62l-.79.17-1.11.23-2.44.47-1.88.34-.76.13h-.14l-.67.11-.79.13-1.62.25-.81.12h0l-1.14.16h0l-1.16.15h-.17l-.67.09-.34,0-1.63.19h-.14l-.67.07h-.19l-.63.08h-.24C129.47,28.44,103.79,24,74.47,24c-6.16,0-12.17.2-17.94.57l-.36-.24h0L55.68,24a38.79,38.79,0,0,1,10.57-5.34h0a260.2,260.2,0,0,1,33.24-2C131.32,16.7,158.86,22,172.07,29.59Z"/><path class="cls-8" d="M74.46,24.09c29.32,0,55,4.46,69.19,11.13a227.21,227.21,0,0,1-23.91,1.21c-28.23,0-52.5-4.83-63.22-11.77C62.29,24.29,68.29,24.09,74.46,24.09Z"/><path class="cls-9" d="M191.29,18.37c0,3.31-2.46,6.44-6.85,9.23h0c-3.88,2.48-9.29,4.68-15.85,6.54A142.13,142.13,0,0,1,149,38.07c-3.34.46-6.77.83-10.32,1.12-6,.5-12.37.76-18.92.76s-12.87-.26-18.88-.76h0a159.58,159.58,0,0,1-29.93-5,61.4,61.4,0,0,1-15.86-6.53h0a23.23,23.23,0,0,1-3.57-2.75c-2.14-2-3.29-4.22-3.29-6.49A8.38,8.38,0,0,1,50.51,13c.85-.55,1.77-1.09,2.76-1.61a8.43,8.43,0,0,0-2.48,4.32,5.16,5.16,0,0,0-.1,1,7.77,7.77,0,0,0,2.62,5.41,19,19,0,0,0,2.39,2l.49.34h0l.36.23c10.69,6.94,35,11.77,63.23,11.77a227.48,227.48,0,0,0,23.91-1.21h.24l.63-.07h.19l.67-.08h.14l1.63-.19.35,0,.66-.09h.17l1.16-.15h0l1.14-.16h0l.81-.12,1.62-.25.79-.13.67-.11h.14l.76-.13,1.88-.34c.83-.15,1.64-.3,2.45-.47l1.1-.23.79-.17c.91-.2,1.8-.4,2.67-.62l.47-.11c1-.23,1.9-.48,2.81-.73l.45-.13c.6-.16,1.19-.34,1.77-.51l.43-.13c.61-.18,1.22-.38,1.81-.57a45.36,45.36,0,0,0,11.75-5.5,16.59,16.59,0,0,0,2.42-2,7.7,7.7,0,0,0,2.59-5.34,6.63,6.63,0,0,0-1.19-3.68,11.26,11.26,0,0,0-1.39-1.69l1,.55c.61.35,1.2.71,1.75,1.06l.62.78h0A7.87,7.87,0,0,1,191.29,18.37Z"/><path class="cls-2" d="M155.25,136.3a10.36,10.36,0,0,1-.07,1.25c-.73,14.64-2.43,20.64-2.94,22.13a2.67,2.67,0,0,1-.14.39c-.62,1.73-1.47,3.3-3.34,3.3-1.53,0-2.35-1.41-3.2-2.46,0,0-3.54-4-10.06-19.41a10.54,10.54,0,1,1,19.72-5.2Z"/><path class="cls-10" d="M155.25,136.3a10.36,10.36,0,0,1-.07,1.25c-.73,14.64-2.43,20.64-2.94,22.13-.18-.24-.34-.47-.52-.67,0,0-8.11-13.72-8.75-18.45-.57-4.33,5.35-7.87,7.67-9.88a3.06,3.06,0,0,1,2.43-.78A10.43,10.43,0,0,1,155.25,136.3Z"/><path class="cls-11" d="M63.66,129.71c-5.38,12-8.29,15.3-8.29,15.3-.84,1.05-1.66,2.47-3.2,2.47-1.82,0-2.67-1.57-3.31-3.31,0,0-2.22-5.24-3.07-22.52a10.36,10.36,0,0,1-.07-1.25,10.64,10.64,0,0,1,.12-1.59,45.84,45.84,0,0,0,3.94,3.13h0a46.05,46.05,0,0,0,5.9,3.57h0Q59.61,127.76,63.66,129.71Z"/><path class="cls-2" d="M55.18,135.6a25.64,25.64,0,0,1-2.8,4.55c-.57.71-1.12,1.66-2.17,1.66-1.23,0-1.8-1.06-2.23-2.23a22.34,22.34,0,0,1-1-4.56h0c-.4-3-.78-6.78-1.06-11.6a.53.53,0,0,1,.63-.41.7.7,0,0,1,.23.11c.6.51,1.23,1,1.87,1.45h0a32,32,0,0,0,4,2.41h0l0,0A6.41,6.41,0,0,1,55.18,135.6Z"/><path class="cls-3" d="M185.17,124.82c-.32,3.43-.67,6.14-1,8.24a32.17,32.17,0,0,1-1.51,6.39c-.62,1.73-1.47,3.34-3.3,3.34-1.53,0-2.36-1.42-3.19-2.47,0,0-1.75-1.94-5-8.42,2.53-1.1,5-2.27,7.47-3.52q2.49-1.27,4.92-2.67h0C184.09,125.41,184.62,125.13,185.17,124.82Z"/><path class="cls-12" d="M185.17,124.82c-.32,3.43-.67,6.14-1,8.24a2.55,2.55,0,0,1-.72.1c-1.53,0-2.36-1.42-3.2-2.47a20,20,0,0,1-1.64-2.34q2.49-1.27,4.92-2.67h0C184.09,125.41,184.62,125.13,185.17,124.82Z"/><path class="cls-13" d="M158.43,135.39a9.8,9.8,0,0,1-.05,1.21c-1.07.33-2.13.66-3.2,1a10.36,10.36,0,0,0,.07-1.25,10.55,10.55,0,1,0-19.72,5.2q-1.46.18-2.94.33a13.72,13.72,0,1,1,25.84-6.44Z"/><path class="cls-14" d="M90.58,105.65a38.44,38.44,0,0,1-4.14-2.56h0a37.93,37.93,0,0,1-9.75-51.76h0a37.25,37.25,0,0,1,2.67-3.57,59.34,59.34,0,0,0,4.26-7.21l.66.11h.18l1.07.15.57.09h.39l1,.13,1,.13.74.1h.15l1.34.16.78.09,1,.11h0l1,.12,1.66.17.71.06h.2l.76.08.42,0,.41,0,2.12.17h0c6.35.5,13,.76,19.93.76,1.59,0,3.16,0,4.72,0C111.11,47.68,64.23,67,90.58,105.65Z"/><path class="cls-15" d="M209.54,83.58v2.07s0,0,0,0v.76a.38.38,0,0,1,0,.15h0V87h0v.28l0,.52V88l0,.4v.31h0a2.2,2.2,0,0,1-.06.5,1.16,1.16,0,0,1,0,.32h0a.78.78,0,0,1,0,.3v.41a.87.87,0,0,1-.06.36l0,.28h0a2,2,0,0,1-.08.49l0,.24A2,2,0,0,1,209,92c0,.14,0,.18,0,.26s0,.18-.05.28l-.1.49v.25a3.1,3.1,0,0,1-.11.51,38.09,38.09,0,0,1-8.87,9h0a37.87,37.87,0,0,1-5.28,3.2h0a104.5,104.5,0,0,1-103-.13l-.61-.32c-26.38-38.66,20.5-58,33.86-62.54,5.25-.08,10.34-.33,15.25-.72l2.08-.16L143,42h.05l.34,0,.88-.08.39,0,.74-.07.78-.08.78-.09.43,0h0l.75-.08.76-.1.59-.06,1.34-.17,1-.13.79-.11.76-.11.76-.11h0l1.77-.26,2.67-.44.9-.16.9-.16.89-.16.88-.17,1.79-.35.59-.12c.91-.2,1.81-.39,2.67-.6l.52-.12h0l.47-.11,1.44-.35h0l.21,0,1.6-.42a66.86,66.86,0,0,0,16.75-6.54h0c.15.55.31,1.1.47,1.64.1.37.22.73.33,1.09l.08.26.24.73c.36,1.1.75,2.18,1.16,3.25.06.17.13.33.19.49l.24.63.16.38c.06.16.12.3.19.45q.93,2.25,2,4.41l.22.45.3.58.3.58.08.15c.09.18.19.35.27.52l.09.16.35.62c.12.2.22.42.34.63v.06c.38.66.77,1.33,1.15,2l.81,1.29c.27.43.54.83.82,1.24l0,.08.4.58.2.29a46.89,46.89,0,0,1,11,30.27Z"/><path class="cls-16" d="M193.8,97.74a96.27,96.27,0,0,1-19.63,8.93,76.29,76.29,0,0,1-21.28,3.74c-23.34.76-47-3.58-52.37-20a11.34,11.34,0,0,1,2.79-11.59c9-8.95,32.1-29.74,57.34-34a32.29,32.29,0,0,1,27,7.95c9.21,8.38,13.19,17.41,14.81,24.57A18.89,18.89,0,0,1,193.8,97.74Z"/><path class="cls-17" d="M191.2,92.33l-.44.36A42.43,42.43,0,0,1,161.13,102c-10.8-.77-20.49-4.88-23-15.4a11.18,11.18,0,0,1,1.59-9c5.1-6.93,18.27-23,32.64-26.34,5.55-1.27,11.24,1,15.37,6.15a40.83,40.83,0,0,1,8.43,19C197.19,82.74,195.18,89.07,191.2,92.33Z"/><ellipse class="cls-18" cx="179.09" cy="62.49" rx="5.27" ry="5.82"/><ellipse class="cls-19" cx="184.52" cy="71.54" rx="2.04" ry="2.6"/><path class="cls-20" d="M176.68,29.09a34.33,34.33,0,0,0,9-5,.15.15,0,0,1,.22,0,.16.16,0,0,1,0,.16,7.75,7.75,0,0,1-4.08,3.88c-2.62.82-2.95,1-5.11,1.19a.15.15,0,0,1-.15-.15A.14.14,0,0,1,176.68,29.09Z"/><circle class="cls-20" cx="188.14" cy="22.84" r="0.79"/><path class="cls-21" d="M94.86,19.06c-7.69,0-13.92,2.46-13.92,5.51s6.23,5.51,13.92,5.51,13.92-2.48,13.92-5.51S102.54,19.06,94.86,19.06Zm0,10.72c-7.29,0-13.19-2.34-13.19-5.21s5.9-5.22,13.19-5.22,13.19,2.33,13.19,5.22S102.14,29.78,94.86,29.78Z"/><path class="cls-21" d="M94.86,17.9c-9.3,0-16.84,3-16.84,6.68s7.54,6.68,16.84,6.68,16.84-3,16.84-6.68S104.16,17.9,94.86,17.9Zm0,13c-8.81,0-16-2.83-16-6.31s7.14-6.32,16-6.32,16,2.83,16,6.32S103.67,30.88,94.86,30.88Z"/><path class="cls-21" d="M136.33,17.29c-6,0-10.85,1.92-10.85,4.29s4.86,4.3,10.85,4.3,10.86-1.92,10.86-4.3S142.33,17.29,136.33,17.29Zm0,8.36c-5.67,0-10.28-1.82-10.28-4.07s4.61-4.07,10.28-4.07,10.29,1.83,10.29,4.07-4.61,4.07-10.29,4.07Z"/><path class="cls-21" d="M136.33,16.38c-7.25,0-13.13,2.33-13.13,5.19s5.88,5.2,13.13,5.2,13.14-2.32,13.14-5.2S143.59,16.38,136.33,16.38Zm0,10.12c-6.87,0-12.43-2.21-12.43-4.93s5.56-4.91,12.43-4.91,12.45,2.2,12.45,4.91S143.21,26.5,136.33,26.5Z"/><path class="cls-21" d="M123.31,27.13c-3.45,0-6.24,1.11-6.24,2.47s2.79,2.47,6.24,2.47,6.24-1.1,6.24-2.47S126.72,27.13,123.31,27.13Zm0,4.82c-3.27,0-5.92-1.05-5.92-2.35s2.67-2.34,5.92-2.34,5.91,1,5.91,2.34S126.54,32,123.31,32Z"/><path class="cls-21" d="M123.31,26.64c-4.17,0-7.55,1.33-7.55,3s3.38,3,7.55,3,7.55-1.33,7.55-3S127.44,26.64,123.31,26.64Zm0,5.81c-4,0-7.16-1.26-7.16-2.83s3.21-2.83,7.16-2.83,7.15,1.27,7.15,2.83-3.24,2.81-7.15,2.81Z"/><path class="cls-22" d="M106.78,22.68a12.91,12.91,0,0,1-.11,1.64l0,.24A21.46,21.46,0,0,1,84,26.18L84,26a.75.75,0,0,1,0-.16l0-.15a1.25,1.25,0,0,0-.07-.26l0-.16a1.94,1.94,0,0,0-.07-.33l-.06-.37c0-.13,0-.14,0-.21a.82.82,0,0,1,0-.27,12.77,12.77,0,0,1-.08-1.38,11.65,11.65,0,1,1,23.29-.56,5.23,5.23,0,0,1,0,.56Z"/><path class="cls-23" d="M106.78,22.68a11.82,11.82,0,0,1-.15,1.88A21.82,21.82,0,0,1,102.37,27c-13.3-4-14.5-10.21-13.85-13.89a11.64,11.64,0,0,1,18.26,9.6Z"/><path class="cls-24" d="M104.61,21.15a8.55,8.55,0,0,1-.11,1.34c-.93.67-13.26-5.52-12.8-8.12a8.24,8.24,0,0,1,12.91,6.78Z"/><path class="cls-24" d="M104.61,21.15a8.55,8.55,0,0,1-.11,1.34c-.93.67-13.26-5.52-12.8-8.12a8.24,8.24,0,0,1,12.91,6.78Z"/><path class="cls-25" d="M104.61,21.15a8.55,8.55,0,0,1-.11,1.34c-.84.61-11-4.4-12.6-7.28,3.29,2.81,10.48,6.22,11.19,5.7a8.51,8.51,0,0,0,.1-1.33,8.14,8.14,0,0,0-1.45-4.68A8.17,8.17,0,0,1,104.61,21.15Z"/><path class="cls-26" d="M106.67,24.32l0,.24A21.46,21.46,0,0,1,84,26.18L84,26a.75.75,0,0,1,0-.16l0-.15a1.25,1.25,0,0,0-.07-.26l0-.16a1.94,1.94,0,0,0-.07-.33l-.06-.37c0-.13,0-.14,0-.21a.82.82,0,0,1,0-.27C85.78,26.11,99.05,29.66,106.67,24.32Z"/><ellipse class="cls-27" cx="96.31" cy="14.19" rx="1.65" ry="0.96"/><ellipse class="cls-27" cx="99.38" cy="15.44" rx="0.79" ry="0.63"/><path class="cls-22" d="M146,19.74a9.94,9.94,0,0,1-.09,1.34v.2a17.27,17.27,0,0,1-18.22,1.3.43.43,0,0,0,0-.16c0-.06,0-.09,0-.13a.29.29,0,0,1,0-.13,1.66,1.66,0,0,1-.06-.21.18.18,0,0,0,0-.12,1.2,1.2,0,0,1-.06-.28c0-.09,0-.19,0-.29a.94.94,0,0,1,0-.17v-.22c0-.37-.06-.74-.07-1.11a9.39,9.39,0,0,1,18.77,0Z"/><path class="cls-23" d="M146,19.74a9.86,9.86,0,0,1-.12,1.53,18.12,18.12,0,0,1-3.43,1.94C131.78,20,130.78,15,131.31,12A9.39,9.39,0,0,1,146,19.74Z"/><path class="cls-24" d="M144.23,18.52a6.56,6.56,0,0,1-.09,1.08c-.75.54-10.68-4.45-10.31-6.54a6.63,6.63,0,0,1,10.4,5.46Z"/><path class="cls-24" d="M144.23,18.52a6.56,6.56,0,0,1-.09,1.08c-.75.54-10.68-4.45-10.31-6.54a6.63,6.63,0,0,1,10.4,5.46Z"/><path class="cls-25" d="M144.23,18.52a6.56,6.56,0,0,1-.09,1.08c-.67.49-8.87-3.55-10.15-5.87,2.67,2.27,8.45,5,9,4.6a6.56,6.56,0,0,0,.09-1.08,6.63,6.63,0,0,0-1.17-3.76A6.61,6.61,0,0,1,144.23,18.52Z"/><path class="cls-26" d="M145.91,21.07v.2a17.27,17.27,0,0,1-18.21,1.3.58.58,0,0,0-.06-.17s0-.08,0-.12v-.13a1.6,1.6,0,0,1,0-.21.16.16,0,0,0,0-.13.87.87,0,0,1,0-.27c0-.09,0-.19,0-.29a.46.46,0,0,1,0-.17v-.22C129.09,22.51,139.78,25.37,145.91,21.07Z"/><ellipse class="cls-27" cx="137.57" cy="12.91" rx="1.33" ry="0.77"/><ellipse class="cls-27" cx="140.05" cy="13.91" rx="0.63" ry="0.51"/><path class="cls-22" d="M128.69,28.87a5.81,5.81,0,0,1-.05.72v.11a9.36,9.36,0,0,1-9.89.7v-.55a.3.3,0,0,0,0-.16v-.22a5.88,5.88,0,0,1,0-.6,5.09,5.09,0,0,1,10.18-.36,2.16,2.16,0,0,1,0,.36Z"/><path class="cls-23" d="M128.69,28.87a4.65,4.65,0,0,1-.07.83,9.46,9.46,0,0,1-1.86,1.05c-5.82-1.74-6.34-4.47-6.05-6.07a5.08,5.08,0,0,1,7.08,1.3,5.14,5.14,0,0,1,.9,2.89Z"/><path class="cls-24" d="M127.72,28.21a2.83,2.83,0,0,1,0,.58c-.41.3-5.81-2.41-5.6-3.55a3.54,3.54,0,0,1,2-.63,3.6,3.6,0,0,1,3.6,3.6Z"/><path class="cls-24" d="M127.72,28.21a2.83,2.83,0,0,1,0,.58c-.41.3-5.81-2.41-5.6-3.55a3.54,3.54,0,0,1,2-.63,3.6,3.6,0,0,1,3.6,3.6Z"/><path class="cls-25" d="M127.72,28.21a2.83,2.83,0,0,1,0,.58c-.37.27-4.82-1.93-5.51-3.18,1.43,1.23,4.58,2.72,4.89,2.49a2.83,2.83,0,0,0,0-.58,3.58,3.58,0,0,0-.66-2.05A3.58,3.58,0,0,1,127.72,28.21Z"/><path class="cls-26" d="M128.65,29.59v.11a9.34,9.34,0,0,1-9.88.7v-.22a.24.24,0,0,1,0-.12v-.21a.24.24,0,0,0,0-.16.14.14,0,0,0,0-.09v-.13C119.5,30.38,125.31,31.93,128.65,29.59Z"/><ellipse class="cls-27" cx="124.11" cy="25.16" rx="0.72" ry="0.42"/><ellipse class="cls-27" cx="125.45" cy="25.71" rx="0.35" ry="0.27"/><path class="cls-22" d="M166.31,25.14a5,5,0,0,1-.05.67v.1a8.5,8.5,0,0,1-5.08,1.65,8.67,8.67,0,0,1-4.05-1v-.21a.17.17,0,0,0,0-.1V25.7a5,5,0,0,1,0-.55,4.71,4.71,0,1,1,9.41,0Z"/><path class="cls-23" d="M166.31,25.14a3.84,3.84,0,0,1-.07.76,8.8,8.8,0,0,1-1.71,1c-5.35-1.62-5.86-4.13-5.59-5.61a4.54,4.54,0,0,1,2.67-.83,4.66,4.66,0,0,1,4.7,4.65Z"/><path class="cls-24" d="M165.39,24.53a3.23,3.23,0,0,1,0,.53c-.38.27-5.34-2.22-5.17-3.27a3.25,3.25,0,0,1,1.88-.59A3.34,3.34,0,0,1,165.39,24.53Z"/><path class="cls-24" d="M165.39,24.53a3.23,3.23,0,0,1,0,.53c-.38.27-5.34-2.22-5.17-3.27a3.25,3.25,0,0,1,1.88-.59A3.34,3.34,0,0,1,165.39,24.53Z"/><path class="cls-25" d="M165.39,24.53a3.23,3.23,0,0,1,0,.53c-.34.25-4.45-1.78-5.09-2.94,1.33,1.14,4.23,2.51,4.51,2.31a3.24,3.24,0,0,0-.54-2.43A3.34,3.34,0,0,1,165.39,24.53Z"/><path class="cls-26" d="M166.26,25.8v.1a8.58,8.58,0,0,1-5.08,1.66,8.79,8.79,0,0,1-4.05-1v-.22a.17.17,0,0,0,0-.1v-.55C157.83,26.52,163.18,28,166.26,25.8Z"/><ellipse class="cls-27" cx="162.08" cy="21.71" rx="0.67" ry="0.39"/><ellipse class="cls-27" cx="163.32" cy="22.22" rx="0.32" ry="0.25"/><path class="cls-22" d="M150.69,28.13a2.67,2.67,0,0,1,0,.4v.06a5.12,5.12,0,0,1-5.39.38,0,0,0,0,1,0,0v-.39a.06.06,0,0,1,0-.06,2.78,2.78,0,0,1,5.53-.53,1.21,1.21,0,0,1,0,.19Z"/><path class="cls-23" d="M150.69,28.13a2.32,2.32,0,0,1,0,.46,4.77,4.77,0,0,1-1,.57c-3.18-.95-3.47-2.44-3.34-3.34a2.78,2.78,0,0,1,3.87.72,2.75,2.75,0,0,1,.49,1.57Z"/><path class="cls-24" d="M150.17,27.77a1.71,1.71,0,0,1,0,.32c-.22.16-3.17-1.34-3.06-1.94a2,2,0,0,1,2.74.51,2,2,0,0,1,.34,1.11Z"/><path class="cls-24" d="M150.17,27.77a1.71,1.71,0,0,1,0,.32c-.22.16-3.17-1.34-3.06-1.94a2,2,0,0,1,2.74.51,2,2,0,0,1,.34,1.11Z"/><path class="cls-25" d="M150.17,27.77a1.71,1.71,0,0,1,0,.32,6.46,6.46,0,0,1-3-1.74,6.43,6.43,0,0,0,2.68,1.34,1.71,1.71,0,0,0,0-.32,2,2,0,0,0-.35-1.12A2,2,0,0,1,150.17,27.77Z"/><path class="cls-26" d="M150.69,28.53v.06a5.12,5.12,0,0,1-5.39.38,0,0,0,0,1,0,0v-.39a.06.06,0,0,1,0-.06A5.62,5.62,0,0,0,150.69,28.53Z"/><ellipse class="cls-27" cx="148.19" cy="26.11" rx="0.39" ry="0.23"/><ellipse class="cls-27" cx="148.92" cy="26.4" rx="0.19" ry="0.15"/><path class="cls-22" d="M156.08,20v.35a4,4,0,0,1-4.19.3v-.14h0V20a2.16,2.16,0,0,1,4.31,0Z"/><path class="cls-23" d="M156.08,20a2,2,0,0,1,0,.35,4.13,4.13,0,0,1-.79.45c-2.47-.74-2.67-1.9-2.57-2.58a2.25,2.25,0,0,1,1.23-.37A2.16,2.16,0,0,1,156.08,20Z"/><path class="cls-24" d="M155.67,19.7a1,1,0,0,1,0,.24c-.17.13-2.46-1-2.37-1.5a1.53,1.53,0,0,1,2.12.4,1.46,1.46,0,0,1,.27.86Z"/><path class="cls-24" d="M155.67,19.7a1,1,0,0,1,0,.24c-.17.13-2.46-1-2.37-1.5a1.53,1.53,0,0,1,2.12.4,1.46,1.46,0,0,1,.27.86Z"/><path class="cls-25" d="M155.67,19.7a1,1,0,0,1,0,.24,5,5,0,0,1-2.34-1.33,5.48,5.48,0,0,0,2.08,1.06,1,1,0,0,0,0-.25,1.52,1.52,0,0,0-.27-.87A1.54,1.54,0,0,1,155.67,19.7Z"/><path class="cls-26" d="M156,20.28v0a4,4,0,0,1-4.19.3v-.14h0v-.22A4.39,4.39,0,0,0,156,20.28Z"/><ellipse class="cls-27" cx="154.14" cy="18.41" rx="0.31" ry="0.18"/><ellipse class="cls-27" cx="154.71" cy="18.64" rx="0.15" ry="0.11"/><path class="cls-22" d="M146,31.57a.67.67,0,0,1,0,.2h0a2.7,2.7,0,0,1-1.57.51,2.56,2.56,0,0,1-1.24-.31h0v-.08s0,0,0,0V31.8h0a.48.48,0,0,1,0-.17,1.45,1.45,0,1,1,2.89-.2v.2Z"/><path class="cls-23" d="M146,31.57v.23a2.86,2.86,0,0,1-.54.3c-1.64-.49-1.8-1.27-1.72-1.73a1.45,1.45,0,0,1,2.26,1.2Z"/><path class="cls-24" d="M145.71,31.38v.16c-.12.09-1.65-.67-1.59-1a1,1,0,0,1,1.6.85Z"/><path class="cls-24" d="M145.71,31.38v.16c-.12.09-1.65-.67-1.59-1a1,1,0,0,1,1.6.85Z"/><path class="cls-25" d="M145.71,31.38v.16a3.31,3.31,0,0,1-1.57-.9,3.54,3.54,0,0,0,1.39.71v-.17a1,1,0,0,0-.18-.58A1,1,0,0,1,145.71,31.38Z"/><path class="cls-26" d="M146,31.77h0a2.7,2.7,0,0,1-1.57.51,2.6,2.6,0,0,1-1.25-.31h0V31.8h0A3.05,3.05,0,0,0,146,31.77Z"/><ellipse class="cls-27" cx="144.68" cy="30.51" rx="0.21" ry="0.12"/><ellipse class="cls-27" cx="145.06" cy="30.66" rx="0.1" ry="0.08"/><path class="cls-22" d="M153.53,31.09a.74.74,0,0,1,0,.21h0a2.67,2.67,0,0,1-2.81.21h0v-.18h0a1.45,1.45,0,0,1,2.87-.39,1.49,1.49,0,0,1,0,.21Z"/><path class="cls-23" d="M153.53,31.09v.24a2.5,2.5,0,0,1-.53.3c-1.65-.5-1.8-1.27-1.72-1.73a1.43,1.43,0,0,1,.82-.26A1.45,1.45,0,0,1,153.53,31.09Z"/><path class="cls-24" d="M153.26,30.9a.48.48,0,0,1,0,.17c-.11.08-1.65-.67-1.59-1a1.07,1.07,0,0,1,.58-.18A1,1,0,0,1,153.26,30.9Z"/><path class="cls-24" d="M153.26,30.9a.48.48,0,0,1,0,.17c-.11.08-1.65-.67-1.59-1a1.07,1.07,0,0,1,.58-.18A1,1,0,0,1,153.26,30.9Z"/><path class="cls-25" d="M153.26,30.9a.48.48,0,0,1,0,.17,3.25,3.25,0,0,1-1.56-.91,3.29,3.29,0,0,0,1.39.71v-.16a1.07,1.07,0,0,0-.18-.58A1,1,0,0,1,153.26,30.9Z"/><path class="cls-26" d="M153.52,31.31h0a2.67,2.67,0,0,1-2.81.21h0v-.09s0,0,0,0v-.05h0A3.09,3.09,0,0,0,153.52,31.31Z"/><ellipse class="cls-27" cx="152.23" cy="30.04" rx="0.21" ry="0.12"/><ellipse class="cls-27" cx="152.62" cy="30.19" rx="0.1" ry="0.08"/><path class="cls-22" d="M114,32.65a3.68,3.68,0,0,1,0,.47v.07a6.13,6.13,0,0,1-6.46.46v-1a3.34,3.34,0,0,1,6.68,0Z"/><path class="cls-23" d="M114,32.65a3.27,3.27,0,0,1,0,.54,6.29,6.29,0,0,1-1.22.67c-3.8-1.15-4.14-2.92-4-4a3.34,3.34,0,0,1,4.64.89,3.28,3.28,0,0,1,.57,1.85Z"/><path class="cls-24" d="M113.38,32.18a2.41,2.41,0,0,1,0,.38c-.26.19-3.78-1.58-3.65-2.32a2.28,2.28,0,0,1,1.34-.41A2.35,2.35,0,0,1,113.38,32.18Z"/><path class="cls-24" d="M113.38,32.18a2.41,2.41,0,0,1,0,.38c-.26.19-3.78-1.58-3.65-2.32a2.28,2.28,0,0,1,1.34-.41A2.35,2.35,0,0,1,113.38,32.18Z"/><path class="cls-25" d="M113.38,32.18a2.41,2.41,0,0,1,0,.38,7.65,7.65,0,0,1-3.6-2.08,8.15,8.15,0,0,0,3.2,1.63,2.41,2.41,0,0,0,0-.38,2.35,2.35,0,0,0-.41-1.33A2.35,2.35,0,0,1,113.38,32.18Z"/><path class="cls-26" d="M114,33.08v.08a6.13,6.13,0,0,1-6.46.46V33C108,33.6,111.81,34.61,114,33.08Z"/><ellipse class="cls-27" cx="111.02" cy="30.19" rx="0.47" ry="0.27"/><ellipse class="cls-27" cx="111.9" cy="30.54" rx="0.23" ry="0.18"/><path class="cls-22" d="M116.42,19.33v.39a4.44,4.44,0,0,1-4.71.34V20h0v-.1a.06.06,0,0,1,0-.06.11.11,0,0,1,0-.08v-.1a1.4,1.4,0,0,1,0-.29,2.43,2.43,0,0,1,4.85,0Z"/><path class="cls-23" d="M116.42,19.33a1.72,1.72,0,0,1,0,.39,3.88,3.88,0,0,1-.88.51c-2.78-.83-3-2.13-2.88-2.9A2.42,2.42,0,0,1,116,18a2.45,2.45,0,0,1,.43,1.39Z"/><path class="cls-24" d="M116,19a1.31,1.31,0,0,1,0,.28c-.19.14-2.76-1.16-2.67-1.7a1.71,1.71,0,0,1,2.38.47A1.69,1.69,0,0,1,116,19Z"/><path class="cls-24" d="M116,19a1.31,1.31,0,0,1,0,.28c-.19.14-2.76-1.16-2.67-1.7a1.71,1.71,0,0,1,2.38.47A1.69,1.69,0,0,1,116,19Z"/><path class="cls-25" d="M116,19a1.31,1.31,0,0,1,0,.28,5.64,5.64,0,0,1-2.62-1.53A5.68,5.68,0,0,0,115.67,19a1.22,1.22,0,0,0,0-.27,1.79,1.79,0,0,0-.3-1A1.7,1.7,0,0,1,116,19Z"/><path class="cls-26" d="M116.4,19.68v0a4.44,4.44,0,0,1-4.71.34V20h0v-.1a.06.06,0,0,1,0-.06v-.18A4.89,4.89,0,0,0,116.4,19.68Z"/><ellipse class="cls-27" cx="114.24" cy="17.57" rx="0.35" ry="0.2"/><ellipse class="cls-27" cx="114.87" cy="17.83" rx="0.17" ry="0.13"/><path class="cls-22" d="M73,24.05a2,2,0,0,1,0,.35v.05a4.49,4.49,0,0,1-4.71.34v-.08h0v-.06h0v-.54a2.43,2.43,0,0,1,4.86,0Z"/><path class="cls-23" d="M73,24.05a2.67,2.67,0,0,1,0,.4,4.08,4.08,0,0,1-.89.5c-2.77-.83-3-2.13-2.88-2.9a2.44,2.44,0,0,1,3.81,2Z"/><path class="cls-24" d="M72.55,23.74a1.22,1.22,0,0,1,0,.27c-.2.15-2.77-1.15-2.67-1.69a1.7,1.7,0,0,1,2.67,1.42Z"/><path class="cls-24" d="M72.55,23.74a1.22,1.22,0,0,1,0,.27c-.2.15-2.77-1.15-2.67-1.69a1.7,1.7,0,0,1,2.67,1.42Z"/><path class="cls-25" d="M72.55,23.74a1.22,1.22,0,0,1,0,.27,5.43,5.43,0,0,1-2.63-1.51,5.82,5.82,0,0,0,2.33,1.18,1.22,1.22,0,0,0,0-.27,1.66,1.66,0,0,0-.3-1A1.7,1.7,0,0,1,72.55,23.74Z"/><path class="cls-26" d="M73,24.4v.05a4.49,4.49,0,0,1-4.71.34,0,0,0,0,1,0-.05v0h0v-.06h0a.08.08,0,0,1,0-.07.08.08,0,0,1,0-.07,0,0,0,0,1,0-.05V24.4A5.1,5.1,0,0,0,73,24.4Z"/><ellipse class="cls-27" cx="70.8" cy="22.28" rx="0.35" ry="0.2"/><ellipse class="cls-27" cx="71.44" cy="22.54" rx="0.17" ry="0.13"/></g></g></g></svg>