<?xml version="1.0" encoding="UTF-8" standalone="no"?>
<svg
   viewBox="0 0 16000000 16000000"
   version="1.1"
   id="svg33"
   sodipodi:docname="Shakalnaya flask.svg"
   width="16000000"
   height="16000000"
   xmlns:inkscape="http://www.inkscape.org/namespaces/inkscape"
   xmlns:sodipodi="http://sodipodi.sourceforge.net/DTD/sodipodi-0.dtd"
   xmlns="http://www.w3.org/2000/svg"
   xmlns:svg="http://www.w3.org/2000/svg">
  <sodipodi:namedview
     id="namedview35"
     pagecolor="#ffffff"
     bordercolor="#000000"
     borderopacity="0.25"
     inkscape:showpageshadow="2"
     inkscape:pageopacity="0.0"
     inkscape:pagecheckerboard="0"
     inkscape:deskcolor="#d1d1d1"
     showgrid="false" />
  <defs
     id="defs4">
    <style
       id="style2">.cls-1{fill:#42210b;}.cls-2,.cls-6{fill:#e58080;}.cls-2,.cls-5{opacity:0.7;}.cls-3{fill:#f3e1d2;}.cls-4{fill:#c69c6d;stroke:#8c6239;stroke-miterlimit:10;stroke-width:1.88px;}.cls-7{fill:#ef4848;}.cls-8{fill:#ff5100;opacity:0.65;}.cls-9{fill:#eaad83;}</style>
  </defs>
  <g
     id="Layer_4"
     data-name="Layer 4">
    <path
       class="cls-1"
       d="m 2043.87,3894.7 a 276.92,276.92 0 0 1 -94.71,-16.69 L 1326,3653 c -124.49,-45 -200.51,-172.66 -180.79,-303.5 L 1401.06,1661 a 301.7,301.7 0 0 1 131.22,-205.75 L 1616,1400 a 711.93,711.93 0 0 1 150.38,-75.57 l 192.67,-69.7 90.57,-109.48 0.73,0.43 152.85,-183 1.22,-1.5 c 1,-1.27 2.64,-3.29 4.73,-5.67 1.07,-1.26 2.41,-2.8 4.18,-4.82 l 2.54,-2.89 6.94,-6.8 13,-12.43 14.88,-9.32 c 42.92,-27.07 96.38,-40.8 158.9,-40.8 69.83,0 153.1,17.41 234.48,49 83.11,32.14 157.25,76.24 208.76,124.17 77,71.67 108.38,156.38 88.69,239.09 l -39.23,281 17.88,25.24 a 854.23,854.23 0 0 1 98.11,182.12 l 23,59.19 a 310.64,310.64 0 0 1 -5.59,237.88 l -737.54,1653.5 a 278.79,278.79 0 0 1 -254.28,165.06 z m -626.41,-504.16 a 3.49,3.49 0 0 0 2.07,3.53 l 623.3,225.12 a 3.15,3.15 0 0 0 1.09,0.22 3.31,3.31 0 0 0 2.91,-1.91 L 2784.3,1964.12 a 34.13,34.13 0 0 0 0.62,-25.81 l -23,-59 a 577.22,577.22 0 0 0 -66.4,-123.24 l -81,-114.36 10.77,-76.92 43.05,-308.47 c -2,-2 -4.51,-4.36 -7.56,-7 -26.68,-23.2 -69,-47 -116.21,-65.25 -49,-19 -99.5,-30.35 -135,-30.35 -2.82,0 -5.29,0.07 -7.43,0.19 L 2164,1439 l -40.42,49 -263.45,95.28 a 437,437 0 0 0 -92.21,46.34 l -83.37,55.08 a 26.35,26.35 0 0 0 -11.25,17.65 z"
       id="path6" />
    <path
       class="cls-1"
       d="m 1639.89,1634.55 c -82.51,0 -160.73,-7.7 -232.47,-22.89 -72.46,-15.33 -138.5,-38.34 -196.3,-68.37 -122.68,-63.74 -207.14,-158.65 -244.27,-274.46 -30,-93.72 -37,-186.62 -20.55,-276.11 16.44,-89.72 55.9,-173.8 117.27,-249.93 82.81,-102.69 179.52,-157 198.07,-166.86 l 160.73,-84.06 78.86,162.62 c 35.23,72.66 141.3,108.25 201.39,123 93.81,23 181.38,23.3 182.25,23.3 h 2.34 l 190,-3.13 -13,190.61 c -5.59,80 66.25,213.92 105.95,267.81 0,0 -438.26,378.47 -530.19,378.47 z M 1319.24,871.81 a 395,395 0 0 0 -42,44.63 c -64.52,80.54 -80.3,168.33 -48.24,268.37 17.46,54.42 62.21,96.06 136.82,127.28 93.16,39 200.47,47.16 274.09,47.16 75.1,0 150.95,-8.78 213.6,-24.74 13.22,-3.36 24.88,-6.79 35.11,-10.15 -7.71,-13.85 -15.71,-28.9 -23.64,-44.91 -23.93,-48.29 -42.52,-95.69 -55.27,-140.87 a 587,587 0 0 1 -14.92,-67.11 c -50.27,-4.69 -114,-14 -180.76,-32.25 -75.76,-20.74 -142.39,-49.57 -198,-85.69 q -55.59,-36.01 -96.79,-81.72 z"
       id="path8" />
    <path
       class="cls-1"
       d="m 1715.39,589.31 508.08,-528.41 558.27,582.53 -517.59,479.29 z m 553.36,154 120.48,-111.6 -166.08,-173.3 -119.56,124.33 z"
       id="path10" />
    <path
       class="cls-2"
       d="m 2885.4299,1969.4744 -719.5382,1687.5449 a 100.62803,105.26807 0 0 1 -126.1119,56.0838 L 1431.67,3483.3587 a 100.77438,105.42117 0 0 1 -65.3682,-114.8008 l 249.5895,-1723.1957 a 122.86298,128.52829 0 0 1 53.5531,-87.7743 l 81.3883,-56.2471 a 523.44332,547.57972 0 0 1 110.6187,-58.1761 l 231.9596,-87.7745 c 109.5161,124.1702 622.9493,214.6086 638.9597,217.3949 a 1.1707741,1.2247594 0 0 0 0.361,0.081 l 56.5874,83.6919 a 660.68731,691.15214 0 0 1 76.0223,147.6345 l 22.4398,60.1663 a 130.23886,136.24428 0 0 1 -2.3513,105.115 z"
       id="path12"
       style="stroke-width:0.997886" />
    <path
       class="cls-3"
       d="m 1343.49,730.94 c 0,0 -312.57,163.5 -209.72,484.4 102.85,320.9 770,275.72 895.35,144.81 0,0 -152.25,-205.51 -139.78,-384.08 0,0 -423,8.11 -545.85,-245.13 z"
       id="path14" />
    <g
       class="cls-5"
       id="g20">
      <path
         class="cls-6"
         d="m 2770.15,1251 -0.6,4.06 -45.17,323.65 c -393.82,-50.44 -616.29,-189.72 -637.37,-203.49 l 240.92,-288.35 12.87,-15.43 a 32.16,32.16 0 0 0 -4.44,8.2 c -16.19,44.57 68.81,116.32 189.79,160.21 110,40 211.86,43.22 241.59,10.09 z"
         id="path18" />
    </g>
    <g
       class="cls-5"
       id="g24">
      <path
         class="cls-7"
         d="m 2769.55,1255 0.6,-4.06 -2.41,-1.06 c -29.73,33.13 -131.59,29.89 -241.59,-10.09 -121,-43.89 -206,-115.64 -189.79,-160.21 a 32.16,32.16 0 0 1 4.44,-8.2 6.17,6.17 0 0 1 0.6,-0.83 5.22,5.22 0 0 1 0.6,-0.68 2.65,2.65 0 0 1 0.61,-0.68 c 0.37,-0.52 0.83,-1 1.28,-1.5 l 0.15,-0.15 c 38.69,-24.47 134.53,-16.34 236.7,23.26 120.75,46.76 204.92,120.02 188.81,164.2 z"
         id="path22" />
    </g>
    <path
       class="cls-8"
       d="m 2708.049,2157.7545 -609.4768,1425.0819 a 62.203237,64.875944 0 0 1 -77.9342,34.5935 l -564.3459,-212.5574 a 62.194112,64.866427 0 0 1 -40.3678,-70.7383 l 177.0561,-1218.7104 -0.6935,-0.076 h 1089.3825 a 28.888872,30.130151 0 0 1 26.3796,42.4068 z"
       id="path28"
       style="stroke-width:0.931869" />
    <polygon
       class="cls-9"
       points="1962.59,585.11 2267.06,881.1 2531.79,635.96 2223.27,314 "
       id="polygon30" />
  </g>
</svg>
