<svg xmlns="http://www.w3.org/2000/svg" viewBox="0 0 4000 4000"><defs><style>.cls-1{fill:#42210b;}.cls-2,.cls-6{fill:#e58080;}.cls-2,.cls-5{opacity:0.7;}.cls-3{fill:#f3e1d2;}.cls-4{fill:#c69c6d;stroke:#8c6239;stroke-miterlimit:10;stroke-width:1.88px;}.cls-7{fill:#ef4848;}.cls-8{fill:#ff5100;opacity:0.65;}.cls-9{fill:#eaad83;}</style></defs><g id="Layer_4" data-name="Layer 4"><path class="cls-1" d="M2043.87,3894.7a276.92,276.92,0,0,1-94.71-16.69L1326,3653c-124.49-45-200.51-172.66-180.79-303.5L1401.06,1661a301.7,301.7,0,0,1,131.22-205.75L1616,1400a711.93,711.93,0,0,1,150.38-75.57l192.67-69.7,90.57-109.48.73.43,152.85-183,1.22-1.5c1-1.27,2.64-3.29,4.73-5.67,1.07-1.26,2.41-2.8,4.18-4.82l2.54-2.89,6.94-6.8,13-12.43,14.88-9.32c42.92-27.07,96.38-40.8,158.9-40.8,69.83,0,153.1,17.41,234.48,49,83.11,32.14,157.25,76.24,208.76,124.17,77,71.67,108.38,156.38,88.69,239.09l-39.23,281,17.88,25.24a854.23,854.23,0,0,1,98.11,182.12l23,59.19a310.64,310.64,0,0,1-5.59,237.88l-737.54,1653.5A278.79,278.79,0,0,1,2043.87,3894.7Zm-626.41-504.16a3.49,3.49,0,0,0,2.07,3.53l623.3,225.12a3.15,3.15,0,0,0,1.09.22,3.31,3.31,0,0,0,2.91-1.91L2784.3,1964.12a34.13,34.13,0,0,0,.62-25.81l-23-59a577.22,577.22,0,0,0-66.4-123.24l-81-114.36,10.77-76.92,43.05-308.47c-2-2-4.51-4.36-7.56-7-26.68-23.2-69-47-116.21-65.25-49-19-99.5-30.35-135-30.35-2.82,0-5.29.07-7.43.19L2164,1439l-40.42,49-263.45,95.28a437,437,0,0,0-92.21,46.34l-83.37,55.08a26.35,26.35,0,0,0-11.25,17.65Z"/><path class="cls-1" d="M1639.89,1634.55c-82.51,0-160.73-7.7-232.47-22.89-72.46-15.33-138.5-38.34-196.3-68.37-122.68-63.74-207.14-158.65-244.27-274.46-30-93.72-37-186.62-20.55-276.11,16.44-89.72,55.9-173.8,117.27-249.93,82.81-102.69,179.52-157,198.07-166.86l160.73-84.06,78.86,162.62c35.23,72.66,141.3,108.25,201.39,123,93.81,23,181.38,23.3,182.25,23.3h2.34l190-3.13-13,190.61c-5.59,80,66.25,213.92,105.95,267.81,0,0-438.26,378.47-530.19,378.47ZM1319.24,871.81a395,395,0,0,0-42,44.63c-64.52,80.54-80.3,168.33-48.24,268.37,17.46,54.42,62.21,96.06,136.82,127.28,93.16,39,200.47,47.16,274.09,47.16,75.1,0,150.95-8.78,213.6-24.74,13.22-3.36,24.88-6.79,35.11-10.15-7.71-13.85-15.71-28.9-23.64-44.91-23.93-48.29-42.52-95.69-55.27-140.87a587,587,0,0,1-14.92-67.11c-50.27-4.69-114-14-180.76-32.25-75.76-20.74-142.39-49.57-198-85.69Q1360.44,917.52,1319.24,871.81Z"/><path class="cls-1" d="M1715.39,589.31,2223.47,60.9l558.27,582.53-517.59,479.29Zm553.36,154,120.48-111.6L2223.15,458.41,2103.59,582.74Z"/><path class="cls-2" d="M2875.59,2004.85l-737.5,1653.43a103.14,103.14,0,0,1-129.26,54.95l-623.29-225.1a103.29,103.29,0,0,1-67-112.48l255.82-1688.36a125.93,125.93,0,0,1,54.89-86l83.42-55.11a536.51,536.51,0,0,1,113.38-57l237.75-86c112.25,121.66,638.5,210.27,654.91,213a1.2,1.2,0,0,0,.37.08l58,82A677.18,677.18,0,0,1,2855,1842.91l23,58.95A133.49,133.49,0,0,1,2875.59,2004.85Z"/><path class="cls-3" d="M1343.49,730.94s-312.57,163.5-209.72,484.4,770,275.72,895.35,144.81c0,0-152.25-205.51-139.78-384.08C1889.34,976.07,1466.34,984.18,1343.49,730.94Z"/><path class="cls-4" d="M2724.34,1578.66l-5.27,37.64a1.2,1.2,0,0,1-.37-.08c-16.41-2.71-542.66-91.32-654.91-213l23.19-28.08C2108.06,1388.94,2330.52,1528.22,2724.34,1578.66Z"/><g class="cls-5"><path class="cls-6" d="M2770.15,1251l-.6,4.06-45.17,323.65c-393.82-50.44-616.29-189.72-637.37-203.49l240.92-288.35,12.87-15.43a32.16,32.16,0,0,0-4.44,8.2c-16.19,44.57,68.81,116.32,189.79,160.21,110,40,211.86,43.22,241.59,10.09Z"/></g><g class="cls-5"><path class="cls-7" d="M2769.55,1255l.6-4.06-2.41-1.06c-29.73,33.13-131.59,29.89-241.59-10.09-121-43.89-206-115.64-189.79-160.21a32.16,32.16,0,0,1,4.44-8.2,6.17,6.17,0,0,1,.6-.83,5.22,5.22,0,0,1,.6-.68,2.65,2.65,0,0,1,.61-.68c.37-.52.83-1,1.28-1.5l.15-.15c38.69-24.47,134.53-16.34,236.7,23.26C2701.49,1137.56,2785.66,1210.82,2769.55,1255Z"/></g><ellipse cx="1831.14" cy="1347.31" rx="65.21" ry="35.69"/><path class="cls-8" d="M2793.83,2102.56,2125.89,3600a68.17,68.17,0,0,1-85.41,36.35L1422,3413a68.16,68.16,0,0,1-44.24-74.33L1571.8,2058.08l-.76-.08H2764.92A31.66,31.66,0,0,1,2793.83,2102.56Z"/><polygon class="cls-9" points="1962.59 585.11 2267.06 881.1 2531.79 635.96 2223.27 314 1962.59 585.11"/></g></svg>